<svg width="620" height="620" viewBox="0 0 620 620" fill="none" xmlns="http://www.w3.org/2000/svg">
<path d="M310.09 500.737C312.746 500.737 314.993 501.866 316.083 502.454C317.483 503.207 318.931 504.188 320.339 505.235C323.178 507.346 326.528 510.238 330.109 513.556C337.305 520.226 345.974 529.123 354.306 538.243C362.639 547.363 370.764 556.847 376.851 564.715C379.881 568.633 382.509 572.282 384.419 575.358C385.369 576.887 386.235 578.426 386.89 579.883C387.435 581.096 388.287 583.206 388.287 585.571C388.287 589.745 385.862 592.629 384.13 594.181C382.302 595.82 380.053 597.079 377.876 598.073C373.457 600.09 367.582 601.796 361.031 603.194C347.817 606.012 330.363 607.884 312.719 607.995C294.816 608.107 275.265 606.076 260.08 603.094C252.528 601.611 245.734 599.832 240.663 597.828C238.176 596.844 235.678 595.644 233.658 594.137C232.018 592.913 228.597 589.934 228.597 585.055C228.597 582.906 229.472 581.242 229.594 580.993C229.907 580.355 230.268 579.762 230.577 579.284C231.211 578.302 232.042 577.168 232.963 575.972C234.831 573.547 237.454 570.378 240.597 566.721C246.904 559.383 255.554 549.795 265.038 539.706L265.039 539.705C274.556 529.584 283.81 520.34 291.079 513.584C294.699 510.221 297.922 507.385 300.489 505.347C301.756 504.341 303.009 503.413 304.155 502.697C304.723 502.342 305.418 501.942 306.181 501.606C306.755 501.353 308.222 500.737 310.09 500.737ZM310.436 517.879C308.338 519.544 305.46 522.061 301.971 525.304C295.457 531.358 287.144 539.629 278.441 548.817L276.695 550.665C267.331 560.627 258.846 570.035 252.731 577.15C250.703 579.509 248.963 581.586 247.55 583.328C251.3 584.7 256.641 586.113 263.163 587.394C277.34 590.178 295.824 592.1 312.617 591.995L314.184 591.981C330.35 591.778 346.063 590.026 357.693 587.545C363.444 586.319 367.868 584.98 370.775 583.718C369.281 581.321 367.046 578.19 364.195 574.505C358.458 567.088 350.639 557.95 342.493 549.035C334.347 540.118 326 531.563 319.233 525.291C315.83 522.139 312.961 519.687 310.79 518.073C310.683 517.993 310.578 517.919 310.478 517.846C310.464 517.857 310.45 517.868 310.436 517.879ZM412.513 437.015C415.402 436.954 417.793 438.101 419.272 438.973C420.897 439.932 422.442 441.177 423.85 442.468C426.679 445.063 429.739 448.574 432.824 452.518C439.037 460.459 446.03 471.026 452.442 481.842C458.857 492.663 464.837 503.979 468.96 513.465C471.012 518.186 472.694 522.662 473.716 526.506C474.226 528.425 474.624 530.382 474.775 532.249C474.916 533.985 474.911 536.364 474.014 538.715L474.013 538.717C473.365 540.412 472.269 541.743 471.731 542.376C471.02 543.213 470.177 544.078 469.296 544.926C467.521 546.634 465.203 548.642 462.564 550.798C457.262 555.129 450.291 560.355 442.899 565.47L422.742 579.413C415.772 584.235 406.251 582.786 401.032 576.108L393.09 565.945L393.089 565.943C386.404 557.384 368.917 537.643 354.26 522.164L354.259 522.163L334.465 501.254C327.372 493.761 329.12 481.613 338.038 476.424L366.523 459.854C376.847 453.846 386.823 448.355 394.603 444.338C398.481 442.336 401.89 440.66 404.558 439.463C405.882 438.869 407.125 438.347 408.204 437.955C408.905 437.701 410.67 437.055 412.505 437.015H412.513ZM216.706 441.505C218.739 441.345 220.589 441.928 221.305 442.155C222.363 442.49 223.505 442.943 224.636 443.433C226.919 444.422 229.718 445.806 232.773 447.409C238.912 450.631 246.54 454.982 254.053 459.492C261.567 464.002 269.076 468.737 274.971 472.739C277.908 474.732 280.532 476.603 282.585 478.21C283.607 479.01 284.573 479.812 285.399 480.579C286.088 481.221 287.187 482.296 288.004 483.629C290.076 487.008 289.151 490.483 288.901 491.397C288.496 492.881 287.832 494.312 287.192 495.526C285.875 498.02 283.916 500.96 281.618 504.073C276.971 510.369 270.292 518.237 262.693 526.231L262.692 526.232C247.834 541.859 231.715 560.516 226.801 567.595L226.802 567.596L221.469 575.283C216.641 582.24 207.228 584.231 199.996 579.824L190.643 574.122C181.788 568.73 168.945 560.152 161.963 554.957L155.743 550.331C148.942 545.273 147.267 535.788 151.922 528.705L177.224 490.207C185.381 477.794 193.277 466.428 199.445 458.101C202.517 453.954 205.233 450.463 207.377 447.948C208.432 446.71 209.472 445.561 210.424 444.657C210.888 444.216 211.494 443.678 212.188 443.192C212.542 442.944 214.259 441.698 216.706 441.505ZM412.242 453.566C411.904 453.71 411.526 453.874 411.108 454.062C408.819 455.089 405.7 456.616 401.942 458.556C394.448 462.425 384.712 467.782 374.569 473.684L346.084 490.254L365.877 511.163C380.632 526.745 398.535 546.923 405.696 556.092L413.64 566.255L433.795 552.312C440.902 547.394 447.525 542.423 452.442 538.407C454.913 536.389 456.863 534.685 458.202 533.396C458.405 533.201 458.584 533.022 458.743 532.862C458.655 532.297 458.502 531.553 458.253 530.615C457.522 527.865 456.184 524.212 454.285 519.843C450.507 511.151 444.872 500.447 438.68 490.001C432.485 479.551 425.878 469.604 420.224 462.377C417.376 458.737 414.934 456.002 413.035 454.26C412.74 453.989 412.475 453.759 412.242 453.566ZM219.333 458.588C217.556 460.694 215.167 463.757 212.302 467.625C206.354 475.654 198.632 486.763 190.595 498.995L165.292 537.494L171.513 542.12C177.622 546.664 188.921 554.248 197.325 559.451L198.965 560.458L198.968 560.459L208.323 566.161L213.656 558.475C219.334 550.295 236.213 530.861 251.098 515.206C258.366 507.559 264.588 500.203 268.745 494.571C270.021 492.843 271.044 491.352 271.825 490.121C270.279 488.954 268.307 487.553 265.984 485.977C260.408 482.192 253.167 477.621 245.818 473.21C238.468 468.798 231.12 464.61 225.337 461.576C222.977 460.337 220.951 459.33 219.333 458.588ZM119.491 407.458C121.878 407.386 124.938 407.464 127.1 407.461C140.563 407.445 154.292 411.26 165.419 415.521C176.611 419.806 185.753 424.77 190.24 427.562C193.328 429.484 194.029 432.523 194.187 433.877C194.352 435.299 194.156 436.527 194.016 437.225C193.719 438.706 193.15 440.233 192.608 441.535C191.469 444.264 189.69 447.747 187.586 451.564C183.335 459.276 177.284 469.197 170.983 478.955C164.678 488.718 158.025 498.47 152.543 505.835C149.819 509.495 147.278 512.708 145.154 515.068C144.112 516.226 143.002 517.368 141.904 518.283C141.361 518.735 140.638 519.287 139.782 519.763C139.087 520.15 137.435 520.992 135.236 520.992C132.85 520.992 131.02 520.065 130.008 519.438C128.915 518.761 128.01 517.953 127.313 517.251C125.913 515.843 124.571 514.071 123.339 512.248C120.834 508.544 118.069 503.564 115.341 498.044C109.873 486.979 104.123 472.865 100.522 460.526C97.0479 448.625 95.2411 438.03 96.3028 429.377C97.4377 420.128 102.006 412.568 110.999 408.919L111.001 408.918C113.89 407.747 117.132 407.53 119.491 407.458ZM495.982 407.229C506.104 407.397 514.976 410.704 520.01 419.03C524.648 426.702 524.739 436.698 522.824 447.159C520.983 457.219 517.015 469.129 511.367 482.653L510.216 485.379C507.511 491.712 504.631 497.566 502.123 501.932C500.887 504.084 499.628 506.075 498.432 507.621C497.851 508.372 497.099 509.263 496.206 510.045C495.757 510.439 495.097 510.96 494.246 511.416C493.447 511.845 491.989 512.482 490.083 512.482C487.525 512.482 485.723 511.288 485.315 511.022C484.604 510.559 484.028 510.054 483.641 509.693C482.841 508.947 482.036 508.044 481.301 507.167C479.791 505.367 477.945 502.918 475.933 500.115C471.878 494.467 466.792 486.884 461.7 478.973C456.602 471.053 451.443 462.718 447.242 455.546C443.17 448.593 439.65 442.153 438.187 438.314L438.186 438.312C437.243 435.836 436.817 432.838 437.801 429.672C438.747 426.629 440.703 424.384 442.689 422.749C446.39 419.702 452.042 417.306 458.75 414.976C473.59 409.822 486.041 407.064 495.982 407.229ZM127.119 423.461C124.152 423.465 122.125 423.386 119.975 423.451C118.999 423.48 118.255 423.538 117.692 423.618C117.105 423.701 116.932 423.779 117.012 423.746C117.006 423.749 117 423.751 116.994 423.754C114.482 424.779 112.765 426.586 112.184 431.326C111.527 436.674 112.576 444.72 115.881 456.043C119.177 467.336 124.555 480.576 129.685 490.956C131.809 495.255 133.819 498.914 135.544 501.669C136.766 500.163 138.164 498.356 139.708 496.282C144.909 489.295 151.354 479.858 157.542 470.276C163.732 460.69 169.568 451.108 173.574 443.84C174.781 441.652 175.779 439.746 176.559 438.158C172.286 435.87 166.416 433.035 159.697 430.462C149.453 426.54 137.811 423.448 127.119 423.461ZM495.716 423.227C488.575 423.109 478.224 425.151 463.999 430.091C458.652 431.948 455.575 433.36 453.903 434.378C455.222 437.186 457.692 441.728 461.049 447.459C465.112 454.396 470.149 462.537 475.154 470.314C480.166 478.1 485.091 485.437 488.93 490.784C489.137 491.072 489.343 491.352 489.542 491.626C491.386 488.186 493.472 483.846 495.502 479.093C501.571 464.887 505.433 453.307 507.086 444.278C508.788 434.979 507.866 429.87 506.317 427.308C505.164 425.4 502.674 423.342 495.716 423.227ZM315.971 360.432C317.333 360.405 318.476 360.699 319.037 360.858C319.722 361.052 320.38 361.295 320.957 361.53C322.116 362 323.417 362.626 324.763 363.32C327.479 364.72 330.895 366.67 334.69 368.941C342.308 373.5 351.843 379.59 361.15 385.778C370.456 391.964 379.635 398.315 386.527 403.404C389.954 405.934 392.931 408.237 395.102 410.093C396.164 411.002 397.204 411.949 398.039 412.851C398.444 413.289 398.977 413.903 399.457 414.637C399.719 415.037 400.966 416.896 400.966 419.512C400.966 422.16 399.65 423.955 399.506 424.164C399.111 424.739 398.715 425.163 398.503 425.381C398.051 425.847 397.575 426.252 397.231 426.534C396.495 427.135 395.551 427.833 394.525 428.563C392.436 430.05 389.518 432.015 386.082 434.27C379.185 438.796 369.932 444.667 360.42 450.58C350.905 456.497 341.083 462.486 333.041 467.248C325.286 471.841 318.523 475.697 315.568 476.933L315.564 476.935C313.895 477.631 312.365 477.671 311.508 477.642C310.559 477.61 309.693 477.459 309.004 477.306C307.628 477 306.19 476.504 304.84 475.972C302.097 474.893 298.758 473.284 295.166 471.402C287.93 467.61 278.963 462.334 270.292 456.871C261.625 451.411 253.081 445.655 246.712 440.873C243.559 438.506 240.75 436.238 238.699 434.28C237.703 433.328 236.635 432.216 235.786 431.03C235.365 430.441 234.815 429.584 234.396 428.521C234.011 427.547 233.415 425.597 233.949 423.232L233.95 423.225L234.078 422.728C234.4 421.604 234.879 420.736 235.165 420.252C235.548 419.607 235.972 419.016 236.36 418.516C237.138 417.514 238.099 416.45 239.124 415.388C241.195 413.243 243.984 410.639 247.231 407.778C253.75 402.032 262.493 394.915 271.914 387.78C281.329 380.647 290.563 374.119 297.887 369.335C301.535 366.952 304.806 364.939 307.436 363.489C308.74 362.77 310.01 362.119 311.162 361.624C311.95 361.286 313.859 360.474 315.971 360.432ZM316.218 376.935C315.907 377.096 315.554 377.282 315.16 377.499C313.024 378.677 310.127 380.45 306.637 382.73C299.684 387.272 290.757 393.577 281.577 400.533L281.576 400.534C272.402 407.482 263.975 414.347 257.81 419.781C255.602 421.726 253.733 423.447 252.245 424.892C253.382 425.828 254.743 426.896 256.317 428.078C262.217 432.506 270.368 438.009 278.821 443.334C287.272 448.658 295.853 453.698 302.592 457.229C305.987 459.008 308.743 460.313 310.701 461.084C310.888 461.158 311.061 461.221 311.218 461.28C313.86 459.899 318.617 457.195 324.888 453.481C332.804 448.793 342.525 442.868 351.973 436.994C361.424 431.117 370.556 425.322 377.303 420.894C378.418 420.162 379.458 419.47 380.421 418.828C379.391 418.039 378.256 417.186 377.024 416.276C370.416 411.397 361.472 405.204 352.293 399.102C343.116 393.001 333.805 387.058 326.473 382.67C322.793 380.468 319.708 378.715 317.429 377.539C316.974 377.305 316.571 377.106 316.218 376.935ZM196.791 319.434C201.094 315.233 207.39 313.8 213.087 315.724L247.25 327.261C258.086 330.919 267.893 334.701 274.993 337.879C278.501 339.45 281.572 340.972 283.819 342.34C284.887 342.99 286.147 343.83 287.204 344.835C287.712 345.318 288.543 346.182 289.203 347.41C289.856 348.623 290.841 351.18 289.804 354.225L289.803 354.224C289.174 356.07 288.015 357.614 287.342 358.468C286.501 359.536 285.472 360.678 284.36 361.834C282.126 364.161 279.179 366.939 275.825 369.946C269.095 375.979 260.36 383.26 251.544 390.268C242.729 397.275 233.724 404.096 226.445 409.198C222.821 411.738 219.513 413.93 216.817 415.519C215.479 416.307 214.153 417.03 212.93 417.58C212.077 417.964 210.031 418.871 207.728 418.871C205.464 418.87 202.731 418.315 200.28 417.715C197.62 417.064 194.509 416.156 191.179 415.094C184.507 412.966 176.628 410.112 169.105 407.157C161.594 404.206 154.287 401.096 148.787 398.436C146.07 397.122 143.594 395.822 141.711 394.634C140.802 394.061 139.753 393.342 138.838 392.506C138.386 392.093 137.74 391.449 137.153 390.583C136.669 389.869 135.747 388.307 135.633 386.132L135.621 385.689L135.631 385.288C135.729 383.317 136.515 381.851 136.65 381.586C136.974 380.948 137.342 380.374 137.643 379.933C138.259 379.027 139.05 378.013 139.9 376.98C141.627 374.88 144.036 372.173 146.9 369.085C152.654 362.883 160.533 354.832 169.162 346.406L196.791 319.434ZM404.451 316.454C410.262 314.307 416.79 315.707 421.209 320.048L444.308 342.742L444.309 342.743C453.599 351.872 460.816 359.07 466.03 364.805C471.044 370.32 475.015 375.324 476.856 379.993C477.851 382.518 478.44 385.463 477.832 388.598C477.212 391.796 475.527 394.261 473.629 396.1C470.302 399.324 465.224 401.576 460.634 403.522L460.633 403.523C444.962 410.163 433.65 414.884 421.483 412.235C415.462 410.924 409.783 407.965 403.616 403.841C397.47 399.731 390.278 394.068 381.305 386.903C372.1 379.554 363.527 372.716 357.131 367.623C353.932 365.077 351.28 362.968 349.366 361.45C348.409 360.69 347.641 360.081 347.082 359.64C346.803 359.42 346.58 359.245 346.416 359.117C346.233 358.973 346.169 358.924 346.175 358.928C344.086 357.355 342.182 354.678 342.197 351.086C342.211 348.025 343.643 345.716 344.645 344.417C346.648 341.82 349.8 339.606 352.895 337.754C359.036 334.079 368.33 329.894 379.953 325.513L382.309 324.634L404.451 316.454ZM180.339 357.854C171.848 366.145 164.162 374.003 158.631 379.966C157.346 381.351 156.193 382.619 155.183 383.752C155.228 383.775 155.274 383.797 155.32 383.82C155.462 383.89 155.607 383.961 155.754 384.032C160.755 386.451 167.653 389.397 174.954 392.265C182.242 395.128 189.783 397.854 196.042 399.851C199.178 400.851 201.91 401.642 204.084 402.174C205.171 402.44 206.054 402.626 206.737 402.742C206.773 402.748 206.808 402.752 206.842 402.757C207.301 402.526 207.915 402.192 208.695 401.733C210.865 400.455 213.781 398.536 217.262 396.096C224.193 391.238 232.928 384.626 241.588 377.743C250.246 370.86 258.722 363.791 265.145 358.033C267.079 356.298 268.794 354.711 270.254 353.306C269.689 353.043 269.09 352.767 268.455 352.483C261.947 349.569 252.638 345.968 242.132 342.421L242.131 342.42L207.968 330.882L180.339 357.854ZM387.853 339.643L387.851 339.644C376.046 344.003 367.301 347.918 361.936 351.002C365.943 354.188 371.625 358.712 378.174 363.935L391.288 374.399L391.289 374.4C400.376 381.657 407.029 386.875 412.511 390.541C417.973 394.194 421.707 395.909 424.887 396.601C431.119 397.958 437.355 396.009 454.39 388.79L456.194 388.012C459.038 386.759 460.716 385.882 461.687 385.236C460.805 383.476 458.671 380.496 454.191 375.568C449.329 370.22 442.435 363.335 433.095 354.156L409.996 331.462L387.853 339.643ZM483.794 300.749C495.173 300.749 503.304 300.957 508.84 302.599C511.967 303.527 514.825 305.045 517.113 307.605C519.016 309.733 520.105 312.124 520.842 314.256L521.138 315.153L521.14 315.159C522.389 319.126 522.616 325.364 522.546 331.253C522.471 337.574 522.01 344.901 521.315 351.848C520.621 358.767 519.674 365.529 518.58 370.677C518.045 373.194 517.408 375.66 516.627 377.641C516.255 378.584 515.677 379.871 514.788 381.062C514.149 381.919 511.8 384.83 507.571 384.83C505.671 384.83 504.233 384.165 503.825 383.976C503.193 383.683 502.652 383.354 502.263 383.102C501.47 382.588 500.649 381.96 499.885 381.341C498.324 380.076 496.393 378.354 494.269 376.376C489.989 372.393 484.535 367.007 478.927 361.269C467.838 349.924 455.531 336.581 450.388 329.668L450.387 329.666C448.254 326.798 446.731 323.469 445.993 320.243C445.347 317.418 444.915 312.911 447.315 309.004L447.566 308.618C448.85 306.744 450.559 305.726 451.445 305.25C452.589 304.637 453.81 304.182 454.922 303.833C457.168 303.129 459.892 302.576 462.784 302.143C468.626 301.268 476.07 300.749 483.794 300.749ZM123.448 299.211C128.808 298.92 135.04 299.066 141.107 299.539C147.169 300.012 153.291 300.828 158.419 301.943C160.975 302.498 163.437 303.161 165.586 303.954C167.538 304.673 170.032 305.78 171.985 307.579L172.192 307.777C174.27 309.821 174.676 312.283 174.72 313.633C174.765 315.023 174.483 316.182 174.283 316.861C173.872 318.261 173.204 319.605 172.622 320.665C171.396 322.901 169.571 325.627 167.479 328.528C163.237 334.407 157.259 341.877 150.953 349.304C144.638 356.743 137.88 364.272 132.047 370.27C129.137 373.262 126.387 375.945 123.995 378.067C121.831 379.987 119.282 382.07 116.922 383.18C113.423 384.825 109.832 384.073 107.297 382.247C105.27 380.788 104.077 378.807 103.393 377.466C101.944 374.627 100.928 370.876 100.171 366.993C98.609 358.983 97.675 347.851 97.6446 335.576L97.6456 335.575C97.6223 327.174 98.0386 320.438 99.4923 315.204C101.077 309.499 104.033 305.119 109.017 302.311L109.428 302.088C111.502 301.008 113.856 300.416 115.88 300.043C118.186 299.618 120.773 299.357 123.448 299.211ZM139.862 315.492C134.314 315.059 128.809 314.943 124.318 315.188C122.069 315.31 120.203 315.516 118.778 315.779C117.262 316.058 116.768 316.31 116.858 316.258C116.307 316.569 115.595 317.015 114.908 319.487C114.137 322.264 113.682 326.692 113.647 334.028L113.645 335.534V335.537C113.673 347.11 114.559 357.113 115.853 363.812C117.283 362.447 118.87 360.871 120.577 359.116C126.096 353.441 132.606 346.192 138.756 338.949C144.916 331.693 150.6 324.576 154.502 319.167C154.872 318.654 155.22 318.162 155.547 317.695C155.375 317.656 155.2 317.616 155.022 317.578C150.787 316.657 145.415 315.925 139.862 315.492ZM483.794 316.749C476.701 316.749 470.065 317.231 465.154 317.966C464.052 318.131 463.079 318.304 462.239 318.475C462.505 319.029 462.834 319.592 463.224 320.117C467.636 326.046 479.213 338.672 490.369 350.085C495.232 355.061 499.898 359.686 503.694 363.28C504.33 359.505 504.919 355.005 505.395 350.253C506.054 343.668 506.48 336.821 506.548 331.065C506.621 324.878 506.247 321.137 505.878 319.964C505.52 318.831 505.279 318.41 505.204 318.296C505.096 318.231 504.831 318.099 504.289 317.938C501.458 317.098 495.946 316.749 483.794 316.749ZM310.662 241.459C312.468 241.484 314.167 241.969 315.321 242.352C316.627 242.785 318.025 243.362 319.438 244.007C322.271 245.3 325.631 247.08 329.244 249.136C336.498 253.264 345.242 258.78 353.72 264.485C362.196 270.189 370.543 276.174 376.984 281.263C380.191 283.796 383.044 286.2 385.234 288.295C386.324 289.337 387.362 290.409 388.228 291.461C388.905 292.285 389.986 293.692 390.646 295.454L390.772 295.812L390.773 295.816C392.172 300.047 389.911 303.353 389.275 304.228C388.338 305.517 387.172 306.572 386.222 307.348C384.24 308.968 381.576 310.676 378.693 312.35C372.831 315.754 364.887 319.684 356.624 323.388C348.338 327.102 339.533 330.677 331.899 333.342C328.086 334.673 324.476 335.808 321.317 336.62C318.32 337.39 315.156 338.025 312.47 338.025C310.184 338.025 307.393 337.459 304.852 336.83C302.097 336.15 298.862 335.193 295.379 334.051C288.406 331.765 280.128 328.634 272.171 325.195C256.594 318.469 240.588 311.847 236.499 310.404C236.115 310.268 235.74 310.139 235.351 310.005C234.325 309.653 232.736 309.123 231.41 308.47C230.432 307.988 227.103 306.318 225.875 302.388C224.287 297.305 227.526 293.445 228.528 292.299C230.004 290.612 232.095 288.852 234.473 287.01C239.343 283.238 247.315 277.701 259.171 269.46C260.782 268.341 262.468 267.168 264.233 265.941C273.584 259.437 283.095 253.508 290.937 249.179C294.846 247.021 298.453 245.198 301.483 243.894C302.993 243.244 304.474 242.673 305.85 242.254C307.073 241.882 308.825 241.435 310.662 241.459ZM310.426 257.588C309.816 257.779 308.948 258.099 307.808 258.59C305.435 259.612 302.328 261.166 298.669 263.186C291.375 267.213 282.333 272.841 273.368 279.077C271.868 280.12 270.425 281.123 269.038 282.087C268.791 282.259 268.546 282.429 268.303 282.598C258.615 289.332 251.856 294.033 247.263 297.41C253.397 299.86 262.951 303.842 272.701 308.009L278.514 310.506L278.516 310.507C286.055 313.766 293.879 316.721 300.363 318.847C303.61 319.911 306.444 320.742 308.691 321.297C309.814 321.575 310.729 321.769 311.437 321.889C312.196 322.018 312.496 322.025 312.47 322.025C313.047 322.025 314.594 321.828 317.334 321.123C319.912 320.461 323.066 319.478 326.626 318.236C333.737 315.754 342.109 312.36 350.079 308.788C358.072 305.205 365.463 301.53 370.66 298.513C371.092 298.262 371.5 298.019 371.887 297.787C370.527 296.607 368.911 295.276 367.066 293.819C361.042 289.059 353.048 283.319 344.786 277.759C336.526 272.201 328.135 266.914 321.33 263.041C317.915 261.098 315.016 259.577 312.794 258.563C311.769 258.095 310.985 257.782 310.426 257.588ZM145.14 193.542C150.69 191.546 158.327 191.168 166.329 191.533C174.615 191.91 184.323 193.146 194.602 195.042C215.145 198.832 238.586 205.373 258.461 213.513L269.576 218.065C281.119 222.793 283.053 238.325 273.022 245.739L209.043 293.019C205.788 295.424 201.743 296.507 197.722 296.048L175.616 293.529C164.65 292.28 155.864 291.224 149.071 289.79C142.37 288.376 136.39 286.371 131.874 282.434C127.044 278.223 124.936 272.76 123.947 266.809C123.004 261.127 122.942 254.062 122.942 245.842C122.942 231.259 123.977 219.949 127.172 211.489C130.639 202.308 136.599 196.617 145.138 193.543L145.14 193.542ZM419.21 196.208C433.261 193.135 447.408 191.776 459.21 192.117C465.291 192.292 470.966 192.925 475.785 194.109C480.363 195.234 485.223 197.104 488.601 200.505C490.596 202.514 491.803 205.131 492.58 207.197C493.431 209.459 494.123 212.056 494.692 214.761C495.834 220.188 496.616 226.725 497.022 233.333C497.428 239.959 497.47 246.864 497.065 253.055C496.672 259.048 495.823 265.077 494.107 269.544V269.546C491.996 275.036 488.809 279.507 483.65 283.03C478.823 286.325 472.678 288.498 465.231 290.386C448.38 294.657 436.296 296.855 423.303 293.456C410.794 290.185 398.232 281.897 379.496 268.441C369.786 261.466 360.631 255.147 353.722 250.592C350.256 248.307 347.422 246.511 345.395 245.308C344.597 244.835 343.988 244.492 343.553 244.261C337.522 243.266 334.251 237.551 334.251 232.728C334.251 229.513 335.973 227.32 336.695 226.483C337.601 225.434 338.644 224.597 339.517 223.968C341.301 222.683 343.59 221.413 346.044 220.197C351.032 217.725 357.843 214.924 365.527 212.102C380.933 206.444 400.607 200.422 417.851 196.511L419.21 196.208ZM458.748 208.111C448.056 207.802 434.724 209.091 421.39 212.115C404.901 215.854 385.89 221.669 371.044 227.121C365.195 229.27 360.109 231.32 356.138 233.121C358.006 234.285 360.16 235.673 362.527 237.234C369.656 241.933 378.99 248.379 388.829 255.446C408.07 269.265 418.222 275.589 427.351 277.977C435.995 280.238 444.474 279.141 461.298 274.876C468.231 273.118 472.167 271.496 474.628 269.816C476.756 268.363 478.067 266.679 479.172 263.804C479.993 261.667 480.732 257.617 481.099 252.01C481.453 246.6 481.424 240.381 481.052 234.314C480.678 228.229 479.971 222.505 479.035 218.054C478.565 215.82 478.073 214.074 477.606 212.832C477.354 212.164 477.166 211.798 477.08 211.639C476.575 211.258 475.109 210.419 471.967 209.647C468.582 208.815 464.104 208.265 458.748 208.111ZM292.753 118.696C302.83 115.323 310.28 114.3 317.639 115.397L318.174 115.483C320.902 115.956 324.385 117.028 328.042 118.308C332.101 119.729 336.909 121.599 342.132 123.754C352.587 128.068 364.955 133.625 376.787 139.252C388.609 144.875 400.012 150.625 408.517 155.333C412.742 157.673 416.411 159.843 419.095 161.667C420.407 162.559 421.716 163.525 422.78 164.507C423.3 164.987 423.985 165.674 424.597 166.535C425.058 167.183 426.322 169.071 426.322 171.757C426.322 174.994 424.465 177.057 424.072 177.496C423.392 178.258 422.672 178.82 422.191 179.17C421.182 179.905 419.977 180.597 418.815 181.212C416.417 182.482 413.142 183.976 409.328 185.585C401.646 188.827 391.164 192.789 379.71 196.712C357.004 204.489 333.265 212.917 326.889 215.45L326.888 215.449C320.906 217.826 315.405 218.899 308.23 217.938C301.634 217.054 293.81 214.464 283.068 210.399C268.972 205.062 243.61 196.723 226.864 191.919C216.68 188.998 208.774 186.276 203.641 183.763C201.268 182.602 198.509 181.032 196.608 178.863C195.611 177.726 194.203 175.693 194.012 172.86C193.798 169.682 195.206 167.166 196.79 165.571L197.182 165.198C198.127 164.343 199.257 163.61 199.98 163.15C201.045 162.471 202.375 161.682 203.89 160.819C206.932 159.084 210.984 156.898 215.728 154.419C225.23 149.455 237.714 143.212 250.904 136.879C269.73 127.838 282.828 122.017 292.753 118.696ZM315.279 131.222C311.308 130.63 306.548 130.951 297.83 133.869C288.961 136.837 276.678 142.251 257.831 151.302L257.83 151.303C244.768 157.574 232.449 163.735 223.138 168.6C220.832 169.805 218.722 170.923 216.84 171.94C220.55 173.297 225.341 174.837 231.275 176.539C248.382 181.446 274.167 189.921 288.733 195.435C299.577 199.539 305.809 201.471 310.354 202.079C314.318 202.611 317.041 202.147 320.981 200.58L320.983 200.579C327.785 197.878 351.911 189.321 374.525 181.576C385.732 177.737 395.853 173.905 403.108 170.844C403.174 170.816 403.241 170.787 403.307 170.759C402.504 170.302 401.658 169.825 400.767 169.331C392.655 164.84 381.573 159.246 369.915 153.702C358.268 148.162 346.164 142.727 336.029 138.545C330.958 136.453 326.442 134.699 322.757 133.41C318.914 132.065 316.454 131.397 315.279 131.222ZM394.475 78.6684C400.549 76.4749 407.26 75.5552 413.456 75.7846C419.329 76.002 425.52 77.2843 430.421 80.2426L430.891 80.5336L430.893 80.5356C432.619 81.6359 433.746 83.0967 434.413 84.0932C435.145 85.1861 435.752 86.3738 436.257 87.5072C437.269 89.7772 438.171 92.5059 438.969 95.3647C440.576 101.125 441.991 108.261 443.025 115.248C444.056 122.226 444.749 129.344 444.831 135.067C444.871 137.888 444.77 140.673 444.386 143.038C444.196 144.208 443.89 145.582 443.339 146.916C442.855 148.087 441.756 150.289 439.355 151.785L439.343 151.791C437.911 152.679 436.555 152.914 435.869 152.995C435.106 153.084 434.456 153.057 434.028 153.024C433.179 152.957 432.409 152.79 431.867 152.656C430.739 152.376 429.467 151.947 428.201 151.479C425.612 150.521 422.211 149.08 418.3 147.314C411.42 144.206 402.602 139.925 393.097 135.041L388.984 132.913L363.975 119.876C352.045 113.657 352.65 96.3865 364.986 91.018L368.643 89.4262C379.058 84.8928 390.706 80.0299 394.475 78.6684ZM192.203 82.1986C198.887 77.208 206.458 75.692 215.883 77.0951C224.785 78.4203 235.85 82.4156 250.36 88.7445L255.984 91.1967C268.367 96.598 268.896 113.969 256.863 120.113L231.782 132.918C220.596 138.631 210.002 143.531 201.905 146.826C197.888 148.46 194.308 149.772 191.503 150.579C190.14 150.972 188.665 151.332 187.282 151.492C186.607 151.569 185.631 151.639 184.546 151.515C183.673 151.415 181.4 151.058 179.418 149.172L179.417 149.171C176.684 146.57 175.893 143.006 175.57 140.963C175.184 138.515 175.132 135.77 175.253 133.039C175.497 127.532 176.498 120.955 177.908 114.547C179.323 108.123 181.218 101.559 183.371 96.0785C184.445 93.344 185.643 90.7282 186.956 88.4779C188.181 86.3795 189.884 83.9302 192.203 82.1986ZM412.864 91.7729C408.546 91.613 403.898 92.277 399.909 93.7172L399.908 93.7162C397.103 94.7297 388.2 98.4176 378.982 102.386L375.027 104.097L371.371 105.689L396.38 118.726C407.247 124.391 417.365 129.334 424.887 132.732C426.308 133.374 427.62 133.953 428.815 134.467C428.694 129.791 428.111 123.773 427.196 117.588C426.228 111.041 424.934 104.597 423.558 99.6654C422.864 97.1787 422.206 95.2834 421.643 94.0199C421.561 93.8362 421.486 93.6805 421.421 93.5492C419.577 92.66 416.649 91.913 412.864 91.7729ZM213.527 92.9203C207.481 92.0202 204.437 93.0561 201.848 94.9672C201.888 94.9441 201.49 95.3165 200.775 96.5424C200.009 97.8541 199.152 99.6648 198.263 101.929C196.488 106.446 194.815 112.171 193.534 117.988C192.25 123.821 191.428 129.441 191.237 133.747C191.237 133.768 191.235 133.788 191.234 133.808C192.602 133.305 194.154 132.706 195.875 132.005C203.443 128.926 213.611 124.233 224.506 118.669L249.587 105.863L243.964 103.41C229.53 97.114 220.154 93.9068 213.527 92.9203ZM293.001 14.9008C318.899 5.37177 343.926 19.7594 359.896 47.1908C363.102 52.6978 365.81 58.2366 367.587 62.8051C368.464 65.0601 369.204 67.3049 369.623 69.31C369.83 70.3009 370.013 71.4811 370.019 72.7084C370.023 73.7203 369.931 75.9034 368.609 78.0541C367.538 79.7987 366.051 80.8625 365.389 81.3158C364.517 81.9127 363.563 82.4363 362.659 82.8871C360.834 83.7974 358.574 84.7213 356.121 85.6137C351.178 87.4119 344.828 89.3072 338.207 90.9086L338.203 90.9096C328.502 93.2509 320.843 94.5587 312.796 94.6029C304.782 94.647 296.785 93.435 286.421 91.2201C277.5 89.3143 270.366 87.7152 264.982 86.1147C259.936 84.6148 254.939 82.7261 251.602 79.4643C249.705 77.6107 248.276 75.2645 247.706 72.4301C247.162 69.7246 247.525 67.191 248.127 65.0766C249.242 61.1604 251.739 56.9201 254.261 52.8129C259.469 44.3281 266.097 36.0871 272.756 29.4467C279.215 23.0056 286.454 17.3115 293 14.9018L293.001 14.9008ZM421.12 92.9975C421.088 92.9501 421.089 92.9569 421.124 93.0043C421.123 93.002 421.122 92.9995 421.12 92.9975ZM346.067 55.2406C332.192 31.4076 314.214 24.1455 298.526 29.9174L298.525 29.9164C295.304 31.1028 290.064 34.7825 284.055 40.7758C278.607 46.2086 273.142 52.9258 268.759 59.8061L267.897 61.184C265.622 64.8885 264.384 67.1598 263.796 68.6479C263.964 68.735 264.155 68.8303 264.37 68.9301C265.548 69.4752 267.214 70.0863 269.54 70.7777C274.226 72.1706 280.75 73.6479 289.765 75.5736C299.729 77.7031 306.409 78.6376 312.708 78.6029C318.975 78.5684 325.268 77.5717 334.449 75.3559C340.599 73.8684 346.364 72.1372 350.651 70.5775C351.549 70.2512 352.355 69.9402 353.067 69.6518C352.949 69.3237 352.819 68.9743 352.675 68.6049C351.258 64.9622 348.943 60.1797 346.067 55.2406ZM138.942 245.842C138.942 254.4 139.045 260.061 139.731 264.188C140.371 268.046 141.358 269.475 142.389 270.373C143.734 271.546 146.382 272.869 152.377 274.135C158.281 275.382 166.26 276.359 177.428 277.631L199.534 280.152L263.512 232.871L252.398 228.32C233.667 220.648 211.301 214.393 191.698 210.777C181.904 208.97 172.953 207.851 165.602 207.516C157.968 207.168 152.991 207.721 150.556 208.597L150.557 208.598C146.46 210.073 143.967 212.304 142.141 217.141C140.042 222.698 138.942 231.499 138.942 245.842Z" fill="#D9D9D9"/>
<path d="M138.942 245.842C138.942 254.4 139.045 260.061 139.731 264.188C140.371 268.046 141.358 269.475 142.389 270.373C143.734 271.546 146.382 272.869 152.377 274.135C158.281 275.382 166.26 276.359 177.428 277.631L199.534 280.152L263.512 232.871L252.398 228.32C233.667 220.648 211.301 214.393 191.698 210.777C181.904 208.97 172.953 207.851 165.602 207.516C157.968 207.168 152.991 207.721 150.556 208.597L150.557 208.598C146.46 210.073 143.967 212.304 142.141 217.141C140.042 222.698 138.942 231.499 138.942 245.842Z" fill="#D9D9D9"/>
<path d="M315.279 131.222C311.308 130.63 306.548 130.951 297.83 133.869C288.961 136.837 276.678 142.251 257.831 151.302L257.83 151.303C244.768 157.574 232.449 163.735 223.138 168.6C220.832 169.805 218.722 170.923 216.84 171.94C220.55 173.297 225.341 174.837 231.275 176.539C248.382 181.446 274.167 189.921 288.733 195.435C299.577 199.539 305.809 201.471 310.354 202.079C314.318 202.611 317.041 202.147 320.981 200.58L320.983 200.579C327.785 197.878 351.911 189.321 374.525 181.576C385.732 177.737 395.853 173.905 403.108 170.844C403.174 170.816 403.241 170.787 403.307 170.759C402.504 170.302 401.658 169.825 400.767 169.331C392.655 164.84 381.573 159.246 369.915 153.702C358.268 148.162 346.164 142.727 336.029 138.545C330.958 136.453 326.442 134.699 322.757 133.41C318.914 132.065 316.454 131.397 315.279 131.222Z" fill="#D9D9D9"/>
<path d="M346.067 55.2406C332.192 31.4076 314.214 24.1455 298.526 29.9174L298.525 29.9164C295.304 31.1028 290.064 34.7825 284.055 40.7758C278.607 46.2086 273.142 52.9258 268.759 59.8061L267.897 61.184C265.622 64.8885 264.384 67.1598 263.796 68.6479C263.964 68.735 264.155 68.8303 264.37 68.9301C265.548 69.4752 267.214 70.0863 269.54 70.7777C274.226 72.1706 280.75 73.6479 289.765 75.5736C299.729 77.7031 306.409 78.6376 312.708 78.6029C318.975 78.5684 325.268 77.5717 334.449 75.3559C340.599 73.8684 346.364 72.1372 350.651 70.5775C351.549 70.2512 352.355 69.9402 353.067 69.6518C352.949 69.3237 352.819 68.9743 352.675 68.6049C351.258 64.9622 348.943 60.1797 346.067 55.2406Z" fill="#D9D9D9"/>
<path d="M213.527 92.9203C207.481 92.0202 204.437 93.0561 201.848 94.9672C201.888 94.9441 201.49 95.3165 200.775 96.5424C200.009 97.8541 199.152 99.6648 198.263 101.929C196.488 106.446 194.815 112.171 193.534 117.988C192.25 123.821 191.428 129.441 191.237 133.747C191.237 133.768 191.235 133.788 191.234 133.808C192.602 133.305 194.154 132.706 195.875 132.005C203.443 128.926 213.611 124.233 224.506 118.669L249.587 105.863L243.964 103.41C229.53 97.114 220.154 93.9068 213.527 92.9203Z" fill="#D9D9D9"/>
<path d="M412.864 91.7729C408.546 91.613 403.898 92.277 399.909 93.7172L399.908 93.7162C397.103 94.7297 388.2 98.4176 378.982 102.386L375.027 104.097L371.371 105.689L396.38 118.726C407.247 124.391 417.365 129.334 424.887 132.732C426.308 133.374 427.62 133.953 428.815 134.467C428.694 129.791 428.111 123.773 427.196 117.588C426.228 111.041 424.934 104.597 423.558 99.6654C422.864 97.1787 422.206 95.2834 421.643 94.0199C421.561 93.8362 421.486 93.6805 421.421 93.5492C419.577 92.66 416.649 91.913 412.864 91.7729Z" fill="#D9D9D9"/>
<path d="M458.748 208.111C448.056 207.802 434.724 209.091 421.39 212.115C404.901 215.854 385.89 221.669 371.044 227.121C365.195 229.27 360.109 231.32 356.138 233.121C358.006 234.285 360.16 235.673 362.527 237.234C369.656 241.933 378.99 248.379 388.829 255.446C408.07 269.265 418.222 275.589 427.351 277.977C435.995 280.238 444.474 279.141 461.298 274.876C468.231 273.118 472.167 271.496 474.628 269.816C476.756 268.363 478.067 266.679 479.172 263.804C479.993 261.667 480.732 257.617 481.099 252.01C481.453 246.6 481.424 240.381 481.052 234.314C480.678 228.229 479.971 222.505 479.035 218.054C478.565 215.82 478.073 214.074 477.606 212.832C477.354 212.164 477.166 211.798 477.08 211.639C476.575 211.258 475.109 210.419 471.967 209.647C468.582 208.815 464.104 208.265 458.748 208.111Z" fill="#D9D9D9"/>
<path d="M310.426 257.588C309.816 257.779 308.948 258.099 307.808 258.59C305.435 259.612 302.328 261.166 298.669 263.186C291.375 267.213 282.333 272.841 273.368 279.077C271.868 280.12 270.425 281.123 269.038 282.087L268.303 282.598C258.615 289.332 251.856 294.033 247.263 297.41C253.397 299.86 262.951 303.842 272.701 308.009L278.514 310.506L278.516 310.507C286.055 313.766 293.879 316.721 300.363 318.847C303.61 319.911 306.444 320.742 308.691 321.297C309.814 321.575 310.729 321.769 311.437 321.889C312.196 322.018 312.496 322.025 312.47 322.025C313.047 322.025 314.594 321.828 317.334 321.123C319.912 320.461 323.066 319.478 326.626 318.236C333.737 315.754 342.109 312.36 350.079 308.788C358.072 305.205 365.463 301.53 370.66 298.513C371.092 298.262 371.5 298.019 371.887 297.787C370.527 296.607 368.911 295.276 367.066 293.819C361.042 289.059 353.048 283.319 344.786 277.759C336.526 272.201 328.135 266.914 321.33 263.041C317.915 261.098 315.016 259.577 312.794 258.563C311.769 258.095 310.985 257.782 310.426 257.588Z" fill="#D9D9D9"/>
<path d="M387.853 339.643L387.851 339.644C376.046 344.003 367.301 347.918 361.936 351.002C365.943 354.188 371.625 358.712 378.174 363.935L391.288 374.399L391.289 374.4C400.376 381.657 407.029 386.875 412.511 390.541C417.973 394.194 421.707 395.909 424.887 396.601C431.119 397.958 437.355 396.009 454.39 388.79L456.194 388.012C459.038 386.759 460.716 385.882 461.687 385.236C460.805 383.476 458.671 380.496 454.191 375.568C449.329 370.22 442.435 363.335 433.095 354.156L409.996 331.462L387.853 339.643Z" fill="#D9D9D9"/>
<path d="M483.794 316.749C476.701 316.749 470.065 317.231 465.154 317.966C464.052 318.131 463.079 318.304 462.239 318.475C462.505 319.029 462.834 319.592 463.224 320.117C467.636 326.046 479.213 338.672 490.369 350.085C495.232 355.061 499.898 359.686 503.694 363.28C504.33 359.505 504.919 355.005 505.395 350.253C506.054 343.668 506.48 336.821 506.548 331.065C506.621 324.878 506.247 321.137 505.878 319.964C505.52 318.831 505.279 318.41 505.204 318.296C505.096 318.231 504.831 318.099 504.289 317.938C501.458 317.098 495.946 316.749 483.794 316.749Z" fill="#D9D9D9"/>
<path d="M180.339 357.854C171.848 366.145 164.162 374.003 158.631 379.966C157.346 381.351 156.193 382.619 155.183 383.752L155.32 383.82C155.462 383.89 155.607 383.961 155.754 384.032C160.755 386.451 167.653 389.397 174.954 392.265C182.242 395.128 189.783 397.854 196.042 399.851C199.178 400.851 201.91 401.642 204.084 402.174C205.171 402.44 206.054 402.626 206.737 402.742C206.773 402.748 206.808 402.752 206.842 402.757C207.301 402.526 207.915 402.192 208.695 401.733C210.865 400.455 213.781 398.536 217.262 396.096C224.193 391.238 232.928 384.626 241.588 377.743C250.246 370.86 258.722 363.791 265.145 358.033C267.079 356.298 268.794 354.711 270.254 353.306C269.689 353.043 269.09 352.767 268.455 352.483C261.947 349.569 252.638 345.968 242.132 342.421L242.131 342.42L207.968 330.882L180.339 357.854Z" fill="#D9D9D9"/>
<path d="M139.862 315.492C134.314 315.059 128.809 314.943 124.318 315.188C122.069 315.31 120.203 315.516 118.778 315.779C117.262 316.058 116.768 316.31 116.858 316.258C116.307 316.569 115.595 317.015 114.908 319.487C114.137 322.264 113.682 326.692 113.647 334.028L113.645 335.534V335.537C113.673 347.11 114.559 357.113 115.853 363.812C117.283 362.447 118.87 360.871 120.577 359.116C126.096 353.441 132.606 346.192 138.756 338.949C144.916 331.693 150.6 324.576 154.502 319.167C154.872 318.654 155.22 318.162 155.547 317.695C155.375 317.656 155.2 317.616 155.022 317.578C150.787 316.657 145.415 315.925 139.862 315.492Z" fill="#D9D9D9"/>
<path d="M316.218 376.935C315.907 377.096 315.554 377.282 315.16 377.499C313.024 378.677 310.127 380.45 306.637 382.73C299.684 387.272 290.757 393.577 281.577 400.533L281.576 400.534C272.402 407.482 263.975 414.347 257.81 419.781C255.602 421.726 253.733 423.447 252.245 424.892C253.382 425.828 254.743 426.896 256.317 428.078C262.217 432.506 270.368 438.009 278.821 443.334C287.272 448.658 295.853 453.698 302.592 457.229C305.987 459.008 308.743 460.313 310.701 461.084C310.888 461.158 311.061 461.221 311.218 461.28C313.86 459.899 318.617 457.195 324.888 453.481C332.804 448.793 342.525 442.868 351.973 436.994C361.424 431.117 370.556 425.322 377.303 420.894C378.418 420.162 379.458 419.47 380.421 418.828C379.391 418.039 378.256 417.186 377.024 416.276C370.416 411.397 361.472 405.204 352.293 399.102C343.116 393.001 333.805 387.058 326.473 382.67C322.793 380.468 319.708 378.715 317.429 377.539C316.974 377.305 316.571 377.106 316.218 376.935Z" fill="#D9D9D9"/>
<path d="M495.716 423.227C488.575 423.109 478.224 425.151 463.999 430.091C458.652 431.948 455.575 433.36 453.903 434.378C455.222 437.186 457.692 441.728 461.049 447.459C465.112 454.396 470.149 462.537 475.154 470.314C480.166 478.1 485.091 485.437 488.93 490.784C489.137 491.072 489.343 491.352 489.542 491.626C491.386 488.186 493.472 483.846 495.502 479.093C501.571 464.887 505.433 453.307 507.086 444.278C508.788 434.979 507.866 429.87 506.317 427.308C505.164 425.4 502.674 423.342 495.716 423.227Z" fill="#D9D9D9"/>
<path d="M412.242 453.566C411.904 453.71 411.526 453.874 411.108 454.062C408.819 455.089 405.7 456.616 401.942 458.556C394.448 462.425 384.712 467.782 374.569 473.684L346.084 490.254L365.877 511.163C380.632 526.745 398.535 546.923 405.696 556.092L413.64 566.255L433.795 552.312C440.902 547.394 447.525 542.423 452.442 538.407C454.913 536.389 456.863 534.685 458.202 533.396C458.405 533.201 458.584 533.022 458.743 532.862C458.655 532.297 458.502 531.553 458.253 530.615C457.522 527.865 456.184 524.212 454.285 519.843C450.507 511.151 444.872 500.447 438.68 490.001C432.485 479.551 425.878 469.604 420.224 462.377C417.376 458.737 414.934 456.002 413.035 454.26C412.74 453.989 412.475 453.759 412.242 453.566Z" fill="#D9D9D9"/>
<path d="M310.436 517.879C308.338 519.544 305.46 522.061 301.971 525.304C295.457 531.358 287.144 539.629 278.441 548.817L276.695 550.665C267.331 560.627 258.846 570.035 252.731 577.15C250.703 579.509 248.963 581.586 247.55 583.328C251.3 584.7 256.641 586.113 263.163 587.394C277.34 590.178 295.824 592.1 312.617 591.995L314.184 591.981C330.35 591.778 346.063 590.026 357.693 587.545C363.444 586.319 367.868 584.98 370.775 583.718C369.281 581.321 367.046 578.19 364.195 574.505C358.458 567.088 350.639 557.95 342.493 549.035C334.347 540.118 326 531.563 319.233 525.291C315.83 522.139 312.961 519.687 310.79 518.073C310.683 517.993 310.578 517.919 310.478 517.846L310.436 517.879Z" fill="#D9D9D9"/>
<path d="M219.333 458.588C217.556 460.694 215.167 463.757 212.302 467.625C206.354 475.654 198.632 486.763 190.595 498.995L165.292 537.494L171.513 542.12C177.622 546.664 188.921 554.248 197.325 559.451L198.965 560.458L198.968 560.459L208.323 566.161L213.656 558.475C219.334 550.295 236.213 530.861 251.098 515.206C258.366 507.559 264.588 500.203 268.745 494.571C270.021 492.843 271.044 491.352 271.825 490.121C270.279 488.954 268.307 487.553 265.984 485.977C260.408 482.192 253.167 477.621 245.818 473.21C238.468 468.798 231.12 464.61 225.337 461.576C222.977 460.337 220.951 459.33 219.333 458.588Z" fill="#D9D9D9"/>
<path d="M127.119 423.461C124.152 423.465 122.125 423.386 119.975 423.451C118.999 423.48 118.255 423.538 117.692 423.618C117.194 423.688 116.994 423.754 116.994 423.754C114.482 424.779 112.765 426.586 112.184 431.326C111.527 436.674 112.576 444.72 115.881 456.043C119.177 467.336 124.555 480.576 129.685 490.956C131.809 495.255 133.819 498.914 135.544 501.669C136.766 500.163 138.164 498.356 139.708 496.282C144.909 489.295 151.354 479.858 157.542 470.276C163.732 460.69 169.568 451.108 173.574 443.84C174.781 441.652 175.779 439.746 176.559 438.158C172.286 435.87 166.416 433.035 159.697 430.462C149.453 426.54 137.811 423.448 127.119 423.461Z" fill="#D9D9D9"/>
</svg>
