<svg width="1148" height="1000" viewBox="0 0 1148 1000" fill="none" xmlns="http://www.w3.org/2000/svg">
<path fill-rule="evenodd" clip-rule="evenodd" d="M227.968 240.234C225.031 240.757 216.861 242.185 209.812 243.406C143.303 254.933 84.7536 300.887 58.0173 362.541C45.1308 392.26 41.2134 412.728 41.2134 450.335C41.2134 477.164 42.0827 486.855 45.8122 501.567C56.4025 543.352 74.4474 574.433 104.907 603.354C115.809 613.707 130.112 625.377 136.686 629.288C202.768 668.581 286.571 671.762 352.852 637.49C382.907 621.951 401.371 604.985 429.19 567.335C432.667 562.632 432.838 564.449 432.928 606.846L433.024 651.286L537.154 650.39C610.737 649.758 644.418 648.71 651.964 646.82C667.546 642.92 695.667 629.333 704.866 621.26C709.252 617.413 712.84 614.764 712.84 615.376C712.84 615.987 708.515 623.8 703.228 632.736C697.942 641.672 693.616 649.45 693.616 650.02C693.616 650.59 723.973 650.802 761.077 650.492L828.537 649.929L852.391 607.886C865.511 584.763 876.725 565.8 877.312 565.749C878.211 565.67 921.544 645.055 956.423 710.678C961.755 720.706 970.098 736.117 974.966 744.922L983.82 760.933L1045.65 760.337L1107.49 759.741L1054.17 661.074C1005.09 570.26 966.168 498.261 948.898 466.345L941.967 453.537L1000.32 353.206C1032.41 298.024 1058.72 251.915 1058.77 250.741C1058.84 249.353 1035.53 248.756 992.122 249.031L925.372 249.456L901.876 290.049C888.953 312.376 877.588 330.412 876.618 330.13C875.648 329.848 865.075 311.584 853.122 289.543L831.388 249.471L769.978 249.039C736.202 248.8 708.568 249.351 708.568 250.26C708.568 251.691 747.003 323.489 796.413 414.365C804.49 429.218 811.096 442.464 811.096 443.8C811.096 445.621 749.124 554.815 745.786 558.877C745.453 559.285 745.698 552.561 746.335 543.935C748.631 512.798 738.797 484.93 717.721 462.842C710.924 455.718 701.267 447.493 696.26 444.558L687.159 439.226L701.825 425.655C744.709 385.976 747.591 325.143 708.448 285.886C694.725 272.122 681.93 264.435 659.44 256.443L643.42 250.749L538.265 250.083L433.112 249.417L432.533 293.58L431.956 337.742L424.642 326.262C413.909 309.411 383.05 279.931 365.161 269.436C331.282 249.565 302.147 241.359 261.076 240.121C245.804 239.66 230.905 239.711 227.968 240.234ZM537.688 405.506V370.284V335.061L568.126 335.074C584.868 335.08 602.334 336.131 606.939 337.409C624.672 342.33 634.776 360.934 629.803 379.514C624.034 401.066 614.099 405.395 570.262 405.459L537.688 405.506ZM167.818 395.539C182.48 366.951 209.193 348.179 241.611 343.681C252.47 342.176 254.491 342.24 272.769 344.667C296.28 347.793 325.436 370.111 337.761 394.414L343.385 405.506H388.249H433.116L432.537 446.599L431.956 487.692L388.091 488.268L344.226 488.842L338.337 502.355C329.627 522.336 314.453 538.188 294.701 547.939C278.662 555.859 277.933 556.002 253.703 556.002C230.358 556.002 228.259 555.635 214.537 549.139C197.355 541.006 177.646 523.051 169.519 508.127C161.778 493.912 155.344 467.683 155.344 450.335C155.344 434.54 161.353 408.149 167.818 395.539ZM537.688 559.204V522.914V486.624H571.932C609.154 486.624 616.897 488.313 627.885 498.831C644.392 514.632 639.101 545.565 618.277 555.012C610.539 558.523 604.12 559.117 573.466 559.157L537.688 559.204Z" fill="#FFFFFF"/>
<path fill-rule="evenodd" clip-rule="evenodd" d="M516.159 726.056C521.089 710.396 526.002 695.265 527.081 692.435C528.518 688.656 530.659 687.286 535.125 687.286C541.106 687.286 541.411 687.898 552.933 723.042L564.655 758.798L559.183 760.019C551.867 761.648 551.218 761.135 549.581 752.417L548.174 744.922H535.62C523.168 744.922 523.048 744.982 520.6 752.394C518.503 758.747 517.163 759.865 511.661 759.865C507.374 759.865 505.529 758.964 506.195 757.197C506.746 755.73 511.229 741.716 516.159 726.056ZM582.538 760.933L582.54 724.109L582.544 687.286H599.797C616.017 687.286 617.423 687.659 623.293 693.525C630.22 700.448 631.083 706.686 626.366 715.722C623.478 721.255 623.589 722.239 627.748 727.858C631.307 732.669 632.014 735.886 631.068 742.944C629.218 756.721 626.01 758.638 602.763 759.865L582.538 760.933ZM652.015 760.271C650.458 758.717 650.663 697.98 652.242 692.089C653.122 688.812 655.147 687.286 658.622 687.286H663.712V723.326V759.368L658.423 760.378C655.512 760.935 652.628 760.886 652.015 760.271ZM684.946 738.068C680.211 720.523 686.625 696.473 697.634 690.494C700.712 688.823 707.665 687.418 713.086 687.371C731.329 687.213 740.608 699.782 740.608 724.66C740.608 750.155 728.928 763.646 708.818 761.381C697.051 760.055 688.673 751.873 684.946 738.068ZM766.24 700.094C758.17 700.094 757.696 699.737 757.696 693.69V687.286H781.192H804.688V693.69C804.688 699.737 804.214 700.094 796.144 700.094H787.6V729.623C787.6 745.866 787.096 759.656 786.481 760.271C785.868 760.886 782.984 760.935 780.073 760.378L774.784 759.368V729.73V700.094H766.24ZM821.776 759.865V723.575V687.286H828.184H834.592V723.575V759.865H828.184H821.776ZM870.635 722.67L860.984 704.978L851.334 687.286L858.449 687.288C864.784 687.29 866.237 688.488 871.703 698.215L877.844 709.139L883.451 698.747C888.236 689.884 890.115 688.253 896.231 687.668C900.176 687.29 903.059 687.819 902.639 688.842C902.22 689.864 898.104 697.934 893.494 706.773L885.111 722.843L895.208 741.355L905.304 759.865H897.749C890.711 759.865 889.78 759.041 884.079 747.772L877.959 735.681L871.763 747.17C866.752 756.46 864.248 758.928 858.695 760.047C854.914 760.809 851.411 761.02 850.907 760.516C850.405 760.013 854.636 751.292 860.314 741.135L870.635 722.67ZM593.224 717.171V708.522V699.87L604.438 700.517C614.294 701.082 615.738 701.757 616.351 706.082C617.423 713.641 613.036 717.171 602.576 717.171H593.224ZM696.82 724.91C696.82 715.807 698.008 709.834 700.607 705.87C703.44 701.55 706.131 700.102 711.287 700.126C719.284 700.164 722.057 701.665 725.035 707.565C737.263 731.794 718.49 761.227 701.998 743.682C697.666 739.073 696.82 736.01 696.82 724.91ZM527.886 728.637C528.621 726.724 530.338 720.728 531.703 715.312L534.185 705.463L536.753 711.85C538.164 715.363 539.991 721.362 540.811 725.177C542.278 732.018 542.191 732.114 534.424 732.114C528.027 732.114 526.801 731.463 527.886 728.637ZM593.609 740.984C593.231 737.056 593.446 732.477 594.087 730.81C594.956 728.549 597.575 728.103 604.385 729.057C618.109 730.979 618.856 731.461 618.856 738.375C618.856 746.222 613.29 749.7 602.212 748.782C594.948 748.18 594.234 747.533 593.609 740.984Z" fill="#FFFFFF"/>
<path d="M441.568 723.575V759.865H446.908H452.248L452.359 736.917L452.468 713.969L464.124 736.917C475.029 758.38 476.195 759.865 482.171 759.865H488.56V723.575V687.286H483.291C478.036 687.286 478.019 687.356 477.417 711.301L476.812 735.316L464.513 711.301C453.816 690.417 451.518 687.286 446.891 687.286H441.568V723.575Z" fill="#FFFFFF"/>
<path d="M371.08 724.346V761.409L376.42 760.388C381.709 759.376 381.76 759.15 381.871 736.668L381.98 713.969L393.636 736.917C404.541 758.38 405.707 759.865 411.683 759.865H418.072V723.575V687.286H412.803C407.548 687.286 407.531 687.356 406.929 711.301L406.324 735.316L394.025 711.301C383.328 690.417 381.03 687.286 376.403 687.286H371.08V724.346Z" fill="#FFFFFF"/>
<path fill-rule="evenodd" clip-rule="evenodd" d="M316.965 688.887C315.399 691.472 294.158 758.418 294.731 758.958C295.017 759.227 297.644 759.782 300.569 760.19C305.018 760.811 306.282 759.714 308.324 753.461C310.742 746.056 310.875 745.99 323.221 745.99C335.362 745.99 335.725 746.158 337.609 752.723C339.096 757.908 340.958 759.662 345.711 760.358C349.103 760.858 352.253 760.892 352.708 760.437C353.163 759.981 348.129 743.336 341.522 723.447C329.911 688.509 329.311 687.286 323.719 687.286C320.536 687.286 317.496 688.007 316.965 688.887ZM316.332 728.379C316.924 726.323 318.622 720.425 320.109 715.272L322.809 705.898L326.487 716.339C331.748 731.271 331.556 732.114 322.877 732.114C316.633 732.114 315.45 731.44 316.332 728.379Z" fill="#FFFFFF"/>
<path d="M240.171 691.579C227.966 701.174 224.185 731.559 233.062 748.718C239.661 761.471 256.659 765.859 267.238 757.543C272.809 753.162 279.232 743.033 279.232 738.625C279.232 733.722 269.212 736.576 264.618 742.788C258.771 750.69 251.836 751.066 245.05 743.849C240.923 739.46 239.998 736.108 239.872 725.076C239.669 707.587 244.106 700.094 254.662 700.094C260.694 700.094 262.638 701.259 265.348 706.498C267.676 710.996 270.235 712.902 273.948 712.902C276.855 712.902 279.232 712.003 279.232 710.906C279.232 706.06 274.548 697.374 269.33 692.541C262.035 685.783 248.128 685.324 240.171 691.579Z" fill="#FFFFFF"/>
</svg>
