<svg width="750" height="620" viewBox="0 0 750 620" fill="none" xmlns="http://www.w3.org/2000/svg">
<path d="M524.667 73.209C522.461 69.4896 519.325 66.4081 515.566 64.2674C511.807 62.1268 507.556 61.0008 503.23 61H391.059H345.267H299.475C299.475 61 291.77 61.0365 288.079 63.7448C285.514 65.6266 285.055 67.0324 283.047 70.1492C264.78 98.4914 172.373 243.365 152.703 298.94C151.802 301.485 150.963 303.216 150.426 305.467C149.759 308.587 149.759 311.814 150.426 314.935C151.044 317.527 152.075 319.473 153.154 322.373C188.088 416.276 277.789 546.62 277.789 546.62C279.953 550.469 283.102 553.674 286.912 555.906C290.723 558.139 295.058 559.32 299.475 559.327H503.23C507.556 559.327 511.807 558.201 515.566 556.06C519.325 553.919 522.461 550.838 524.667 547.118C526.855 543.331 528.007 539.034 528.007 534.66C528.007 530.286 526.855 525.99 524.667 522.202L407.012 310.164L524.917 98.1254C527.067 94.3158 528.175 90.0076 528.132 85.6338C528.088 81.2601 526.893 76.9749 524.667 73.209Z" fill="#FF5B57"/>
<path d="M222.3 132.558C220.614 129.711 218.216 127.351 215.343 125.712C212.469 124.074 209.219 123.212 205.913 123.211H183.321C183.321 123.211 177.43 123.239 174.609 125.312C172.648 126.753 172.298 127.829 170.762 130.216C156.798 151.915 86.1597 262.83 71.1231 305.378C70.4346 307.327 69.7927 308.652 69.3822 310.375C68.8726 312.765 68.8726 315.235 69.3822 317.624C69.8551 319.609 70.6428 321.099 71.4674 323.319C98.1725 395.212 166.743 495.003 166.743 495.003C168.397 497.95 170.804 500.404 173.717 502.113C176.63 503.822 179.944 504.726 183.321 504.732H205.913C209.219 504.732 212.469 503.87 215.343 502.231C218.216 500.592 220.614 498.233 222.3 495.385C223.973 492.485 224.853 489.195 224.853 485.847C224.853 482.498 223.973 479.209 222.3 476.309C222.3 476.309 194.074 427.09 178.746 396.772C163.275 366.172 143.521 320.376 143.521 320.376C143.521 320.376 140.713 315.658 140.812 311.486C140.903 307.649 143.113 302.436 143.113 302.436C143.113 302.436 159.141 264.449 174.171 235.746C190.038 205.445 222.491 151.634 222.491 151.634C224.134 148.718 224.982 145.419 224.948 142.071C224.915 138.722 224.002 135.441 222.3 132.558Z" fill="#FF5B57"/>
<path fill-rule="evenodd" clip-rule="evenodd" d="M557.51 309.86L486.286 186.574C484.614 187.673 483.227 189.158 482.244 190.908L419.627 303.718C419.092 304.989 418.567 306.247 418.246 307.594C417.911 309.164 417.911 310.787 418.246 312.357C418.554 313.651 419.038 314.819 419.627 316.001L482.244 428.811C482.293 428.898 482.343 428.984 482.393 429.069C483.474 430.89 484.999 432.41 486.828 433.483C488.743 434.606 490.921 435.2 493.14 435.203H605.851C608.024 435.203 610.16 434.637 612.049 433.56C613.937 432.483 615.513 430.933 616.621 429.062C617.72 427.156 618.299 424.995 618.299 422.794C618.299 420.594 617.72 418.433 616.621 416.527L557.51 309.86Z" fill="#FF5B57"/>
<path d="M616.621 190.657C615.513 188.786 613.937 187.236 612.049 186.159C610.16 185.082 608.024 184.516 605.851 184.516H493.14L561.453 302.761L616.746 203.192C617.827 201.275 618.384 199.108 618.362 196.908C618.34 194.708 617.74 192.552 616.621 190.657Z" fill="#FF5B57"/>
</svg>
