<svg width="750" height="620" viewBox="0 0 750 620" fill="none" xmlns="http://www.w3.org/2000/svg">
<path d="M277.457 35.7381C273.858 38.6568 269.068 45.889 269.068 45.889L237.214 101.06H252.962L266.176 78.1726L292.605 32.3968C286.698 32.838 279.883 33.7699 277.457 35.7381Z" fill="#FF5B57"/>
<path d="M239.747 123.948L252.962 101.06H237.214L173.741 211H189.488L239.747 123.948Z" fill="#FF5B57"/>
<path d="M523.59 45.3444C521.178 41.279 517.75 37.911 513.642 35.5713C509.534 33.2316 504.887 32.0008 500.159 32H377.556H327.507H302.482C302.482 32 297.91 32.0005 292.605 32.3968L266.176 78.1726L252.962 101.06L239.747 123.948L189.488 211H173.741L237.214 101.06L269.068 45.889C269.068 45.889 273.858 38.6568 277.457 35.7381C279.883 33.7699 286.698 32.838 292.605 32.3968C297.91 32.0005 302.482 32 302.482 32H277.457C272.629 32.0083 263.725 35.7392 263.725 35.7392C263.725 35.7392 140.899 224.644 117.036 292.066C116.051 294.848 115.133 296.74 114.546 299.2C113.818 302.611 113.818 306.138 114.546 309.549C115.223 312.383 116.349 314.509 117.528 317.678C155.711 420.314 253.753 562.779 253.753 562.779C256.119 566.986 259.56 570.489 263.725 572.929C267.89 575.37 272.629 576.66 277.457 576.668H500.159C504.887 576.668 509.534 575.437 513.642 573.097C517.75 570.757 521.178 567.389 523.59 563.324C525.981 559.184 527.24 554.488 527.24 549.707C527.24 544.927 525.981 540.231 523.59 536.091L394.993 304.334L523.862 72.5778C526.212 68.4139 527.424 63.7051 527.376 58.9246C527.328 54.1441 526.023 49.4604 523.59 45.3444Z" fill="#FF5B57"/>
<path fill-rule="evenodd" clip-rule="evenodd" d="M559.487 304L481.639 169.25C479.812 170.451 478.296 172.074 477.222 173.987L408.782 297.287C408.197 298.677 407.623 300.052 407.273 301.524C406.907 303.24 406.907 305.014 407.273 306.73C407.609 308.143 408.138 309.421 408.782 310.713L477.222 434.013C477.275 434.108 477.33 434.202 477.385 434.295C478.566 436.286 480.233 437.946 482.232 439.119C484.324 440.347 486.705 440.996 489.131 441H612.323C614.699 441 617.033 440.38 619.097 439.203C621.161 438.026 622.883 436.332 624.095 434.287C625.296 432.204 625.929 429.842 625.929 427.437C625.929 425.032 625.296 422.67 624.095 420.587L559.487 304Z" fill="#FF5B57"/>
<path d="M624.095 173.713C622.883 171.668 621.161 169.974 619.097 168.797C617.033 167.62 614.699 167 612.323 167H489.131L563.796 296.241L624.232 187.413C625.412 185.318 626.021 182.95 625.997 180.545C625.973 178.14 625.317 175.784 624.095 173.713Z" fill="#FF5B57"/>
<path d="M482.232 439.119C480.233 437.946 478.566 436.286 477.385 434.295L538 539.283H692.624L624.095 420.587C625.296 422.67 625.929 425.032 625.929 427.437C625.929 429.842 625.296 432.204 624.095 434.287C622.883 436.332 621.161 438.026 619.097 439.203C617.033 440.38 614.699 441 612.323 441H489.131C486.705 440.996 484.324 440.347 482.232 439.119Z" fill="#FF5B57"/>
<path d="M126.25 564.552C127.32 566.45 128.866 568.037 130.735 569.157C132.605 570.277 134.735 570.892 136.914 570.941L249.953 573.469C249.953 573.469 227.978 539.675 214.366 517.727C200.857 495.942 180.5 461.5 180.5 461.5L126.405 552.002C125.279 553.897 124.672 556.053 124.645 558.256C124.617 560.459 125.171 562.631 126.25 564.552Z" fill="#FF5B57"/>
</svg>
