<svg width="1554" height="1000" viewBox="0 0 1554 1000" fill="none" xmlns="http://www.w3.org/2000/svg">
<path d="M241.116 279.911C239.929 282.13 240.181 283.508 242.321 286.513C249.271 296.279 249.483 299.461 249.1 388.459L248.743 471.355L204.48 484.197L203.794 313.773L208.551 298.657C215.206 277.52 216.007 278.326 188.851 278.802C167.691 279.173 167.122 279.26 166.702 282.214C166.465 283.882 167.19 286.683 168.313 288.441C169.437 290.198 171.343 295.017 172.549 299.151C174.503 305.851 174.737 327.226 174.709 496.318L174.678 685.969L169.953 704.576C167.353 714.809 165.656 723.938 166.18 724.862C167.373 726.966 209.429 700.487 211.198 696.522C212.062 694.586 211.197 691.415 208.077 685.064L203.76 676.283L204.48 496.579L225.909 489.924C237.694 486.263 247.808 483.268 248.386 483.268C248.963 483.268 249.435 519.098 249.435 562.89V642.51L244.473 659.815C241.745 669.333 239.839 677.974 240.24 679.017C240.772 680.404 246.818 677.659 262.716 668.81C285.301 656.242 289.047 652.755 284.668 648.376C283.513 647.219 281.492 644.309 280.179 641.907C277.961 637.853 277.764 625.94 277.417 475.052L277.043 312.563L282.016 297.635C289.13 276.276 289.863 277.107 263.914 277.107C243.939 277.107 242.523 277.282 241.116 279.911Z" fill="#FFFFFF"/>
<path d="M301.449 279.309C300.984 280.519 301.781 283.165 303.221 285.189C310.441 295.342 310.297 291.824 310.271 458.268L310.245 612.637L305.43 627.728C301.12 641.232 299.684 647.919 301.095 647.919C301.359 647.919 313.03 642.391 327.03 635.637C349.194 624.941 361.642 619.288 390.781 606.681C395.673 604.565 397.964 602.503 400.117 598.28C403.686 591.283 403.704 585.426 400.207 569.4C398.687 562.432 396.973 551.565 396.401 545.25L395.358 533.77L392.239 545.325C388.113 560.607 382.105 575.395 375.26 587.121C368.644 598.452 354.642 616.199 349.831 619.354C346.553 621.501 346.316 621.441 343.785 617.804C342.335 615.723 340.432 611.903 339.555 609.317C337.509 603.286 337.256 411.319 339.293 411.319C341.234 411.319 353.336 426.239 359.119 435.764C365.2 445.774 372.065 462.606 373.45 470.901C374.376 476.432 374.719 475.189 376.91 458.362C381.102 426.176 381.203 424.67 379.574 418.645C378.708 415.446 376.405 410.932 374.456 408.614C369.773 403.048 364.857 402.95 341.072 407.95L337.96 408.604V307.457L342.284 296.088C344.662 289.834 347.11 284.167 347.724 283.494C349.645 281.394 360.563 288.948 369.868 298.818C379.776 309.328 388.115 323.933 392.626 338.679L395.587 348.364L396.507 335.911C397.013 329.063 398.958 315.989 400.831 306.86C404.26 290.138 404.212 285.925 400.519 280.221L398.503 277.107H350.398C307.694 277.107 302.197 277.355 301.449 279.309Z" fill="#FFFFFF"/>
<path d="M421.513 277.641C421.094 278.735 422.507 282.285 424.656 285.531L428.56 291.432L429.305 565.593L424.313 579.189C421.567 586.667 419.711 593.177 420.189 593.655C420.668 594.133 423.058 593.761 425.501 592.829C427.945 591.895 437.413 588.559 446.542 585.414C465.502 578.882 468.025 576.975 463.744 572.417C456.922 565.153 456.916 565.038 456.916 430.022V303.883L461.846 292.504C464.557 286.245 466.572 280.066 466.323 278.771C465.925 276.691 463.318 276.371 444.074 276.034C426.149 275.721 422.141 276.006 421.513 277.641Z" fill="#FFFFFF"/>
<path fill-rule="evenodd" clip-rule="evenodd" d="M532.993 273.165C529.569 273.938 516.654 274.881 504.291 275.264C491.929 275.648 481.814 276.468 481.814 277.085C481.814 277.704 483.681 281.761 485.964 286.101L490.113 293.992V546.376L485.235 558.479C480.355 570.585 480.126 574.147 484.337 572.531C485.571 572.058 495.311 569.142 505.983 566.054C516.654 562.966 525.824 559.741 526.359 558.887C526.894 558.033 526.146 556.071 524.696 554.527C518.036 547.436 517.777 544.927 517.777 487.362C517.777 444.727 518.144 433.362 519.506 433.763C538.841 439.452 538.456 439.257 539.118 443.71C539.466 446.061 540.764 455.071 542.002 463.729C546.061 492.141 554.668 515.923 565.435 528.487C572.59 536.836 585.133 542.763 595.644 542.763C604.527 542.763 621.518 540.07 621.518 538.661C621.518 538.189 618.665 537.039 615.178 536.107C607.163 533.962 596.283 523.314 590.168 511.632C584.609 501.011 578.505 483.463 574.405 466.318C571.198 452.911 571.153 452.828 566.955 452.814C561.584 452.797 549.836 447.295 545.803 442.907L542.707 439.538L551.248 437.774C575.939 432.673 593.208 413.702 602.413 381.571C606.586 367.004 606.914 336.762 603.051 322.767C596.767 300.004 584.521 283.053 569.33 276.089C560.34 271.967 544.105 270.662 532.993 273.165ZM526.99 292.084C530.027 287.907 534.253 284.323 538.914 281.969C544.494 279.152 547.344 278.509 551.466 279.139C562.946 280.893 569.551 287.245 574.666 301.452C578.368 311.737 579.841 345.572 577.352 363.186C571.522 404.451 555.243 428.446 532.991 428.571C527.873 428.599 524.012 427.788 521.526 426.161L517.777 423.708V365.558C517.777 301.405 517.27 305.45 526.99 292.084Z" fill="#FFFFFF"/>
<path fill-rule="evenodd" clip-rule="evenodd" d="M686.529 273.147C683.106 273.918 670.968 274.841 659.557 275.201C648.145 275.559 637.976 276.136 636.959 276.483C635.603 276.944 636.052 278.234 638.634 281.304C640.573 283.609 642.803 287.811 643.589 290.641C644.515 293.979 645.02 334.074 645.025 404.781L645.033 513.777L640.192 523.393C635.503 532.707 634.242 537.276 636.388 537.185C636.959 537.161 643.65 536.24 651.257 535.137C658.865 534.034 675.385 533.12 687.968 533.104C713.857 533.074 721.707 531.632 737.217 524.06C762.924 511.507 777.821 487.912 777.821 459.746C777.821 435.126 765.896 412.694 747.746 403.174L744.643 401.547L748.093 396.081C756.446 382.845 762.455 353.472 760.524 335.308C758.406 315.367 748.814 294.533 736.979 284.165C727.915 276.226 718.281 272.648 704.677 272.168C698.119 271.935 689.953 272.377 686.529 273.147ZM676.203 299.15C680.905 289.869 688.773 281.379 695.52 278.306C702.731 275.021 707.844 275.082 714.986 278.539C729.518 285.577 736.228 309.957 732.336 341.58C727.705 379.215 714.387 404.589 696.073 410.673C688.25 413.273 681.754 412.786 676.267 409.19L672.697 406.85V306.072L676.203 299.15ZM701.744 422.914C716.113 422.769 726.493 419.17 735.174 411.323C738.469 408.343 741.788 406.081 742.549 406.294C743.31 406.507 745.4 410.345 747.195 414.824C755.313 435.081 751.124 468.428 737.413 492.687C731.28 503.54 719.634 515.401 710.141 520.462C697.256 527.332 681.453 528 675.386 521.932C672.819 519.364 672.697 516.901 672.697 467.356C672.697 438.819 672.934 415.47 673.221 415.47C673.51 415.47 677.4 417.172 681.866 419.251C688.811 422.485 691.69 423.015 701.744 422.914Z" fill="#FFFFFF"/>
<path d="M793.036 277.026C793.036 277.742 793.724 278.753 794.563 279.271C795.403 279.792 797.258 282.786 798.683 285.925C801.145 291.348 801.276 297.027 801.305 398.734L801.336 505.832L796.38 514.697C793.653 519.574 791.728 524.359 792.101 525.331C792.594 526.615 799.091 527.349 815.858 528.01C828.552 528.511 849.586 529.892 862.602 531.079C875.617 532.267 887.636 532.895 889.309 532.475C894.805 531.095 895.394 525.489 891.721 509.503C889.893 501.543 888.013 490.811 887.543 485.657L886.688 476.286L881.974 486.033C873.249 504.079 855.181 519.508 839.012 522.723C834.735 523.573 834.357 523.307 831.78 517.626C829.152 511.834 829.059 508.022 829.03 404.355L829 297.08L833.928 287.795C836.639 282.688 838.469 277.884 837.996 277.117C836.883 275.313 793.036 275.224 793.036 277.026Z" fill="#FFFFFF"/>
<path fill-rule="evenodd" clip-rule="evenodd" d="M950.451 274.242C919.989 283.985 902.641 321.704 898.052 388.167C894.842 434.675 902.476 480.556 918.543 511.325C924.606 522.933 938.523 538.193 947.461 543.032C964.271 552.133 983.404 553.491 995.436 546.437C1021.14 531.371 1034.24 488.009 1034.19 418.237C1034.14 354.016 1023.79 311.309 1002.73 288.416C988.795 273.269 969.689 268.089 950.451 274.242ZM930.858 368.493C940.149 326.788 954.608 298.258 970.399 290.473C972.89 289.245 978.175 288.225 982.142 288.208C988.29 288.181 990.091 288.823 994.334 292.549C1000.37 297.849 1004.83 306.39 1008.29 319.308C1011.99 333.083 1012.02 387.36 1008.34 413.395C996.846 494.771 977.69 533.973 950.691 531.379C938.047 530.163 930.031 520.847 924.177 500.563C921.232 490.355 920.989 486.965 921.064 456.979C921.149 422.034 923.34 402.234 930.858 368.493Z" fill="#FFFFFF"/>
<path fill-rule="evenodd" clip-rule="evenodd" d="M1102.81 273.374C1067.68 283.313 1047.57 337.308 1047.55 421.696C1047.54 486.089 1059.86 537.142 1082.68 567.262C1099.28 589.173 1125.35 601.197 1142.25 594.739C1160.85 587.636 1174.52 557.606 1181.03 509.556C1184.21 486.133 1185.36 426.128 1183.18 397.798C1177.8 327.808 1161.59 287.792 1133.62 275.415C1125.68 271.898 1111.37 270.952 1102.81 273.374ZM1075.29 417.007C1084.05 349.821 1100.77 304.607 1120.73 294.141C1144.5 281.671 1159.06 305.465 1161.85 361.374C1163.24 389.099 1158 446.054 1150.49 484.794C1140.86 534.564 1128.07 562.246 1111.84 568.445C1100.15 572.911 1088.67 567.135 1081.17 553.008C1068.21 528.612 1066.35 485.589 1075.29 417.007Z" fill="#FFFFFF"/>
<path d="M1199.14 278.279C1198.74 278.924 1200.32 281.258 1202.64 283.468C1208.19 288.748 1210.15 292.72 1212.76 303.943C1214.63 312.027 1214.92 330.298 1214.92 442.617V571.982L1207.89 594.742C1202.45 612.346 1201.14 618.327 1202.07 621.135C1203.04 624.043 1206.62 626.351 1220.08 632.742C1229.31 637.129 1237.15 640.435 1237.5 640.088C1237.85 639.739 1236.09 636.057 1233.58 631.904C1227.5 621.789 1223.52 606.32 1221.86 586.285C1220.3 567.485 1219.99 455.22 1221.36 408.084C1222.17 380.104 1222.52 376.728 1224.58 376.728C1226.49 376.728 1227.78 381.65 1232.1 405.439C1243.38 467.536 1252.82 521.366 1263.47 584.272C1269.72 621.241 1275.67 652.416 1277.07 655.529C1278.43 658.573 1281.04 662.371 1282.85 663.97C1286.48 667.164 1302.24 675.868 1303.01 675.1C1303.28 674.836 1302.49 667.834 1301.26 659.54L1299.04 644.46L1309.47 587.731C1317.89 541.899 1334.47 447.643 1342.38 400.596C1343.57 393.538 1344.32 391.948 1346.46 391.948C1349.02 391.948 1349.09 395.34 1349.09 528.839V665.73L1344.82 676.541C1340.45 687.642 1339.65 693.177 1341.86 697.128C1343.85 700.678 1385.58 726.784 1386.61 725.12C1387.1 724.321 1386.35 721.06 1384.95 717.875C1377.88 701.901 1378.13 709.798 1378.13 505.985V316.206L1382.9 300.69C1386.49 288.98 1387.35 284.355 1386.39 281.832C1385.12 278.498 1385.08 278.491 1363.6 278.491C1346.01 278.491 1341.94 278.86 1341.31 280.511C1340.88 281.622 1342.26 286.136 1344.36 290.542C1350.9 304.249 1350.57 313.224 1341.54 367.043C1332.14 423.051 1315.5 517.479 1306.14 567.965C1302.37 588.294 1299.29 605.573 1299.29 606.36C1299.29 607.149 1297.88 607.794 1296.16 607.794C1293.1 607.794 1292.76 606.214 1282.24 543.109C1272.58 485.242 1254.94 384.171 1244.26 325.544L1240.35 304.107L1242.81 293.799C1244.16 288.129 1244.9 282.054 1244.46 280.299C1243.67 277.134 1243.48 277.107 1221.76 277.107C1209.72 277.107 1199.54 277.635 1199.14 278.279Z" fill="#FFFFFF"/>
<path d="M241.116 279.911C239.929 282.13 240.181 283.508 242.321 286.513C249.271 296.279 249.483 299.461 249.1 388.459L248.743 471.355L204.48 484.197L203.794 313.773L208.551 298.657C215.206 277.52 216.007 278.326 188.851 278.802C167.691 279.173 167.122 279.26 166.702 282.214C166.465 283.882 167.19 286.683 168.313 288.441C169.437 290.198 171.343 295.017 172.549 299.151C174.503 305.851 174.737 327.226 174.709 496.318L174.678 685.969L169.953 704.576C167.353 714.809 165.656 723.938 166.18 724.862C167.373 726.966 209.429 700.487 211.198 696.522C212.062 694.586 211.197 691.415 208.077 685.064L203.76 676.283L204.48 496.579L225.909 489.924C237.694 486.263 247.808 483.268 248.386 483.268C248.963 483.268 249.435 519.098 249.435 562.89V642.51L244.473 659.815C241.745 669.333 239.839 677.974 240.24 679.017C240.772 680.404 246.818 677.659 262.716 668.81C285.301 656.242 289.047 652.755 284.668 648.376C283.513 647.219 281.492 644.309 280.179 641.907C277.961 637.853 277.764 625.94 277.417 475.052L277.043 312.563L282.016 297.635C289.13 276.276 289.863 277.107 263.914 277.107C243.939 277.107 242.523 277.282 241.116 279.911Z" stroke="black"/>
<path d="M301.449 279.309C300.984 280.519 301.781 283.165 303.221 285.189C310.441 295.342 310.297 291.824 310.271 458.268L310.245 612.637L305.43 627.728C301.12 641.232 299.684 647.919 301.095 647.919C301.359 647.919 313.03 642.391 327.03 635.637C349.194 624.941 361.642 619.288 390.781 606.681C395.673 604.565 397.964 602.503 400.117 598.28C403.686 591.283 403.704 585.426 400.207 569.4C398.687 562.432 396.973 551.565 396.401 545.25L395.358 533.77L392.239 545.325C388.113 560.607 382.105 575.395 375.26 587.121C368.644 598.452 354.642 616.199 349.831 619.354C346.553 621.501 346.316 621.441 343.785 617.804C342.335 615.723 340.432 611.903 339.555 609.317C337.509 603.286 337.256 411.319 339.293 411.319C341.234 411.319 353.336 426.239 359.119 435.764C365.2 445.774 372.065 462.606 373.45 470.901C374.376 476.432 374.719 475.189 376.91 458.362C381.102 426.176 381.203 424.67 379.574 418.645C378.708 415.446 376.405 410.932 374.456 408.614C369.773 403.048 364.857 402.95 341.072 407.95L337.96 408.604V307.457L342.284 296.088C344.662 289.834 347.11 284.167 347.724 283.494C349.645 281.394 360.563 288.948 369.868 298.818C379.776 309.328 388.115 323.933 392.626 338.679L395.587 348.364L396.507 335.911C397.013 329.063 398.958 315.989 400.831 306.86C404.26 290.138 404.212 285.925 400.519 280.221L398.503 277.107H350.398C307.694 277.107 302.197 277.355 301.449 279.309Z" stroke="black"/>
<path d="M421.513 277.641C421.094 278.735 422.507 282.285 424.656 285.531L428.56 291.432L429.305 565.593L424.313 579.189C421.567 586.667 419.711 593.177 420.189 593.655C420.668 594.133 423.058 593.761 425.501 592.829C427.945 591.895 437.413 588.559 446.542 585.414C465.502 578.882 468.025 576.975 463.744 572.417C456.922 565.153 456.916 565.038 456.916 430.022V303.883L461.846 292.504C464.557 286.245 466.572 280.066 466.323 278.771C465.925 276.691 463.318 276.371 444.074 276.034C426.149 275.721 422.141 276.006 421.513 277.641Z" stroke="black"/>
<path fill-rule="evenodd" clip-rule="evenodd" d="M532.993 273.165C529.569 273.938 516.654 274.881 504.291 275.264C491.929 275.648 481.814 276.468 481.814 277.085C481.814 277.704 483.681 281.761 485.964 286.101L490.113 293.992V546.376L485.235 558.479C480.355 570.585 480.126 574.147 484.337 572.531C485.571 572.058 495.311 569.142 505.983 566.054C516.654 562.966 525.824 559.741 526.359 558.887C526.894 558.033 526.146 556.071 524.696 554.527C518.036 547.436 517.777 544.927 517.777 487.362C517.777 444.727 518.144 433.362 519.506 433.763C538.841 439.452 538.456 439.257 539.118 443.71C539.466 446.061 540.764 455.071 542.002 463.729C546.061 492.141 554.668 515.923 565.435 528.487C572.59 536.836 585.133 542.763 595.644 542.763C604.527 542.763 621.518 540.07 621.518 538.661C621.518 538.189 618.665 537.039 615.178 536.107C607.163 533.962 596.283 523.314 590.168 511.632C584.609 501.011 578.505 483.463 574.405 466.318C571.198 452.911 571.153 452.828 566.955 452.814C561.584 452.797 549.836 447.295 545.803 442.907L542.707 439.538L551.248 437.774C575.939 432.673 593.208 413.702 602.413 381.571C606.586 367.004 606.914 336.762 603.051 322.767C596.767 300.004 584.521 283.053 569.33 276.089C560.34 271.967 544.105 270.662 532.993 273.165ZM526.99 292.084C530.027 287.907 534.253 284.323 538.914 281.969C544.494 279.152 547.344 278.509 551.466 279.139C562.946 280.893 569.551 287.245 574.666 301.452C578.368 311.737 579.841 345.572 577.352 363.186C571.522 404.451 555.243 428.446 532.991 428.571C527.873 428.599 524.012 427.788 521.526 426.161L517.777 423.708V365.558C517.777 301.405 517.27 305.45 526.99 292.084Z" stroke="black"/>
<path fill-rule="evenodd" clip-rule="evenodd" d="M686.529 273.147C683.106 273.918 670.968 274.841 659.557 275.201C648.145 275.559 637.976 276.136 636.959 276.483C635.603 276.944 636.052 278.234 638.634 281.304C640.573 283.609 642.803 287.811 643.589 290.641C644.515 293.979 645.02 334.074 645.025 404.781L645.033 513.777L640.192 523.393C635.503 532.707 634.242 537.276 636.388 537.185C636.959 537.161 643.65 536.24 651.257 535.137C658.865 534.034 675.385 533.12 687.968 533.104C713.857 533.074 721.707 531.632 737.217 524.06C762.924 511.507 777.821 487.912 777.821 459.746C777.821 435.126 765.896 412.694 747.746 403.174L744.643 401.547L748.093 396.081C756.446 382.845 762.455 353.472 760.524 335.308C758.406 315.367 748.814 294.533 736.979 284.165C727.915 276.226 718.281 272.648 704.677 272.168C698.119 271.935 689.953 272.377 686.529 273.147ZM676.203 299.15C680.905 289.869 688.773 281.379 695.52 278.306C702.731 275.021 707.844 275.082 714.986 278.539C729.518 285.577 736.228 309.957 732.336 341.58C727.705 379.215 714.387 404.589 696.073 410.673C688.25 413.273 681.754 412.786 676.267 409.19L672.697 406.85V306.072L676.203 299.15ZM701.744 422.914C716.113 422.769 726.493 419.17 735.174 411.323C738.469 408.343 741.788 406.081 742.549 406.294C743.31 406.507 745.4 410.345 747.195 414.824C755.313 435.081 751.124 468.428 737.413 492.687C731.28 503.54 719.634 515.401 710.141 520.462C697.256 527.332 681.453 528 675.386 521.932C672.819 519.364 672.697 516.901 672.697 467.356C672.697 438.819 672.934 415.47 673.221 415.47C673.51 415.47 677.4 417.172 681.866 419.251C688.811 422.485 691.69 423.015 701.744 422.914Z" stroke="black"/>
<path d="M793.036 277.026C793.036 277.742 793.724 278.753 794.563 279.271C795.403 279.792 797.258 282.786 798.683 285.925C801.145 291.348 801.276 297.027 801.305 398.734L801.336 505.832L796.38 514.697C793.653 519.574 791.728 524.359 792.101 525.331C792.594 526.615 799.091 527.349 815.858 528.01C828.552 528.511 849.586 529.892 862.602 531.079C875.617 532.267 887.636 532.895 889.309 532.475C894.805 531.095 895.394 525.489 891.721 509.503C889.893 501.543 888.013 490.811 887.543 485.657L886.688 476.286L881.974 486.033C873.249 504.079 855.181 519.508 839.012 522.723C834.735 523.573 834.357 523.307 831.78 517.626C829.152 511.834 829.059 508.022 829.03 404.355L829 297.08L833.928 287.795C836.639 282.688 838.469 277.884 837.996 277.117C836.883 275.313 793.036 275.224 793.036 277.026Z" stroke="black"/>
<path fill-rule="evenodd" clip-rule="evenodd" d="M950.451 274.242C919.989 283.985 902.641 321.704 898.052 388.167C894.842 434.675 902.476 480.556 918.543 511.325C924.606 522.933 938.523 538.193 947.461 543.032C964.271 552.133 983.404 553.491 995.436 546.437C1021.14 531.371 1034.24 488.009 1034.19 418.237C1034.14 354.016 1023.79 311.309 1002.73 288.416C988.795 273.269 969.689 268.089 950.451 274.242ZM930.858 368.493C940.149 326.788 954.608 298.258 970.399 290.473C972.89 289.245 978.175 288.225 982.142 288.208C988.29 288.181 990.091 288.823 994.334 292.549C1000.37 297.849 1004.83 306.39 1008.29 319.308C1011.99 333.083 1012.02 387.36 1008.34 413.395C996.846 494.771 977.69 533.973 950.691 531.379C938.047 530.163 930.031 520.847 924.177 500.563C921.232 490.355 920.989 486.965 921.064 456.979C921.149 422.034 923.34 402.234 930.858 368.493Z" stroke="black"/>
<path fill-rule="evenodd" clip-rule="evenodd" d="M1102.81 273.374C1067.68 283.313 1047.57 337.308 1047.55 421.696C1047.54 486.089 1059.86 537.142 1082.68 567.262C1099.28 589.173 1125.35 601.197 1142.25 594.739C1160.85 587.636 1174.52 557.606 1181.03 509.556C1184.21 486.133 1185.36 426.128 1183.18 397.798C1177.8 327.808 1161.59 287.792 1133.62 275.415C1125.68 271.898 1111.37 270.952 1102.81 273.374ZM1075.29 417.007C1084.05 349.821 1100.77 304.607 1120.73 294.141C1144.5 281.671 1159.06 305.465 1161.85 361.374C1163.24 389.099 1158 446.054 1150.49 484.794C1140.86 534.564 1128.07 562.246 1111.84 568.445C1100.15 572.911 1088.67 567.135 1081.17 553.008C1068.21 528.612 1066.35 485.589 1075.29 417.007Z" stroke="black"/>
<path d="M1199.14 278.279C1198.74 278.924 1200.32 281.258 1202.64 283.468C1208.19 288.748 1210.15 292.72 1212.76 303.943C1214.63 312.027 1214.92 330.298 1214.92 442.617V571.982L1207.89 594.742C1202.45 612.346 1201.14 618.327 1202.07 621.135C1203.04 624.043 1206.62 626.351 1220.08 632.742C1229.31 637.129 1237.15 640.435 1237.5 640.088C1237.85 639.739 1236.09 636.057 1233.58 631.904C1227.5 621.789 1223.52 606.32 1221.86 586.285C1220.3 567.485 1219.99 455.22 1221.36 408.084C1222.17 380.104 1222.52 376.728 1224.58 376.728C1226.49 376.728 1227.78 381.65 1232.1 405.439C1243.38 467.536 1252.82 521.366 1263.47 584.272C1269.72 621.241 1275.67 652.416 1277.07 655.529C1278.43 658.573 1281.04 662.371 1282.85 663.97C1286.48 667.164 1302.24 675.868 1303.01 675.1C1303.28 674.836 1302.49 667.834 1301.26 659.54L1299.04 644.46L1309.47 587.731C1317.89 541.899 1334.47 447.643 1342.38 400.596C1343.57 393.538 1344.32 391.948 1346.46 391.948C1349.02 391.948 1349.09 395.34 1349.09 528.839V665.73L1344.82 676.541C1340.45 687.642 1339.65 693.177 1341.86 697.128C1343.85 700.678 1385.58 726.784 1386.61 725.12C1387.1 724.321 1386.35 721.06 1384.95 717.875C1377.88 701.901 1378.13 709.798 1378.13 505.985V316.206L1382.9 300.69C1386.49 288.98 1387.35 284.355 1386.39 281.832C1385.12 278.498 1385.08 278.491 1363.6 278.491C1346.01 278.491 1341.94 278.86 1341.31 280.511C1340.88 281.622 1342.26 286.136 1344.36 290.542C1350.9 304.249 1350.57 313.224 1341.54 367.043C1332.14 423.051 1315.5 517.479 1306.14 567.965C1302.37 588.294 1299.29 605.573 1299.29 606.36C1299.29 607.149 1297.88 607.794 1296.16 607.794C1293.1 607.794 1292.76 606.214 1282.24 543.109C1272.58 485.242 1254.94 384.171 1244.26 325.544L1240.35 304.107L1242.81 293.799C1244.16 288.129 1244.9 282.054 1244.46 280.299C1243.67 277.134 1243.48 277.107 1221.76 277.107C1209.72 277.107 1199.54 277.635 1199.14 278.279Z" stroke="black"/>
</svg>
