<svg width="1148" height="1000" viewBox="0 0 1148 1000" fill="none" xmlns="http://www.w3.org/2000/svg">
<g clip-path="url(#clip0_3948_244)">
<path fill-rule="evenodd" clip-rule="evenodd" d="M815.031 95.1946C811.35 99.6309 780.915 192.199 767.078 241.054C753.537 288.854 740.153 347.789 738.047 368.886C736.803 381.335 737.361 385.788 741.268 394.621C746.68 406.86 753.958 410.885 767.48 409.117C779.015 407.61 781 405.68 798.068 379.373L812.71 356.808L821.362 370.185C845.319 407.224 890.771 429.899 928.042 423.407C955.964 418.546 980.621 398.845 996.379 368.806C1004.3 353.698 1017.78 311.054 1022.98 284.628C1026.49 266.739 1025.8 266.974 1075.49 266.954C1122.03 266.933 1128.86 268.712 1146.37 285.419C1153.51 292.234 1160.57 297.809 1162.06 297.809C1169.3 297.809 1171.58 272.574 1165.5 259.773C1157.89 243.729 1128.76 234.223 1096.07 237.116C1079.53 238.579 1035.5 246.32 1028.56 248.982C1026.38 249.817 1025.19 248.865 1025.19 246.3C1025.19 238.669 1015.7 227.07 1001.94 217.882C994.319 212.792 986.655 208.625 984.913 208.625C980.822 208.625 980.893 214.783 985.119 226.761C986.973 232.021 988.775 241.504 989.12 247.834L989.746 259.343L952.02 272.602C931.271 279.894 908.855 288.035 902.206 290.693C895.557 293.347 889.642 295.522 889.063 295.522C888.483 295.522 891.501 290.633 895.769 284.66C910.188 264.479 922.297 229.62 922.297 208.289C922.297 196.782 921.382 194.022 915.264 187.052C900.937 170.731 884.388 174.934 858.276 201.52C841.371 218.737 831.612 235.767 823.12 262.883C816.613 283.663 807.975 323.732 807.975 333.137C807.975 338.875 781.59 379.687 777.68 379.998C769.165 380.67 790.63 291.223 826.072 178.328C836.24 145.943 844.558 117.6 844.558 115.346C844.558 110.31 826.328 92 821.316 92C819.316 92 816.487 93.4384 815.031 95.1946ZM428.427 215.419C347.611 229.151 299.063 246.592 168.917 308.651C83.56 349.35 37.8222 366.412 14.0639 366.412C4.75583 366.412 1.8292 365.207 -5.97211 358.157C-16.2222 348.895 -22 349.126 -22 358.797C-22 367.818 0.882616 389.584 15.6644 394.621C41.8143 403.533 60.6065 398.308 133.37 361.891C191.626 332.737 229.537 315.369 231.229 317.061C234.183 320.018 193.339 477.899 177.64 524.199C168.41 551.421 156.529 571.965 139.836 589.566C105.898 625.345 87.7488 620.344 87.7488 575.214C87.7488 531.173 102.675 499.724 157.755 427.709C166.704 416.005 177.251 403.592 181.191 400.123C189.504 392.804 190.023 390.334 183.93 387.073C156.234 372.25 88.5353 439.293 61.3085 508.509C46.5724 545.969 41.2359 588.084 49.3207 603.092C57.5861 618.432 70.6623 625.642 94.6081 628.059C124.874 631.117 151.081 621.089 174.635 597.437C198.565 573.408 209.684 547.718 236.159 455.285C248.41 412.515 268.608 332.931 273.041 309.972L275.769 295.838L316.088 279.894C396.255 248.195 426.975 240.441 476.442 239.412C504.998 238.82 512.015 238.037 512.563 235.389C513.56 230.576 501.831 217.637 493.2 214.031C483.231 209.867 457.913 210.409 428.427 215.419ZM885.938 222.346C873.584 239.021 855.99 282.36 855.99 296.117C855.99 310.404 876.714 274.692 888.037 240.896C896.993 214.159 896.332 208.316 885.938 222.346ZM666.212 249.073C651.78 256.265 627.196 279.892 615.499 297.809C602.127 318.289 584.485 355.225 579.528 373.114C575.118 389.035 567.559 403.023 555.393 417.775C552.322 421.498 549.139 423.874 548.319 423.053C546.695 421.429 568.702 338.884 579.503 306.082C590.149 273.75 588.208 264.166 569.93 258.815C562.906 256.757 561.692 257.137 556.906 262.885C545.209 276.938 517.959 321.825 497.525 360.695C485.625 383.334 474.375 403.915 472.523 406.43C469.19 410.963 469.171 410.96 470.557 406.206C474.195 393.732 478.729 364.797 478.729 354.063C478.729 343.668 477.912 341.523 472.441 337.532C464.102 331.45 458.928 329.668 454.511 331.365C450.388 332.945 423.411 386.503 399.78 440.018C391.067 459.749 383.769 475.699 383.561 475.463C383.352 475.228 386.652 461.656 390.895 445.305C401.504 404.413 406.471 373.67 403.663 366.284C401.306 360.082 385.195 351.232 379.964 353.265C377.097 354.379 365.15 375.211 319.339 458.996C307.658 480.359 298.101 496.902 298.101 495.758C298.101 494.613 304.683 471.473 312.727 444.336C331.752 380.151 331.894 379.282 324.438 372.369C317.277 365.733 306.172 360.885 301.889 362.527C298.414 363.86 279.398 416.334 267.302 457.965C256.723 494.375 252.372 516.678 252.372 534.496C252.372 547.329 253.181 550.371 257.832 555.022C264.181 561.372 277.413 564.517 283.673 561.167C286.312 559.753 292.391 547.775 299.155 530.657C313.623 494.032 336.414 443.922 340.507 439.726C342.274 437.912 344.216 436.927 344.822 437.533C345.427 438.139 344.424 447.853 342.592 459.12C340.759 470.389 339.003 486.993 338.687 496.021C338.147 511.478 338.513 512.861 344.972 519.742C348.745 523.76 355.273 528.521 359.48 530.318C370.395 534.986 376.018 530.551 383.732 511.194C426.475 403.952 441.721 370.7 430.46 409.289C425.599 425.948 415.975 465.687 413.789 478.127C412.644 484.649 413.501 486.783 419.533 492.42C426.984 499.381 438.355 501.235 446.584 496.829C453.486 493.135 464.134 474.281 478.303 440.668C497.013 396.279 525.735 339.488 528.219 341.971C528.726 342.476 524.986 358.84 519.912 378.333C514.836 397.825 508.772 422.525 506.436 433.222C502.494 451.256 502.455 453.11 505.892 458.777C507.929 462.138 513.992 467.016 519.365 469.618C528.433 474.009 529.531 474.087 534.685 470.711C540.497 466.902 552.985 446.876 565.855 420.723C570.035 412.232 574.128 405.287 574.951 405.287C575.774 405.287 577.045 408.973 577.777 413.478C581.01 433.417 595.586 451.022 608.856 451.022C616.854 451.022 622.66 443.243 648.553 397.83C674.71 351.955 695.828 318.39 698.533 318.39C699.445 318.39 697.097 329.947 693.313 344.07C678.691 398.648 665.606 436.998 652.527 463.6C631.051 507.281 614.019 525.912 597.911 523.339C584.611 521.215 578.333 513.314 574.693 494.119C572.242 481.194 567.241 473.89 560.839 473.89C555.772 473.89 553.836 479.767 553.692 495.578C553.417 526.25 575.031 541.823 614.982 539.742C637.435 538.571 649.26 532.559 664.639 514.494C685.004 490.572 698.53 458.935 719.913 385.209C736.677 327.411 741.634 305.886 741.652 290.805C741.666 279.86 740.779 277.23 735.298 271.98C731.793 268.623 725.716 265.234 721.793 264.447C715.656 263.222 714.092 263.937 710.63 269.554C708.415 273.146 690.478 300.782 670.768 330.967C651.057 361.152 631.424 392.268 627.139 400.114C622.852 407.96 618.423 414.393 617.298 414.407C613.507 414.457 617.874 386.007 624.77 365.737C640.021 320.912 670.869 278.795 699.557 263.626C705.742 260.356 710.802 256.162 710.802 254.306C710.802 249.661 696.534 242.933 686.671 242.931C682.203 242.929 672.995 245.694 666.212 249.073ZM968.025 280.935C944.74 287.027 900.752 302.666 876.568 313.448L852.56 324.153L851.872 340.075C851.029 359.618 855.281 371.921 867.086 384.089C890.581 408.301 923.467 406.874 945.035 380.707C959.074 363.672 979.917 315.694 987.256 283.517C988.942 276.124 987.27 275.899 968.025 280.935ZM809.624 443.172C776.992 451.077 755.508 468.313 739.199 499.664C727.6 521.962 726.221 537.217 734.368 553.11C738.863 561.88 752.744 572.822 765.349 577.538C769.161 578.962 768.706 580.122 760.911 588.823C738.07 614.318 708.762 645.263 708.09 644.59C707.678 644.179 708.883 624.897 710.772 601.743C716.065 536.783 715.441 527.069 705.721 523.06C696.543 519.278 685.738 517.743 682.073 519.705C679.297 521.189 677.44 527.169 675.545 540.712C674.091 551.125 671.29 567.803 669.323 577.778C664.84 600.513 638.342 681.023 630.639 695.313L624.88 705.997L626.03 697.993C626.663 693.591 629.331 674.039 631.961 654.544C634.59 635.05 638.228 613.291 640.046 606.193C645.346 585.496 644.689 582.143 634.298 576.84C629.318 574.3 623.805 572.221 622.047 572.221C620.289 572.221 615.183 578.139 610.702 585.37C606.22 592.601 599.02 601.921 594.701 606.079L586.852 613.639L585.656 594.457C583.214 555.322 563.731 531.059 534.746 531.059C512.166 531.059 502.997 540.904 496.952 571.647C493.625 588.555 495.376 602.5 502.627 616.82L507.997 627.435L502.432 641.135C486.589 680.124 483.238 727.225 494.802 748.302C498.785 755.56 503.456 760.109 510.652 763.738C534.758 775.894 543.741 768.146 559.277 721.796C570.287 688.951 581.618 646.877 581.618 638.85C581.618 634.341 594.431 623.149 596.839 625.555C597.52 626.237 595.961 635.869 593.375 646.957C585.795 679.457 582.999 706.717 586.072 718.133C590.215 733.523 599.073 741.812 612.778 743.129C627.42 744.538 630.324 741.732 636.538 720.195C646.99 683.978 664.849 631.005 665.725 633.63C667.483 638.905 661.321 691.659 656.952 708.745C651.105 731.611 640.562 752.414 626.912 768.012C615.055 781.565 613.697 787.836 622.351 789.068C628.998 790.015 633.351 786.386 639.106 775.103C641.616 770.179 644.271 766.752 645.003 767.486C645.737 768.22 643.35 773.596 639.7 779.434C633.888 788.73 631.355 790.582 619.344 794.316C605.651 798.574 605.619 798.574 601.624 793.77C598.92 790.516 597.623 785.021 597.623 776.797C597.623 764.046 594.77 759.029 585.924 756.221C578.376 753.825 574.043 760.159 572.957 775.176C572.306 784.156 573.195 791.339 575.694 797.321C577.727 802.19 579.121 806.388 578.79 806.653C578.458 806.916 563.27 813.059 545.035 820.305C489.48 842.38 454.129 862.343 445.978 876.244C441.931 883.146 441.935 883.58 446.092 890.699C448.449 894.735 453.093 899.562 456.415 901.428C462.113 904.625 463.005 904.406 472.306 897.507C511.146 868.689 547.358 848.053 583.905 833.912C602.711 826.635 607.958 825.553 622.996 825.86C639.346 826.194 641.063 825.743 652.315 818.172C666.724 808.474 693.676 802.949 729.093 802.434C760.922 801.972 767.812 804.7 774.817 820.543C781.432 835.505 789.112 840.267 798.287 835.092C808.208 829.496 809.386 820.98 802.257 806.404C790.854 783.095 771.95 776.431 724.52 779.006C709.43 779.825 693.756 781.08 689.691 781.796L682.297 783.097L686.495 770.845C688.802 764.106 693.649 740.863 697.264 719.194L703.837 679.795L733.613 643.563C749.991 623.637 768.02 602.136 773.679 595.791L783.967 584.249L809.443 586.006C835.687 587.817 845.326 589.651 844.112 592.598C843.728 593.529 833.126 602.88 820.55 613.376C779.161 647.924 751.507 672.987 748.427 678.743C745.832 683.596 745.921 684.931 749.056 688.066C751.381 690.394 754.655 691.22 758.051 690.332C760.987 689.569 782.671 672.454 806.237 652.306C829.804 632.155 849.753 615.669 850.571 615.669C851.388 615.669 851.488 621.181 850.793 627.917C848.452 650.609 826.463 685.308 806.336 698.075C793.399 706.28 765.502 712.818 752.385 710.721C747.142 709.882 738.214 706.271 732.543 702.697C719.115 694.229 713.719 692.761 708.924 696.267C705.316 698.905 705.593 699.852 712.359 708.062C724.516 722.814 763.2 736.868 791.645 736.868C816.716 736.868 846.732 721.846 866.4 699.459C891.309 671.105 898.804 634.442 885.732 604.887L880.96 594.101L886.196 589.932C896.236 581.933 925.82 565.246 938.302 560.54C958.253 553.019 999.814 542.614 1016.09 541.066C1027.61 539.968 1034.88 540.744 1048.02 544.464C1057.66 547.192 1065.91 548.418 1067.03 547.293C1071.82 542.5 1050.48 517.357 1035.02 509.584C1025.64 504.871 1004.54 504.837 988.448 509.509C968.112 515.411 927.718 536.346 896.003 557.416L866.279 577.167L847.711 573.492C837.5 571.471 822.503 569.198 814.384 568.439L799.625 567.06L804.372 562.191C806.983 559.513 814.898 550.872 821.966 542.989C833.956 529.612 835.22 528.814 840.957 530.993C856.827 537.028 874.016 514.473 879.95 479.829C881.431 471.182 881.045 470.49 867.523 457.622C848.337 439.362 837.008 436.536 809.624 443.172ZM824.35 469.493C816.606 473.364 805.817 480.984 800.373 486.426C787.687 499.115 773.818 525.409 772.327 539.593C771.099 551.288 774.753 561.414 780.609 562.541C782.47 562.9 794.117 554.773 806.491 544.48C824.593 529.424 828.276 525.37 825.34 523.725C820.425 520.974 820.749 516.616 826.241 511.644C839.455 499.685 851.84 471.907 846.714 465.731C842.875 461.105 840.25 461.546 824.35 469.493ZM375.942 540.586C373.521 544.569 369.348 553.689 366.668 560.853L361.798 573.879L343.162 578.987C301.265 590.472 250.117 614.464 217.504 637.94C192.122 656.207 165.487 684.769 165.487 693.719C165.487 699.187 166.91 701.099 172.82 703.584C182.649 707.719 187.174 705.725 210.994 686.774C235.187 667.524 256.995 653.381 280.952 641.398C298.544 632.601 341.255 615.669 345.855 615.669C347.078 615.669 346.054 622.614 343.58 631.105C326.436 689.907 309.638 787.534 309.556 828.867C309.528 842.263 307.662 842.947 274.626 841.673C253.995 840.879 249.781 839.978 238.976 834.056C223.819 825.748 212.003 812.27 208.077 798.803C203.886 784.428 199.784 784.017 199.784 797.971C199.784 835.398 248.629 871.534 299.509 871.748C308.915 871.787 308.922 871.794 313.886 885.41C320.594 903.811 327.173 908.78 343.671 907.904C358.723 907.106 360.266 904.172 353.382 889.457C350.897 884.14 348.228 876.1 347.455 871.588C346.074 863.539 346.232 863.331 355.799 860.518C361.163 858.94 373.404 853.747 383.005 848.977C449.083 816.139 483.782 769.066 472.983 726.907C471.058 719.386 467.406 709.873 464.868 705.768C460.421 698.572 441.643 684.272 436.64 684.272C435.3 684.272 439.414 680.765 445.779 676.477C461.985 665.56 478.143 646.888 481.267 635.466C486.295 617.076 474.499 591.601 453.048 574.517C441.698 565.48 441.3 565.361 422.43 565.361H403.313L406.983 556.188C411.135 545.811 409.658 542.443 398.411 536.625C387.914 531.196 380.901 532.431 375.942 540.586ZM528.589 548.782C526.7 550.984 524.471 553.991 523.637 555.466C520.365 561.251 517.77 581.988 519.103 591.711L520.506 601.958L530.434 592.806C540.862 583.193 545.632 581.942 555.217 586.31C562.558 589.655 562.526 592.822 555.036 604.693C551.732 609.925 547.603 617.622 545.858 621.798C542.712 629.333 542.735 629.39 549.007 629.356C560.181 629.294 561.354 627.014 562.654 602.834C564.138 575.29 561.191 562.767 550.774 552.349C542.344 543.918 533.928 542.564 528.589 548.782ZM405.563 600.369L390.701 603.092L382.42 631.677C372.554 665.731 369.89 679.699 373.26 679.699C378.622 679.699 426.029 645.638 440.294 631.537C455.759 616.25 461.009 606.179 456.082 601.251C452.416 597.586 423.502 597.083 405.563 600.369ZM533.578 655.116C532.211 660.463 530.628 666.202 530.061 667.876C524.821 683.369 524.044 747.984 529.209 738.752C530.878 735.773 538.096 711.028 551.609 661.977L556.177 645.397H546.121C536.205 645.397 536.031 645.532 533.578 655.116ZM394.51 715.222C386.544 716.95 375.633 720.941 370.263 724.087L360.5 729.811L356.768 754.492C350.771 794.149 347.558 823.683 349.072 825.199C353.089 829.217 403.304 794.554 422.935 774.211C445.047 751.298 456.205 720.303 444.583 714.081C438.494 710.822 411.992 711.426 394.51 715.222Z" fill="white"/>
</g>
<defs>
<clipPath id="clip0_3948_244">
<rect width="1148" height="1000" fill="#FFFFFF"/>
</clipPath>
</defs>
</svg>
