<svg width="196" height="196" viewBox="0 0 196 196" fill="none" xmlns="http://www.w3.org/2000/svg">
<path d="M100.296 149.835V140.765C100.296 140.241 100.292 139.718 100.289 139.194L100.296 135.735C100.296 132.103 99.7013 128.632 98.6136 125.365C99.353 122.831 100.223 120.5 101.197 118.359C102.476 115.546 103.935 113.06 105.514 110.87C113.126 100.312 123.534 96.6196 130.085 96.3255C129.892 99.4344 130.185 102.658 130.901 105.736C123.384 105.34 110.327 109.617 103.976 126.525C101.708 132.563 100.296 140.212 100.296 149.835Z" fill="#65DCC3"/>
<path d="M103.976 126.525C110.327 109.617 123.384 105.34 130.901 105.736C131.644 108.93 132.842 111.967 134.425 114.558C128.268 113.625 118.83 115.429 112.994 124.838C109.666 130.204 108.331 136.574 107.919 142.811C107.543 148.5 102.594 149.779 100.296 149.835C100.296 140.212 101.708 132.563 103.976 126.525Z" fill="black" fill-opacity="0.2"/>
<path d="M66.6822 98.2996C68.9817 97.4619 71.1429 96.2955 73.1778 94.8613C80.333 96.7933 90.873 102.358 97.8833 112.647C98.807 114.091 99.9775 116.072 101.197 118.359C100.223 120.5 99.353 122.831 98.6136 125.365C97.8046 122.935 96.7226 120.618 95.4091 118.431C89.3772 108.39 78.4629 101.105 66.6822 98.2996Z" fill="black" fill-opacity="0.2"/>
<path d="M66.6822 98.2996C78.4629 101.105 89.3772 108.39 95.4091 118.431C96.7226 120.618 97.8046 122.935 98.6136 125.365C99.7013 128.632 100.296 132.103 100.296 135.735L100.289 139.194C100.292 139.718 100.296 140.241 100.296 140.765V149.835C95.0907 149.835 92.1173 146.562 92.1173 142.657C92.1173 128.975 82 114.319 65.962 108.444C66.7464 104.911 67.1279 101.255 66.6822 98.2996Z" fill="#65DCC3"/>
<path d="M63.4269 34.1261L77.6371 48.0307C84.0418 54.2977 87.0734 62.6154 86.7317 70.8238C86.4878 76.683 84.5252 82.4864 80.8439 87.4485C80.796 87.5131 80.7479 87.5774 80.6994 87.6417C71.4961 81.8226 63.4269 70.0468 63.4269 48.0307V34.1261Z" fill="#65DCC3"/>
<path d="M15.3539 73.2687L33.8625 72.1978C46.5805 71.4619 57.9663 78.3026 63.4269 88.7277C64.9396 91.6156 66.1766 94.9464 66.6822 98.2996C65.6709 98.668 64.465 98.8153 63.4269 99.0774C53.1047 101.683 41.6827 99.0312 33.5992 91.1216L15.3539 73.2687Z" fill="#65DCC3"/>
<path d="M134.425 33.8391L133.819 48.0307C133.819 69.7239 126.696 81.4749 118.482 87.3818C118.355 87.222 118.23 87.0613 118.106 86.8995C114.275 81.8659 112.225 75.8432 111.984 69.7547C111.676 61.9797 114.319 54.0973 119.968 48.0307C124.558 43.1012 129.611 38.5495 134.425 33.8391Z" fill="#65DCC3"/>
<path d="M185.881 69.6714L164.983 90.1202C156.708 98.2168 144.935 100.804 134.425 97.8824C132.949 97.4721 131.498 96.9531 130.085 96.3255C130.386 91.4711 131.873 86.7098 134.425 82.5342C140.352 72.8358 151.583 66.7578 163.862 67.8008L185.881 69.6714Z" fill="#65DCC3"/>
<path d="M196 131.7L158.475 128.512C148.36 127.653 139.438 122.37 134.425 114.558C149.895 105.29 170.748 106.991 184.139 120.094L196 131.7Z" fill="#65DCC3"/>
<path d="M37.5387 133.031L0 135.203L15.4409 120.094C28.4407 107.374 48.1337 108.133 63.4269 116.495C58.5625 125.776 48.9505 132.371 37.5387 133.031Z" fill="#65DCC3"/>
</svg>
