<svg xmlns="http://www.w3.org/2000/svg" width="180" height="180" fill="none" viewBox="0 0 180 180">
  <path fill="#d04a9b" d="M90 161.294c-39.3113 0-71.2937-31.983-71.2937-71.2935 0-39.3124 31.9824-71.2941 71.2937-71.2941 39.311 0 71.294 31.9817 71.294 71.2941 0 39.3105-31.983 71.2935-71.294 71.2935M90 0C40.3739 0 0 40.3732 0 90.0005 0 139.627 40.3739 180 90 180c49.626 0 90-40.373 90-89.9995C180 40.3732 139.626 0 90 0"/>
  <path fill="#fff" d="M90 161.294c-39.3113 0-71.2937-31.983-71.2937-71.2935 0-39.3124 31.9824-71.2941 71.2937-71.2941 39.311 0 71.294 31.9817 71.294 71.2941 0 39.3105-31.983 71.2935-71.294 71.2935"/>
  <path fill="#d04a9b" d="M75.2311 75.2845h-2.2788c-1.6401 0-2.9686-1.3295-2.9686-2.9696v-.6167c0-1.6338 1.3203-2.9614 2.9549-2.9687 1.0051-.0046 1.8914-.0046 2.2925-.0046 3.0381 0 5.7308.276 5.7308 3.2793-.0338 2.9696-2.6927 3.2803-5.7308 3.2803m53.6019 4.5384H88.0065c-.2001-.0667-.3463-.2467-.3463-.4679 0-.264.2047-.4815.4688-.4998 2.1216-.1452 10.726-1.3468 10.7863-11.3044.0694-12.6019-9.943-14.0172-22.3036-14.0172H51.8229c-1.6392 0-2.9686 1.3294-2.9686 2.9695V97.208c0 1.6401 1.3294 2.97 2.9686 2.97h15.1913c1.6401 0 2.9695-1.3299 2.9695-2.97v-7.8369c0-1.6401 1.3285-2.9695 2.9686-2.9695 3.2108.0694 3.9363.6907 5.6275 6.7322.6268 2.1801 1.0545 3.7307 1.3432 4.8098.3472 1.2993 1.5222 2.1994 2.8672 2.1994h1.9334v24.01c0 1.278 1.0352 2.313 2.3135 2.313H103.54c1.277 0 2.313-1.035 2.313-2.313v-9.529c0-1.277 1.035-2.313 2.313-2.313h16.361c1.266 0 2.296-1.016 2.313-2.282l.11-8.044c.018-1.289-1.023-2.3447-2.313-2.3447h-16.471c-1.278 0-2.313-1.0352-2.313-2.3135 0-1.2773 1.035-2.3126 2.313-2.3126h20.451c1.259 0 2.287-1.0078 2.313-2.266l.215-10.5652c.027-1.2957-1.016-2.3601-2.312-2.3601"/>
</svg>
