<svg width="131" height="112" viewBox="0 0 131 112" fill="none" xmlns="http://www.w3.org/2000/svg">
<rect x="11.3022" width="120" height="98" rx="26" transform="rotate(6.62258 11.3022 0)" fill="#FC81FE"/>
<path fill-rule="evenodd" clip-rule="evenodd" d="M75.4998 26.5002C74.4998 27.5002 72.4949 29.1068 70.9998 33.5002C70.3398 35.4417 67.399 45.9707 64.681 57.2962C67.0547 58.1263 71.8022 61.3526 71.8022 67.6172C71.8022 73.8817 71.4419 79.2433 64.3134 88.0475C73.1996 91.4577 83.2991 87.1064 85.9809 76.8605C86.7418 73.9541 87.9856 70.6326 87.9856 70.6326C87.9856 70.6326 91.588 70.4357 94.6709 70.6326C107.438 70.1817 108.626 66.7542 110.754 60.6147C110.819 60.4293 110.884 60.2413 110.95 60.0509C113.044 54.044 110.434 54.044 97.9045 54.044C97.6011 54.044 97.2627 54.0479 96.9044 54.0521C94.4707 54.0806 92.9262 54.6555 91.6399 52.9999C90.0927 51.0085 88.3327 46.5804 93.206 46.7353C98.0794 46.8902 102.945 47.2574 107.823 47.2573C108.81 47.2573 109.675 47.2892 110.434 47.3171C113.69 47.4369 115.006 47.4853 115.731 44.6465C116.046 43.415 116.582 42.1438 117.144 40.8093C119.571 35.0528 120.689 29.0393 115.132 24.6717C113.315 23.2441 104.354 23.2073 99.2883 23.2432C91.9419 23.2953 82.3598 22.037 75.4998 26.5002Z" fill="white"/>
<path fill-rule="evenodd" clip-rule="evenodd" d="M23 24.598C21 31.0013 15.1264 60.3569 12.1995 74.993C10.1995 84.9947 10.7344 89.7301 20.0232 90.1953C29.312 90.6604 33.6617 83.8774 35.6995 74.9929C36.3238 72.2712 37.6719 65.5105 37.6719 65.5105C37.6719 65.5105 39.7905 64.8406 40.4585 65.5105C40.8096 65.8635 40.0487 68.3393 39.4291 72.4015C38.4798 78.6182 38.6944 81.394 39.8388 84.14C41.534 88.2087 45.3184 90.2148 51.1405 90.1953C60.9309 90.1608 67.1995 79.4929 67.6995 72.9929C68.1995 66.4929 68.0966 63.9474 65.4887 61.7851C62.8808 59.6229 60.8631 59.9222 58.1071 59.9222H55.3205L55.7849 57.1277C55.7849 57.1277 57.5647 56.8639 58.5716 56.662C60.89 56.1972 60.5315 56.1394 61.3582 52.9361C65.265 37.7902 66.2202 32.5965 68.2507 29.5949C70.2395 26.6552 70.1358 24.5948 68.7507 24.5949C46.6995 24.5963 27 19 23 24.598ZM39.4291 54.9929C39.1217 54.6864 39.9995 49.6333 40.8773 44.158C42.1517 36.2125 42.7638 34.2592 43.9091 34.4763C45.8087 34.8368 48.0241 37.7606 46.6995 44.158C45.6861 49.0539 40.5744 56.1367 39.4291 54.9929Z" fill="white"/>
</svg>
