<svg width="172" height="172" viewBox="0 0 172 172" fill="none" xmlns="http://www.w3.org/2000/svg">
<rect width="172" height="172" fill="black"/>
<path fill-rule="evenodd" clip-rule="evenodd" d="M85.3823 72.0468C85.1437 72.0825 84.9258 72.1184 84.9258 72.1184C84.9258 72.1184 82.6874 72.9555 81.3908 73.7496C75.0892 77.6092 73.4464 89.8664 72.2044 99.1324C71.844 101.822 71.5173 104.259 71.1203 106.166L73.9672 107.754C75.0365 108.062 76.0975 108.287 77.1488 108.43C77.1488 108.43 80.8558 82.8286 85.3823 72.0468Z" fill="#D0499A"/>
<path d="M84.9258 72.1184L85.6121 69.0905L86.0825 69.0877C86.3577 69.0865 86.631 69.0797 86.9027 69.0683C86.7074 69.3734 86.5195 69.691 86.3399 70.0218C86.0173 70.6157 85.6978 71.2952 85.3823 72.0468C85.1437 72.0825 84.9258 72.1184 84.9258 72.1184Z" fill="#D0499A"/>
<path fill-rule="evenodd" clip-rule="evenodd" d="M103.275 60.7183C98.8269 60.7183 95.2252 62.0383 92.4757 63.7649L92.42 63.9884L92.4194 63.9908L92.3993 64.0717C92.4247 63.9697 92.4501 63.8674 92.4757 63.7649C92.5595 63.4283 92.6441 63.0897 92.7288 62.751C92.7305 62.7441 92.7322 62.7372 92.734 62.7303L92.8155 62.4037C92.8691 62.1888 92.9227 61.974 92.9772 61.7575C93.0632 61.4133 93.1512 61.0662 93.2394 60.7183L93.3458 60.2982L93.3955 60.1014C93.4541 59.8696 93.5127 59.638 93.573 59.4036C93.7087 58.8682 93.8482 58.3271 93.9877 57.786L94.0201 57.6597L94.0607 57.5011L94.0631 57.4919C94.1033 57.3345 94.1435 57.1773 94.1847 57.0186C94.3337 56.4417 94.4855 55.8592 94.6372 55.2766L94.6873 55.0831C94.7297 54.9191 94.7721 54.7554 94.8154 54.5903C94.9879 53.9333 95.1623 53.2715 95.3376 52.6079L95.36 52.523C95.3938 52.3946 95.4273 52.2673 95.4621 52.1375C95.6798 51.3136 95.9014 50.484 96.1248 49.6507C96.2162 49.3104 96.3095 48.9663 96.4066 48.6213C96.4236 48.56 96.441 48.4987 96.4585 48.4375C96.4759 48.3762 96.4934 48.3149 96.5103 48.2536C96.5744 48.0274 96.6385 47.8012 96.7045 47.574C96.7301 47.486 96.7567 47.3974 96.7833 47.3089L96.7836 47.308C96.7991 47.2564 96.8146 47.2048 96.8299 47.1535L96.8849 46.9694C96.9294 46.82 96.9739 46.6707 97.0194 46.521C97.0276 46.4942 97.0359 46.4674 97.0443 46.4406C97.0548 46.4068 97.0655 46.3732 97.0762 46.3395L97.1044 46.2508L97.1046 46.2501L97.105 46.249L97.1053 46.2479C97.1252 46.1857 97.145 46.1234 97.1645 46.061L97.1942 45.9666C97.2473 45.7975 97.3003 45.6289 97.3559 45.4596C97.3747 45.4022 97.3939 45.3448 97.4132 45.2874C97.4253 45.2515 97.4374 45.2155 97.4495 45.1796C97.4706 45.1174 97.4916 45.0552 97.5124 44.9929L97.5696 44.8222L97.5701 44.8207C97.6176 44.6789 97.6651 44.5368 97.7141 44.3953C97.7531 44.2831 97.7935 44.1714 97.8339 44.0596L97.8829 43.9239L97.9203 43.8196C97.944 43.7533 97.9677 43.6871 97.9916 43.621C98.026 43.5255 98.0606 43.4301 98.0959 43.3348C98.1347 43.2306 98.1747 43.1273 98.2147 43.0242C98.2358 42.9696 98.2569 42.9151 98.2778 42.8606L98.3254 42.7374C98.3847 42.5834 98.444 42.4296 98.505 42.2771C98.547 42.1718 98.5906 42.0674 98.6343 41.963L98.6348 41.9618C98.6566 41.9095 98.6785 41.8572 98.7002 41.8048C98.7793 41.6125 98.8585 41.4202 98.9415 41.2288C99.001 41.0927 99.0619 40.9579 99.1231 40.8227L99.1517 40.7594L99.1524 40.7577C99.237 40.5688 99.3216 40.3799 99.409 40.1928C99.4693 40.0647 99.5314 39.9384 99.5939 39.8114L99.6353 39.7271L99.6845 39.6265C99.7584 39.4753 99.8323 39.3242 99.9087 39.1738C99.9888 39.0192 100.071 38.8655 100.153 38.7119C100.248 38.5318 100.344 38.3527 100.443 38.1746C100.518 38.0406 100.596 37.9081 100.673 37.7752L100.706 37.7193C100.807 37.5449 100.909 37.3705 101.014 37.198C101.107 37.0481 101.201 36.901 101.296 36.753C101.404 36.5833 101.513 36.4146 101.625 36.2477C101.723 36.1016 101.825 35.9574 101.927 35.8141C102.041 35.651 102.157 35.4889 102.276 35.3286C102.37 35.2019 102.467 35.0774 102.564 34.9525C102.576 34.9371 102.588 34.9217 102.6 34.9063C102.722 34.7508 102.843 34.5962 102.97 34.4444C103.084 34.3058 103.2 34.171 103.317 34.0353C103.351 33.9966 103.384 33.9574 103.416 33.9183C103.457 33.8695 103.498 33.8208 103.54 33.7732C103.54 33.7732 108.872 38.7119 106.49 52.6079C105.915 55.9616 104.734 58.618 103.275 60.7183Z" fill="#D0499A"/>
<path fill-rule="evenodd" clip-rule="evenodd" d="M69.9476 65.2369C70.4736 64.4573 70.9931 63.2422 71.4757 61.7773C72.9246 57.3835 74.0473 50.7498 74.0501 46.9424C74.0501 46.2165 74.0106 45.5934 73.9238 45.1089C73.6137 43.3781 72.6682 42.6843 70.9553 42.9228L70.5462 42.9803L66.4748 66.7791L67.0244 66.879C67.1837 66.9082 67.3355 66.9214 67.4816 66.9214C68.8089 66.9214 69.5649 65.8034 69.9476 65.2369ZM84.9258 72.1184L85.6121 69.0905L86.0825 69.0877C86.3577 69.0865 86.631 69.0797 86.9027 69.0683C87.2779 68.3641 88.0009 67.5059 88.8656 66.673C89.8359 65.6794 91.0395 64.6667 92.4757 63.7649C92.5595 63.4283 92.6441 63.0897 92.7288 62.751L92.734 62.7303L92.8155 62.4037C92.8691 62.1888 92.9227 61.974 92.9772 61.7575C93.0632 61.4133 93.1512 61.0662 93.2394 60.7183L93.3458 60.2982L93.3955 60.1014C93.4541 59.8696 93.5127 59.638 93.573 59.4036C93.7087 58.8682 93.8482 58.3271 93.9877 57.786L94.0201 57.6597L94.0607 57.5011L94.0631 57.4919C94.1033 57.3345 94.1435 57.1773 94.1847 57.0186C94.3337 56.4417 94.4855 55.8592 94.6372 55.2766L94.6873 55.0831C94.7297 54.9191 94.7721 54.7554 94.8154 54.5903C94.9879 53.9333 95.1623 53.2715 95.3376 52.6079L95.36 52.523C95.3938 52.3946 95.4273 52.2673 95.4621 52.1375C95.6798 51.3136 95.9014 50.484 96.1248 49.6507C96.2162 49.3104 96.3095 48.9663 96.4066 48.6213C96.4236 48.56 96.441 48.4987 96.4585 48.4375C96.4759 48.3762 96.4934 48.3149 96.5103 48.2536C96.5744 48.0274 96.6385 47.8012 96.7045 47.574C96.7301 47.486 96.7567 47.3974 96.7833 47.3089L96.7836 47.308C96.7991 47.2564 96.8146 47.2048 96.8299 47.1535L96.8849 46.9694C96.9294 46.82 96.9739 46.6707 97.0194 46.521C97.0276 46.4942 97.0359 46.4674 97.0443 46.4406C97.0548 46.4068 97.0655 46.3732 97.0762 46.3395L97.1044 46.2508L97.1046 46.2501L97.105 46.249L97.1053 46.2479C97.1252 46.1857 97.145 46.1234 97.1645 46.061L97.1942 45.9666C97.2473 45.7975 97.3003 45.6289 97.3559 45.4596C97.3747 45.4022 97.3939 45.3448 97.4132 45.2874C97.4253 45.2515 97.4374 45.2155 97.4495 45.1796C97.4706 45.1174 97.4916 45.0552 97.5124 44.9929L97.5696 44.8222L97.5701 44.8207C97.6176 44.6789 97.6651 44.5368 97.7141 44.3953C97.7531 44.2831 97.7935 44.1714 97.8339 44.0596L97.8829 43.9239L97.9203 43.8196C97.944 43.7533 97.9677 43.6871 97.9916 43.621C98.026 43.5255 98.0606 43.4301 98.0959 43.3348C98.1347 43.2306 98.1747 43.1273 98.2147 43.0242C98.2358 42.9696 98.2569 42.9151 98.2778 42.8606L98.3254 42.7374C98.3847 42.5834 98.444 42.4296 98.505 42.2771C98.547 42.1718 98.5906 42.0674 98.6343 41.963L98.6348 41.9618C98.6566 41.9095 98.6785 41.8572 98.7002 41.8048C98.7793 41.6125 98.8585 41.4202 98.9415 41.2288C99.001 41.0927 99.0619 40.9579 99.1231 40.8227L99.1517 40.7594L99.1524 40.7577C99.237 40.5688 99.3216 40.3799 99.409 40.1928C99.4693 40.0647 99.5314 39.9384 99.5939 39.8114L99.6353 39.7271L99.6845 39.6265C99.7584 39.4753 99.8323 39.3242 99.9087 39.1738C99.9888 39.0192 100.071 38.8655 100.153 38.7119C100.248 38.5318 100.344 38.3527 100.443 38.1746C100.518 38.0406 100.596 37.9081 100.673 37.7752L100.706 37.7193C100.807 37.5449 100.909 37.3705 101.014 37.198C101.107 37.0481 101.201 36.901 101.296 36.753C101.404 36.5833 101.513 36.4146 101.625 36.2477C101.723 36.1016 101.825 35.9574 101.927 35.8141C102.041 35.651 102.157 35.4889 102.276 35.3286C102.37 35.2019 102.467 35.0774 102.564 34.9525L102.6 34.9063C102.722 34.7508 102.843 34.5962 102.97 34.4444C103.084 34.3058 103.2 34.171 103.317 34.0353C103.351 33.9966 103.384 33.9574 103.416 33.9183C103.457 33.8695 103.498 33.8208 103.54 33.7732C102.741 32.7966 101.768 32.0029 100.639 31.4109C94.089 27.9713 81.6921 28.5375 70.7547 29.0371L70.7527 29.0372L70.7256 29.0384C63.9455 29.3472 57.5424 29.6388 52.8324 29.0268C46.673 29.5915 42.4536 33.1322 40.9481 39.0032C38.6303 48.0266 37.2147 57.8552 35.8456 67.3604L35.8435 67.3749C34.5954 76.0409 33.3049 85.001 31.3338 93.3625C30.507 100.55 33.3586 105.795 39.1608 107.754C45.2872 109.826 54.3831 107.67 59.1738 99.6012C61.6043 95.5051 62.3553 90.668 63.0816 85.9895L63.0831 85.9804C63.4083 83.882 63.7448 81.712 64.2284 79.6306L64.2624 79.4882L64.9533 78.7294L67.755 78.6738L67.6861 79.311C67.4863 81.1634 67.1121 83.1326 66.7152 85.2169L66.7147 85.2196C65.2461 92.9527 63.5817 101.717 71.1203 106.166C71.5173 104.259 71.844 101.822 72.2044 99.1324C73.4464 89.8664 75.0892 77.6092 81.3908 73.7496C82.6874 72.9555 84.9258 72.1184 84.9258 72.1184ZM88.7852 68.9135L88.7668 68.9155C88.7547 68.9168 88.7426 68.9182 88.7305 68.9196C88.7487 68.9175 88.7671 68.9155 88.7852 68.9135Z" fill="#D0499A"/>
<path d="M129.452 118.045C132.052 117.07 133.975 115.407 135.332 112.959C137.072 109.824 137.53 106.144 136.527 103.357C135.833 101.429 134.501 100.043 132.57 99.2338C132.406 99.1669 132.236 99.0999 132.06 99.0396C131.641 98.8944 130.111 98.4532 129.87 98.424L114.299 98.4259L114.773 95.1727L115.509 94.4299L115.745 94.4205C117.353 94.3573 118.976 94.3781 120.544 94.3969C122.247 94.4186 123.914 94.4393 125.547 94.3611C125.57 94.3602 125.593 94.3592 125.616 94.3573C125.86 94.346 126.103 94.3319 126.345 94.3149C126.396 94.3111 126.448 94.3064 126.5 94.3026C126.714 94.2866 126.928 94.2697 127.14 94.2499C127.21 94.2433 127.28 94.2348 127.349 94.2272C127.543 94.2074 127.737 94.1867 127.93 94.1631C128.014 94.1528 128.097 94.1405 128.181 94.1292C128.359 94.1047 128.536 94.0811 128.714 94.0528C128.808 94.0378 128.904 94.0208 128.998 94.0048C129.163 93.9765 129.328 93.9482 129.492 93.9162C129.596 93.8964 129.699 93.8737 129.803 93.8521C129.958 93.8191 130.112 93.787 130.266 93.7512C130.376 93.7248 130.485 93.6965 130.595 93.6682C130.741 93.6315 130.888 93.5947 131.035 93.5532C131.149 93.5212 131.263 93.4863 131.377 93.4524C131.517 93.4099 131.658 93.3675 131.798 93.3213C131.915 93.2836 132.032 93.2421 132.149 93.2007C132.285 93.1526 132.422 93.1045 132.557 93.0527C132.676 93.0074 132.795 92.9593 132.914 92.9103C133 92.8754 133.086 92.8387 133.172 92.8028C133.195 92.669 133.217 92.538 133.241 92.406C133.271 92.2278 133.302 92.0487 133.332 91.8734C133.367 91.6792 133.401 91.4878 133.435 91.2955C133.463 91.1343 133.491 90.9712 133.521 90.8119C133.557 90.6074 133.594 90.4056 133.63 90.2039C133.655 90.0634 133.681 89.923 133.706 89.7844C133.747 89.5657 133.787 89.3498 133.827 89.134C133.849 89.0124 133.872 88.8889 133.895 88.7682C133.936 88.5486 133.978 88.3308 134.019 88.114C134.041 88.0009 134.063 87.8859 134.084 87.7727C134.128 87.5474 134.172 87.324 134.215 87.1025C134.235 87.0016 134.255 86.8998 134.274 86.7999C134.32 86.5708 134.365 86.3436 134.411 86.1174C134.429 86.0269 134.448 85.9336 134.466 85.8431C134.513 85.6112 134.561 85.3821 134.608 85.154C134.625 85.072 134.642 84.989 134.659 84.907C134.709 84.6676 134.76 84.43 134.81 84.1934C134.825 84.1255 134.839 84.0567 134.853 83.9898C134.905 83.7485 134.958 83.5109 135.009 83.2733C135.01 83.2717 135.01 83.2701 135.01 83.2684C135.024 83.2069 135.037 83.1454 135.05 83.0848C135.104 82.8407 135.158 82.5984 135.213 82.358C135.215 82.3487 135.217 82.3394 135.219 82.33C135.229 82.2863 135.239 82.242 135.249 82.1978C135.304 81.9545 135.359 81.7142 135.415 81.4747C135.426 81.4248 135.438 81.3729 135.45 81.323C135.507 81.0797 135.564 80.8384 135.621 80.598C135.632 80.5537 135.643 80.5085 135.654 80.4632C135.716 80.2049 135.778 79.9485 135.841 79.6931C135.847 79.6724 135.852 79.6511 135.857 79.6302C135.857 79.6263 135.858 79.6225 135.859 79.6186C135.923 79.3631 135.986 79.1105 136.049 78.8588C136.056 78.8333 136.062 78.807 136.069 78.7815C136.139 78.5053 136.209 78.231 136.28 77.9576C136.383 77.5673 136.496 77.1808 136.618 76.7981C136.658 76.6737 136.704 76.553 136.745 76.4305C136.832 76.1722 136.919 75.9148 137.016 75.6612C137.071 75.5151 137.132 75.3737 137.191 75.2295C137.283 75.0023 137.373 74.7742 137.473 74.5508C137.54 74.399 137.613 74.2501 137.684 74.1002C137.689 74.0904 137.693 74.0806 137.698 74.0707C137.792 73.8703 137.886 73.6692 137.986 73.4724C138.064 73.3187 138.149 73.1679 138.23 73.0161C138.337 72.8191 138.443 72.6211 138.555 72.4279C138.644 72.2752 138.737 72.1262 138.83 71.9754C138.944 71.7887 139.058 71.6021 139.178 71.4201C139.276 71.2703 139.379 71.1251 139.48 70.978C139.602 70.8018 139.725 70.6264 139.851 70.4539C139.959 70.3087 140.07 70.1673 140.181 70.0259C140.264 69.9194 140.343 69.8091 140.428 69.7045C138.588 67.3346 135.79 65.8772 132.307 65.4794C127.569 65.815 122.878 65.6293 118.34 65.4483C115.807 65.3474 113.322 65.2485 110.928 65.2485C106.27 65.2485 101.955 65.6227 98.2939 67.0867C92.1874 69.5291 88.4956 74.7846 86.6736 83.6259C85.1557 90.9863 83.8952 98.5371 82.6766 105.839C81.4824 112.991 80.2473 120.387 78.7704 127.609C78.123 131.951 79.0024 135.895 81.2514 138.688C83.1368 141.028 85.9502 142.449 89.3876 142.796C90.2036 142.881 91.7273 142.881 92.5851 142.796C97.9381 142.279 103.236 139.031 106.083 134.518C108.328 130.96 109.039 127.16 109.791 123.137C109.997 122.03 110.212 120.887 110.46 119.745L110.548 119.337L110.978 119.299C113.091 119.112 115.395 119.154 117.624 119.197C121.731 119.274 125.976 119.354 129.451 118.045H129.452Z" fill="white"/>
<path d="M133.172 92.8028C133.195 92.669 133.217 92.538 133.241 92.406C133.271 92.2278 133.302 92.0487 133.332 91.8734C133.367 91.6792 133.401 91.4878 133.435 91.2955C133.463 91.1343 133.491 90.9712 133.521 90.8119C133.557 90.6074 133.594 90.4056 133.63 90.2039C133.655 90.0634 133.681 89.923 133.706 89.7844C133.747 89.5657 133.787 89.3498 133.827 89.134C133.849 89.0124 133.872 88.8889 133.895 88.7682C133.936 88.5486 133.978 88.3308 134.019 88.114C134.041 88.0009 134.063 87.8859 134.084 87.7727C134.128 87.5474 134.172 87.324 134.215 87.1025C134.235 87.0016 134.255 86.8998 134.274 86.7999C134.32 86.5708 134.365 86.3436 134.411 86.1174C134.429 86.0269 134.448 85.9336 134.466 85.8431C134.513 85.6112 134.561 85.3821 134.608 85.154C134.625 85.072 134.642 84.989 134.659 84.907C134.709 84.6676 134.76 84.43 134.81 84.1934C134.825 84.1255 134.839 84.0567 134.853 83.9898C134.905 83.7485 134.958 83.5109 135.009 83.2733L135.01 83.2684C135.024 83.2069 135.037 83.1454 135.05 83.0848C135.104 82.8407 135.158 82.5984 135.213 82.358L135.219 82.33C135.229 82.2863 135.239 82.242 135.249 82.1978C135.304 81.9545 135.359 81.7142 135.415 81.4747C135.426 81.4248 135.438 81.3729 135.45 81.323C135.507 81.0797 135.564 80.8384 135.621 80.598C135.632 80.5537 135.643 80.5085 135.654 80.4632C135.716 80.2049 135.778 79.9485 135.841 79.6931C135.847 79.6724 135.852 79.6511 135.857 79.6302L135.859 79.6186C135.923 79.3631 135.986 79.1105 136.049 78.8588C136.056 78.8333 136.062 78.807 136.069 78.7815C136.139 78.5053 136.209 78.231 136.28 77.9576C136.383 77.5673 136.496 77.1808 136.618 76.7981C136.658 76.6737 136.704 76.553 136.745 76.4305C136.832 76.1722 136.919 75.9148 137.016 75.6612C137.071 75.5151 137.132 75.3737 137.191 75.2295C137.283 75.0023 137.373 74.7742 137.473 74.5508C137.54 74.399 137.613 74.2501 137.684 74.1002L137.698 74.0707C137.792 73.8703 137.886 73.6692 137.986 73.4724C138.064 73.3187 138.149 73.1679 138.23 73.0161C138.337 72.8191 138.443 72.6211 138.555 72.4279C138.644 72.2752 138.737 72.1262 138.83 71.9754C138.944 71.7887 139.058 71.6021 139.178 71.4201C139.276 71.2703 139.379 71.1251 139.48 70.978C139.602 70.8018 139.725 70.6264 139.851 70.4539C139.959 70.3087 140.07 70.1673 140.181 70.0259C140.264 69.9194 140.343 69.8091 140.428 69.7045C140.428 69.7045 143.187 72.4279 141.807 80.598C140.428 88.7682 133.172 92.8028 133.172 92.8028Z" fill="white"/>
</svg>
