<svg width="24" height="24" viewBox="0 0 24 24" fill="none" xmlns="http://www.w3.org/2000/svg">
<path d="M12 22.5C6.21031 22.5 1.5 17.7897 1.5 12.0001C1.5 6.21021 6.21031 1.5 12 1.5C17.7897 1.5 22.5 6.21021 22.5 12.0001C22.5 17.7897 17.7897 22.5 12 22.5ZM12 0C5.38319 0 0 5.38309 0 12.0001C0 18.6169 5.38319 24 12 24C18.6168 24 24 18.6169 24 12.0001C24 5.38309 18.6168 0 12 0Z" fill="#D04A9B" fill-opacity="0.3"/>
<path d="M9.48707 9.4955H9.09937C8.82034 9.4955 8.59431 9.26932 8.59431 8.99029V8.88536C8.59431 8.60741 8.81894 8.38154 9.09704 8.3803C9.26803 8.37952 9.41882 8.37952 9.48707 8.37952C10.0039 8.37952 10.4621 8.42646 10.4621 8.93743C10.4563 9.44265 10.0039 9.4955 9.48707 9.4955ZM18.6064 10.2676H11.6606C11.6265 10.2563 11.6017 10.2257 11.6017 10.188C11.6017 10.1431 11.6365 10.1061 11.6814 10.103C12.0424 10.0783 13.5062 9.87387 13.5165 8.17976C13.5283 6.03577 11.8249 5.79498 9.72195 5.79498H5.50457C5.22569 5.79498 4.99951 6.02116 4.99951 6.3002V13.2254C4.99951 13.5044 5.22569 13.7306 5.50457 13.7306H8.0891C8.36813 13.7306 8.59431 13.5044 8.59431 13.2254V11.8921C8.59431 11.6131 8.82034 11.3869 9.09937 11.3869C9.64563 11.3987 9.76905 11.5044 10.0568 12.5323C10.1634 12.9032 10.2362 13.167 10.2853 13.3505C10.3444 13.5716 10.5443 13.7247 10.7731 13.7247H11.102V17.8097C11.102 18.027 11.2782 18.2031 11.4956 18.2031H14.3032C14.5206 18.2031 14.6968 18.027 14.6968 17.8097V16.1885C14.6968 15.9712 14.873 15.7949 15.0903 15.7949H17.8739C18.0892 15.7949 18.2644 15.622 18.2674 15.4067L18.286 14.0381C18.2892 13.8188 18.1121 13.6392 17.8926 13.6392H15.0903C14.873 13.6392 14.6968 13.4631 14.6968 13.2456C14.6968 13.0283 14.873 12.8522 15.0903 12.8522H18.5697C18.784 12.8522 18.9588 12.6807 18.9632 12.4667L18.9999 10.6692C19.0044 10.4487 18.827 10.2676 18.6064 10.2676Z" fill="white"/>
</svg>
