<svg width="263" height="263" viewBox="0 0 263 263" fill="none" xmlns="http://www.w3.org/2000/svg">
<path d="M131.333 235.369C73.968 235.369 27.2973 188.698 27.2973 131.334C27.2973 73.9674 73.968 27.298 131.333 27.298C188.699 27.298 235.369 73.9674 235.369 131.334C235.369 188.698 188.699 235.369 131.333 235.369ZM131.333 0.000707388C58.916 0.000707388 0 58.9154 0 131.334C0 203.751 58.916 262.666 131.333 262.666C203.751 262.666 262.667 203.751 262.667 131.334C262.667 58.9154 203.751 0.000707388 131.333 0.000707388Z" fill="#D04A9B"/>
<path d="M109.782 109.86H106.456C104.063 109.86 102.124 107.92 102.124 105.527V104.627C102.124 102.243 104.051 100.306 106.436 100.295C107.903 100.288 109.196 100.288 109.782 100.288C114.215 100.288 118.144 100.691 118.144 105.074C118.095 109.407 114.215 109.86 109.782 109.86ZM188 116.483H128.424C128.132 116.386 127.919 116.123 127.919 115.8C127.919 115.415 128.218 115.098 128.603 115.071C131.699 114.859 144.255 113.106 144.343 98.5749C144.444 80.1855 129.834 78.1202 111.796 78.1202H75.623C73.231 78.1202 71.291 80.0602 71.291 82.4535V141.852C71.291 144.246 73.231 146.186 75.623 146.186H97.791C100.184 146.186 102.124 144.246 102.124 141.852V130.416C102.124 128.023 104.063 126.083 106.456 126.083C111.142 126.184 112.2 127.091 114.668 135.907C115.583 139.088 116.207 141.351 116.628 142.926C117.135 144.822 118.85 146.135 120.812 146.135H123.634V181.172C123.634 183.036 125.144 184.547 127.01 184.547H151.091C152.955 184.547 154.467 183.036 154.467 181.172V167.267C154.467 165.403 155.978 163.891 157.842 163.891H181.718C183.564 163.891 185.067 162.408 185.092 160.562L185.252 148.823C185.279 146.942 183.76 145.402 181.878 145.402H157.842C155.978 145.402 154.467 143.891 154.467 142.026C154.467 140.162 155.978 138.651 157.842 138.651H187.686C189.523 138.651 191.023 137.18 191.06 135.344L191.375 119.927C191.414 118.036 189.892 116.483 188 116.483Z" fill="#D04A9B"/>
</svg>
