<svg width="884" height="512" viewBox="0 0 884 512" fill="none" xmlns="http://www.w3.org/2000/svg">
<path fill-rule="evenodd" clip-rule="evenodd" d="M557.969 153.612C558.191 152.283 558.419 150.931 558.647 149.585L558.701 149.268L559.189 146.366L559.881 142.36L559.954 141.942L559.957 141.921L559.965 141.877C560.136 140.887 560.305 139.901 560.481 138.899C560.641 137.98 560.804 137.056 560.97 136.127L561.818 131.33C561.988 130.379 562.161 129.421 562.336 128.457L562.733 126.263C562.894 125.361 563.059 124.454 563.226 123.542C563.395 122.606 563.571 121.658 563.746 120.711L563.755 120.659L563.876 119.999L564.039 119.119L564.063 118.989V118.984L564.692 115.578C564.881 114.56 565.077 113.523 565.269 112.496C565.579 110.83 565.892 109.165 566.208 107.501L567.782 99.2632L568.115 97.5507L568.232 96.9434L568.722 94.4254C569.07 92.6269 569.422 90.8293 569.778 89.0325L569.951 88.1572C570.326 86.2464 570.704 84.3294 571.091 82.3917L571.149 82.0936L571.224 81.7241L571.341 81.1326L571.349 81.0962L571.395 80.8631L571.504 80.316L572.826 73.7323L573.182 71.9896C574.259 66.6626 575.351 61.3385 576.457 56.0171C576.939 53.6925 577.459 51.4631 578.015 49.3034C578.131 48.8562 578.255 48.4281 578.38 48V47.9968C578.458 47.7336 578.535 47.4672 578.61 47.1976L578.664 47.0026L578.665 46.9978C579.031 45.6659 579.396 44.3371 579.796 43.0717C579.965 42.5357 580.144 42.022 580.325 41.5082L580.595 40.7376L580.707 40.4046C581.067 39.3501 581.425 38.2972 581.812 37.2935C582.028 36.7274 582.256 36.1851 582.486 35.6444L582.489 35.6349L582.492 35.6285L582.494 35.6254L582.759 34.9927C583.185 33.962 583.615 32.9313 584.07 31.9482C584.339 31.3678 584.621 30.8081 584.905 30.2515V30.2483L584.907 30.2467L584.924 30.2119L585.013 30.0359L585.154 29.7584C585.62 28.8292 586.089 27.9063 586.584 27.0199C586.952 26.3603 587.339 25.7244 587.724 25.0885L587.729 25.079L587.798 24.9649C588.307 24.1245 588.826 23.2904 589.361 22.4865C589.801 21.8374 590.25 21.1999 590.709 20.5741C591.712 19.1901 592.774 17.8505 593.894 16.5592C594.023 16.4091 594.15 16.2563 594.274 16.1009C594.338 16.0206 594.402 15.9424 594.466 15.8663C594.559 15.7534 594.654 15.6424 594.752 15.5333C584.972 7.91727 571.008 6.20316 559.709 5.58633C537.864 4.39073 514.944 4.95841 492.783 5.51022L492.587 5.51498C474.287 5.96689 455.372 6.43467 437.138 5.90505C426.933 6.97697 418.162 11.1489 411.766 17.9673C410.929 18.8616 410.171 19.8225 409.425 20.7961C406.503 24.6097 404.246 29.0068 402.758 33.9699C399.252 55.5446 395.136 77.4237 391.154 98.5862L391.152 98.5909V98.5973L391.151 98.5988L391.148 98.621C383.765 137.867 376.133 178.447 372.1 218.638C373.064 228.102 376.404 235.833 382.03 241.614C389.052 248.848 399.418 252.742 411.281 252.412C426.462 252.065 441.456 245.16 451.392 233.939C463.447 220.325 466.666 202.713 469.507 187.171V187.168L469.847 185.307L471.735 185.161C481.394 184.416 491.577 184.617 501.426 184.81H501.428L501.483 184.812C519.452 185.17 538.014 185.537 553.787 180.15L554.074 178.246L554.077 178.224C554.758 173.766 555.429 169.306 556.141 164.853L556.799 160.741L557.278 157.817L557.282 157.789L557.969 153.612ZM500.066 120.004C500.887 117.65 501.623 115.267 502.273 112.86C506.442 97.6696 510.036 75.1832 509.096 68.1761V68.1698C508.419 63.1907 505.553 58.9887 501.794 57.4569C498.681 56.1884 495.294 56.7957 492.263 59.1615L491.521 59.7387L478.521 132.929L481.044 133.284C482.19 133.445 483.279 133.525 484.309 133.527C489.864 133.527 493.877 131.159 497.349 125.977C497.874 125.195 498.413 124.138 498.963 122.853C499.326 122 499.695 121.046 500.066 120.004Z" fill="black"/>
<path fill-rule="evenodd" clip-rule="evenodd" d="M374.391 239.973C374.788 240.558 375.215 241.121 375.645 241.681L375.903 242.025L375.984 242.134C376.06 242.237 376.137 242.338 376.215 242.439L376.35 242.608L376.421 242.702L376.461 242.756L376.502 242.808C354.225 256.117 318.687 256.624 303.742 236.887C293.455 223.292 296.475 205.489 299.397 188.275L299.408 188.209C300.579 181.292 301.684 174.762 301.976 168.468L302.015 167.603L301.503 166.905L301.499 166.897C301.105 166.359 299.913 164.729 293.504 164.847C287.564 164.907 286.509 166.41 286.113 166.976L285.777 167.45L285.693 168.024C280.696 201.639 275.032 239.745 234.301 249.867C215.915 254.437 200.232 252.855 189.661 245.447C189.781 245.364 189.898 245.279 190.012 245.191L190.061 245.152L190.153 245.082L190.4 244.901C190.915 244.535 191.416 244.156 191.921 243.775L191.922 243.774L192.078 243.655C192.832 243.084 193.579 242.505 194.302 241.904C194.846 241.457 195.373 240.997 195.898 240.534C196.592 239.924 197.268 239.301 197.929 238.663C198.433 238.179 198.928 237.688 199.413 237.19C200.046 236.535 200.663 235.866 201.263 235.186C201.721 234.672 202.178 234.157 202.617 233.627C203.2 232.921 203.757 232.198 204.307 231.469L204.549 231.15C204.873 230.724 205.198 230.299 205.505 229.863C206.041 229.101 206.539 228.318 207.037 227.532L207.038 227.53L207.041 227.525L207.062 227.492L207.366 227.019L207.376 227.005L207.378 227.002C207.615 226.641 207.846 226.274 208.069 225.902C208.601 225.004 209.083 224.078 209.565 223.152C209.615 223.056 209.666 222.96 209.718 222.865L209.859 222.608C210.011 222.327 210.165 222.047 210.306 221.76C210.994 220.35 211.626 218.91 212.202 217.44C216.631 206.109 221.704 171.239 219.851 159.352C219.732 158.587 219.578 157.827 219.39 157.075C219.352 156.93 219.31 156.787 219.264 156.644L219.18 156.374C219.047 155.878 218.897 155.387 218.73 154.901C218.677 154.754 218.619 154.608 218.557 154.464L218.518 154.37C218.475 154.275 218.435 154.179 218.397 154.082L218.312 153.868C218.172 153.519 218.033 153.17 217.872 152.831C217.784 152.646 217.689 152.464 217.589 152.285L217.433 151.993L217.392 151.914C217.207 151.56 217.023 151.207 216.818 150.861C216.695 150.661 216.567 150.465 216.435 150.271L216.374 150.182L216.322 150.103L216.233 149.972L216.232 149.968C216.016 149.642 215.802 149.315 215.566 149.001C215.413 148.796 215.254 148.595 215.09 148.399H215.089L214.928 148.2L214.843 148.096C214.611 147.805 214.372 147.521 214.125 147.244C213.934 147.036 213.739 146.831 213.538 146.629L213.389 146.477L213.327 146.413C213.055 146.134 212.776 145.861 212.49 145.595C212.265 145.387 212.027 145.184 211.791 144.981L211.658 144.867C211.334 144.589 211.004 144.318 210.667 144.055C210.365 143.823 210.055 143.594 209.738 143.37C209.057 142.878 208.354 142.415 207.631 141.984C206.884 141.533 206.121 141.11 205.342 140.716C204.923 140.502 204.499 140.296 204.072 140.098C203.229 139.703 202.373 139.339 201.504 139.005C200.597 138.646 199.678 138.318 198.749 138.022L198.687 138.001C198.254 137.86 197.819 137.723 197.382 137.592C196.865 137.438 196.336 137.297 195.803 137.155L195.738 137.139L195.724 137.134C195.277 137.013 194.831 136.896 194.372 136.783C193.803 136.65 193.233 136.523 192.661 136.403L192.273 136.319C191.916 136.242 191.555 136.167 191.188 136.094L191.017 136.057C190.94 136.04 190.862 136.024 190.784 136.01L192.399 129.28C196.68 111.578 201.507 92.6795 206.756 73.0901C209.199 63.9756 211.732 56.1947 214.478 49.4731C219.057 38.2718 224.238 30.0184 230.614 23.468C240.814 12.9819 254.259 7.23068 271.723 5.89237C302.813 3.52971 346.937 3.94992 374.457 5.58633C388.782 6.4426 399.317 9.99451 406.57 16.4323C406.385 16.6603 406.208 16.8946 406.04 17.1348L406.037 17.1364C405.913 17.3119 405.785 17.4852 405.653 17.6565C405.247 18.1829 404.846 18.7078 404.464 19.2533C403.89 20.0683 403.361 20.9182 402.841 21.7777L402.554 22.2502C402.321 22.6323 402.088 23.0145 401.871 23.4109C401.344 24.3964 400.854 25.4008 400.401 26.4221C400.313 26.6156 400.224 26.8069 400.132 26.9961C399.987 27.2958 399.845 27.5955 399.716 27.9063C399.074 29.4603 398.494 31.0586 398.002 32.7204L397.933 33.0249C394.429 54.5948 390.31 76.5041 386.323 97.6934C378.904 137.126 371.233 177.903 367.187 218.392L367.161 218.633L367.187 218.874C367.313 220.143 367.477 221.386 367.68 222.6C367.724 222.854 367.772 223.104 367.824 223.35V223.358L367.826 223.36L367.913 223.796C368.065 224.595 368.219 225.393 368.404 226.168C368.457 226.38 368.512 226.591 368.569 226.799L368.769 227.525C368.956 228.215 369.149 228.902 369.365 229.571C369.498 229.993 369.647 230.406 369.795 230.819L369.841 230.944C370.066 231.578 370.304 232.201 370.554 232.814C370.741 233.264 370.935 233.708 371.134 234.147C371.405 234.741 371.689 235.325 371.986 235.898C372.493 236.907 373.054 237.889 373.666 238.839L373.734 238.947L373.814 239.075C374.002 239.377 374.194 239.676 374.391 239.973ZM184.836 242.716C184.734 242.782 184.633 242.851 184.533 242.921C184.409 243.008 184.283 243.092 184.154 243.173L184.148 243.178C165.339 254.813 141.87 255.662 124.357 245.331C101.233 231.673 106.162 205.719 110.929 180.615L110.936 180.572L110.937 180.564C112.174 174.058 113.339 167.91 113.965 162.115L114.268 159.335L104.452 159.538L101.953 162.24L101.806 162.874C100.303 169.363 99.2532 176.118 98.2386 182.646L98.2307 182.697C95.9684 197.283 93.6285 212.365 86.0871 225.064C71.8571 249.054 43.5637 256.697 24.4209 250.234C6.64298 244.23 -2.09537 228.129 0.426894 206.051C6.57481 179.96 10.5984 152.023 14.4919 125L14.5078 124.881C18.785 95.1817 23.2065 64.4688 30.4435 36.2898C35.0695 18.2828 48.0058 7.41144 66.8855 5.6561C81.6719 7.57001 101.698 6.65508 122.895 5.68782H122.913C156.977 4.13385 195.584 2.37217 215.88 13.0231C219.765 15.0587 223.129 17.9628 225.71 21.5097C225.595 21.6365 225.483 21.7655 225.374 21.8966C225.294 21.9917 225.212 22.0869 225.129 22.182C224.764 22.5911 224.406 23.005 224.054 23.4236C223.278 24.3387 222.527 25.2746 221.802 26.2302C221.411 26.744 221.027 27.2641 220.648 27.7905C220.325 28.2409 220.006 28.6944 219.691 29.151C218.646 30.6744 217.653 32.2324 216.714 33.8224L216.712 33.8272C216.429 34.305 216.148 34.786 215.87 35.2702C215.28 36.3216 214.705 37.3814 214.145 38.4494C213.849 39.0235 213.559 39.6006 213.273 40.181L213.115 40.4997L213.112 40.5076C212.917 40.8998 212.725 41.2947 212.535 41.6921C212.259 42.2768 211.988 42.8635 211.721 43.4522L211.583 43.7567C211.395 44.1669 211.211 44.577 211.03 44.9872C210.771 45.5825 210.517 46.1803 210.269 46.7806L210.158 47.0422C209.979 47.4661 209.802 47.8932 209.627 48.3203C209.418 48.8383 209.213 49.3594 209.014 49.8837L208.736 50.5957L208.733 50.6005C208.592 50.962 208.453 51.323 208.316 51.6835C208.088 52.2966 207.864 52.9113 207.644 53.5276L207.642 53.534L207.457 54.0461L207.454 54.0557L207.091 55.0689C206.873 55.6915 206.66 56.3142 206.453 56.9368L206.263 57.5045C206.154 57.8216 206.048 58.1377 205.944 58.4527C205.765 59.0045 205.589 59.5553 205.417 60.105L205.206 60.7742L205.202 60.7805L205.125 61.0279L205.015 61.3688L204.868 61.8382L204.413 63.3461V63.3509L204.288 63.7695L204.167 64.1691L203.858 65.2061C203.72 65.6818 203.583 66.157 203.449 66.6316V66.6348L203.444 66.6507L203.395 66.8219L203.286 67.2104L203.123 67.7813C203.049 68.035 202.977 68.2881 202.907 68.5408C202.604 69.6326 202.305 70.7257 202.011 71.82C200.706 76.6901 199.428 81.5143 198.176 86.2924C197.873 87.4553 197.574 88.6091 197.279 89.754L196.058 94.4682L196.054 94.4824L196.052 94.4888L196.041 94.53L196.031 94.5712C195.516 96.5565 195.001 98.5402 194.5 100.495C194.14 101.902 193.793 103.286 193.446 104.672L193.444 104.677L193.435 104.71L192.937 106.694L192.558 108.187C192.035 110.244 191.516 112.303 191.003 114.362C190.49 116.431 189.98 118.501 189.474 120.572L188.932 122.768C188.572 124.23 188.211 125.692 187.864 127.124C187.154 127.317 186.441 127.498 185.725 127.667C185.25 127.786 184.773 127.897 184.295 128C183.477 128.17 182.642 128.308 181.806 128.444L181.652 128.471L181.09 128.567L181.086 128.568C180.693 128.638 180.299 128.706 179.899 128.76C178.902 128.898 177.887 128.99 176.871 129.083H176.868C176.661 129.104 176.455 129.125 176.25 129.147H176.245C175.957 129.18 175.667 129.207 175.374 129.229C173.845 129.337 172.299 129.395 170.736 129.404L168.684 129.413L166.858 139.7L169.583 139.888C171.752 140.045 173.986 139.955 176.154 139.868L176.297 139.861C178.72 139.76 181.006 139.674 183.13 139.883C184.526 140.019 185.951 140.199 187.404 140.423L187.498 140.438C198.955 142.195 212.985 147.035 214.995 160.109C216.72 171.177 211.774 205.042 207.625 215.655C207.078 217.057 206.472 218.436 205.81 219.787C201.834 227.882 195.817 234.934 188.132 240.512C187.071 241.283 185.958 242.006 184.836 242.718M702.793 5.58475C719.588 6.86914 737.813 6.1873 755.442 5.52925C819.207 3.14439 879.433 0.892735 883.994 83.9171L884 97.8266C879.124 167.599 847.187 243.842 772.171 248.577C752.495 249.826 731.761 249.271 711.708 248.734H711.663C700.541 248.437 689.187 248.136 677.91 248.136C670.849 248.136 663.82 248.252 656.897 248.567C649.927 247.911 644.043 245.613 639.865 241.917L639.846 241.901C634.247 236.97 631.695 229.636 632.436 220.902L664.844 35.6428C665.319 34.0164 665.873 32.414 666.504 30.8414C669.666 22.8401 674.518 16.621 681.019 12.3588C686.959 8.44055 694.283 6.16193 702.793 5.58475ZM632.367 240.82C632.798 241.441 633.272 242.033 633.759 242.616L633.866 242.751L633.908 242.803L633.941 242.846L633.977 242.894L633.981 242.897C634.085 243.032 634.188 243.166 634.304 243.295L634.355 243.358L634.371 243.379L634.38 243.392L634.405 243.422C631.937 245.045 629.358 246.493 626.688 247.757C620.429 250.722 614.139 252.032 607.48 253.418L607.464 253.421L606.68 253.584C605.707 253.785 604.727 253.993 603.739 254.209C601.9 254.095 600.02 254.169 598.19 254.241L597.962 254.249L597.941 254.25C595.812 254.339 593.802 254.422 591.966 254.236C579.041 252.914 569.397 248.336 563.303 240.644C556.119 231.567 553.633 218.048 555.914 200.459C556.703 194.408 557.543 188.363 558.433 182.326C563.505 147.707 571.186 105.547 581.267 57.0145C581.903 53.9883 582.643 50.9848 583.486 48.0095C584.972 42.7054 586.681 37.8913 588.692 33.6163C588.841 33.296 589.003 32.9947 589.165 32.6934C589.278 32.4862 589.389 32.2748 589.498 32.0592L589.652 31.7531L589.75 31.5549L589.751 31.5518C590.203 30.6479 590.653 29.7425 591.139 28.8926C593.713 24.3766 596.671 20.4726 600.064 17.0793C606.24 10.9174 613.856 6.36966 623.343 3.18403L637.991 0H649.656C651.44 0.428132 653.227 0.769052 655.004 1.10997C658.802 1.83938 662.391 2.52915 665.854 4.02603C669.695 5.6894 673.024 7.70797 675.789 10.0516C675.729 10.0981 675.671 10.1467 675.616 10.1975C675.564 10.2429 675.512 10.2873 675.459 10.3307C675.175 10.5527 674.903 10.7873 674.632 11.0204L674.627 11.0236L674.617 11.0331L674.324 11.2837C673.753 11.7673 673.186 12.2589 672.64 12.7726C672.312 13.0866 671.994 13.4132 671.675 13.7399L671.54 13.8778C671.032 14.3958 670.536 14.9281 670.052 15.4746C669.703 15.8763 669.359 16.2854 669.02 16.7019C668.561 17.2692 668.117 17.8482 667.688 18.4382C667.368 18.8749 667.056 19.3174 666.753 19.7654C666.336 20.3854 665.941 21.0245 665.551 21.6682L665.481 21.784L665.158 22.3231C665.01 22.5709 664.865 22.821 664.725 23.0732C664.343 23.7724 663.977 24.4809 663.629 25.198L663.514 25.4326L663.43 25.5991C663.262 25.9353 663.094 26.2699 662.937 26.6156C662.57 27.4416 662.225 28.277 661.901 29.1209L661.703 29.6093L661.702 29.6125C661.592 29.8725 661.488 30.1347 661.389 30.399C660.906 31.7222 660.47 33.0625 660.083 34.4171L627.569 220.269C627.465 221.49 627.417 222.715 627.425 223.94C627.425 224.187 627.44 224.428 627.452 224.67L627.474 225.082C627.501 225.881 627.538 226.677 627.615 227.451C627.649 227.767 627.691 228.079 627.741 228.386L627.793 228.748C627.89 229.441 627.998 230.127 628.14 230.798C628.231 231.237 628.34 231.669 628.451 232.098C628.719 233.157 629.048 234.198 629.435 235.219C629.665 235.82 629.922 236.405 630.19 236.982L630.236 237.081C630.399 237.433 630.564 237.783 630.743 238.126C631.076 238.745 631.433 239.351 631.813 239.943L631.901 240.084L631.913 240.106L631.918 240.112L631.931 240.135C632.069 240.367 632.215 240.595 632.367 240.82ZM322.363 490.59C322.621 491.219 322.893 491.839 323.18 492.45C323.431 492.981 323.693 493.504 323.966 494.02C324.036 494.151 324.102 494.284 324.164 494.418C324.243 494.586 324.327 494.751 324.415 494.911C320.168 499.132 315.12 502.603 309.038 505.488C302.864 508.418 296.657 509.703 290.089 511.061L290.034 511.073C288.931 511.299 287.818 511.531 286.693 511.769C284.878 511.664 283.018 511.742 281.221 511.818L281.17 511.819L281.013 511.826H281.007C278.944 511.908 276.997 511.986 275.212 511.799C262.641 510.514 253.265 506.071 247.337 498.593C240.343 489.766 237.919 476.6 240.132 459.467C241.002 452.74 241.941 446.022 242.948 439.314C243.193 439.226 243.433 439.13 243.667 439.029C243.828 438.962 243.99 438.897 244.154 438.832L244.267 438.788H244.27C244.774 438.593 245.278 438.399 245.765 438.187C246.399 437.914 247.009 437.618 247.618 437.318L247.846 437.205C248.279 436.993 248.713 436.779 249.132 436.551C249.72 436.227 250.286 435.877 250.85 435.525L251.069 435.391L251.072 435.39C251.47 435.146 251.868 434.901 252.25 434.641C252.751 434.299 253.232 433.929 253.712 433.558L253.861 433.444L254.048 433.302L254.177 433.205L254.184 433.198L254.188 433.195L254.322 433.094L254.468 432.983C254.694 432.813 254.915 432.638 255.129 432.458C255.583 432.074 256.014 431.665 256.445 431.256L256.653 431.059L256.765 430.955L256.902 430.826L257.021 430.717C257.276 430.481 257.531 430.244 257.775 429.992C258.214 429.542 258.628 429.058 259.042 428.576L259.24 428.345L259.31 428.265L259.394 428.17L259.562 427.983C259.778 427.742 259.993 427.501 260.196 427.244C260.687 426.627 261.147 425.969 261.607 425.311V425.308L261.68 425.205C261.775 425.07 261.872 424.936 261.972 424.804C262.117 424.61 262.258 424.412 262.393 424.208C263.091 423.147 263.752 422.037 264.377 420.878C270.371 409.715 271.764 396.604 268.015 386.66C267.689 385.806 267.321 384.967 266.915 384.147C266.83 383.98 266.74 383.816 266.645 383.654V383.651L266.464 383.331L266.428 383.264C266.171 382.774 265.897 382.292 265.607 381.821C265.448 381.569 265.277 381.329 265.106 381.088L264.93 380.841L264.857 380.735C264.616 380.381 264.366 380.034 264.105 379.695C263.857 379.384 263.601 379.08 263.338 378.783L263.211 378.64L263.156 378.575C262.916 378.302 262.679 378.031 262.428 377.771C262.067 377.397 261.689 377.042 261.306 376.69L260.963 376.379L260.577 376.041C259.48 375.123 258.311 374.293 257.082 373.56C256.813 373.401 256.539 373.247 256.261 373.098L256.195 373.062C255.705 372.792 255.208 372.538 254.703 372.299L254.643 372.267L254.638 372.264L254.57 372.228L254.524 372.204L254.435 372.161C255.324 367.367 256.235 362.576 257.166 357.79L257.179 357.723C259.716 344.742 262.295 331.945 264.838 319.693C267.866 305.128 272.983 293.274 280.048 284.464L280.065 284.44C289.564 272.568 303.022 265.748 319.846 264.177H331.444C333.132 264.581 334.824 264.906 336.508 265.231H336.512L336.592 265.247C340.312 265.962 343.825 266.638 347.226 268.106C352.732 270.475 357.017 273.486 360.253 277.279L360.088 277.457L359.939 277.617C359.685 277.879 359.437 278.146 359.195 278.419L359.079 278.546C358.677 278.981 358.285 279.426 357.905 279.88C357.623 280.218 357.346 280.562 357.076 280.913C356.718 281.369 356.369 281.835 356.028 282.31C355.766 282.678 355.509 283.05 355.259 283.427C354.933 283.914 354.618 284.41 354.314 284.916C354.075 285.303 353.843 285.694 353.616 286.091C353.32 286.619 353.034 287.157 352.756 287.705L352.637 287.935C352.47 288.255 352.306 288.58 352.147 288.91C351.869 289.49 351.613 290.09 351.356 290.689C351.306 290.806 351.256 290.922 351.205 291.036L351.037 291.422C350.973 291.574 350.909 291.727 350.847 291.882C350.579 292.56 350.333 293.261 350.091 293.962L350 294.211L349.956 294.336L349.907 294.471L349.867 294.58L349.824 294.699L349.72 295.007C349.368 296.09 349.049 297.183 348.762 298.284C341.658 325.961 337.33 355.986 333.147 385.027L333.145 385.03L333.143 385.041C329.35 411.383 325.424 438.618 319.445 463.945L319.395 464.225C319.22 465.738 319.093 467.256 319.015 468.776C318.999 469.079 318.996 469.374 318.993 469.671C318.993 469.867 318.99 470.065 318.983 470.264L318.977 470.5V470.501C318.945 471.387 318.933 472.273 318.942 473.159L318.947 473.372L318.948 473.427L318.952 473.514L318.967 473.847L318.99 474.22V474.237L319.024 474.868L319.036 475.108C319.072 475.869 319.107 476.632 319.177 477.372C319.216 477.797 319.272 478.209 319.326 478.623L319.392 479.121L319.421 479.348C319.511 480.042 319.6 480.735 319.719 481.413C319.798 481.871 319.896 482.319 319.993 482.767L320.038 482.976L320.074 483.146C320.226 483.861 320.382 484.576 320.567 485.274C320.716 485.835 320.884 486.38 321.054 486.929L321.066 486.967C321.268 487.638 321.487 488.301 321.721 488.954C321.924 489.506 322.138 490.051 322.363 490.59ZM260.049 418.553C258.976 420.563 257.72 422.471 256.298 424.25C252.144 429.415 246.767 432.991 240.005 435.111C230.122 438.217 218.364 437.99 206.986 437.77L206.91 437.768L206.802 437.767C200.068 437.634 193.106 437.497 186.694 438.079L184.885 438.244L184.512 440.023C183.77 443.551 183.138 447.056 182.51 450.528L182.483 450.679C180.218 463.237 178.076 475.098 171.333 486.154C162.798 500.139 146.921 510.205 130.877 511.799C128.257 512.067 123.701 512.067 121.308 511.8C111.067 510.732 102.695 506.363 97.0972 499.17C90.396 490.565 87.7802 478.381 89.708 464.983C94.1786 442.353 97.92 419.189 101.539 396.787L101.541 396.777L101.55 396.718C105.252 373.794 109.081 350.092 113.685 326.996C123.593 277.303 150.597 269.857 186.109 269.857C193.344 269.857 200.938 270.167 208.808 270.489H208.812L209.06 270.499L209.163 270.503C222.898 271.07 237.095 271.653 251.447 270.597C261.61 271.815 269.537 275.945 275.043 282.895C274.875 283.123 274.711 283.355 274.551 283.593L274.548 283.596C274.434 283.767 274.318 283.935 274.199 284.101C273.811 284.643 273.422 285.188 273.044 285.751C272.574 286.459 272.117 287.175 271.674 287.9L271.515 288.155C271.206 288.655 270.899 289.154 270.601 289.67C270.163 290.433 269.74 291.205 269.332 291.985L269.202 292.227C268.914 292.765 268.625 293.302 268.349 293.857C267.974 294.607 267.619 295.386 267.263 296.164L267.176 296.355L267.019 296.694L266.924 296.903C266.71 297.366 266.496 297.829 266.292 298.308C265.959 299.087 265.646 299.891 265.333 300.696L265.331 300.699L265.204 301.026L264.944 301.687C264.767 302.128 264.595 302.572 264.43 303.018C264.103 303.934 263.791 304.855 263.494 305.782L263.492 305.788L263.411 306.035C263.337 306.261 263.261 306.487 263.183 306.712C263.04 307.134 262.897 307.554 262.764 307.989C262.433 309.07 262.13 310.187 261.826 311.304V311.308L261.824 311.311L261.767 311.523C261.702 311.763 261.634 312.002 261.566 312.238C261.472 312.562 261.382 312.887 261.298 313.214C260.834 315.031 260.411 316.858 260.03 318.694C258.887 324.189 257.76 329.688 256.651 335.191L256.302 336.913C255.944 338.691 255.586 340.477 255.228 342.271L255.226 342.281L255.221 342.308L254.941 343.706L254.731 344.761L254.413 346.351L253.072 353.152L252.827 354.382L252.618 355.45C251.984 355.709 251.346 355.954 250.705 356.185L250.207 356.369C249.731 356.545 249.254 356.723 248.775 356.877C247.895 357.157 247.008 357.391 246.12 357.622L245.57 357.771H245.568L245.565 357.773L245.562 357.774C245.139 357.888 244.717 358.004 244.292 358.101C243.333 358.32 242.364 358.494 241.396 358.665L240.819 358.773C240.462 358.844 240.104 358.908 239.744 358.965C238.674 359.128 237.591 359.25 236.51 359.369L235.92 359.438C235.657 359.472 235.393 359.503 235.129 359.528C233.887 359.642 232.637 359.72 231.381 359.788C231.07 359.804 230.764 359.834 230.45 359.847C228.927 359.916 227.402 359.961 225.877 359.981L225.71 359.986H225.707C222.459 360.029 219.163 359.991 215.821 359.948C213.434 359.918 211.002 359.89 208.554 359.893C206.106 359.896 203.643 359.931 201.185 360.032L200.201 360.073L197.614 362.758L196.058 373.964L243.994 373.951C244.718 374.059 248.908 375.31 250.356 375.81L250.695 375.933L253.481 377.295L253.5 377.192C258.178 379.615 261.517 383.361 263.416 388.395C266.631 396.918 265.309 408.755 260.049 418.553ZM636.295 352.591C629.94 352.419 623.365 352.245 617.068 352.64L614.979 352.771L613.573 367.471L616.168 367.572C624.423 367.905 633.02 367.414 641.337 366.936H641.34L641.422 366.932C651.43 366.361 661.775 365.776 671.477 366.606C682.019 367.513 688.364 373.778 688.453 383.364C688.554 394.598 679.568 407.675 664.872 409.212C655.303 410.211 644.715 409.805 634.474 409.412C625.293 409.057 615.8 408.692 606.927 409.329L604.994 409.464L602.423 424.978L605.093 425.188C612.279 425.747 620.03 425.421 627.525 425.1C635.56 424.755 643.865 424.406 651.259 425.18C661.575 426.277 669.108 430.641 673.65 438.151C679.524 447.856 679.717 462.031 674.169 476.064C667.239 493.633 650.847 504.947 630.322 506.336C604.706 508.087 566.239 508.066 542.746 506.287C531.597 505.461 522.814 502.321 516.595 496.944L516.758 496.779L516.763 496.776L516.931 496.606C517.212 496.329 517.49 496.05 517.765 495.768L517.945 495.584C518.408 495.111 518.871 494.635 519.317 494.152C519.644 493.793 519.968 493.432 520.287 493.067L520.292 493.061C521.46 491.735 522.566 490.356 523.607 488.927L523.916 488.504L524.019 488.359L524.166 488.155L524.447 487.754C524.812 487.223 525.168 486.687 525.515 486.146L525.649 485.938L525.652 485.933L525.964 485.448C526.067 485.287 526.168 485.126 526.267 484.963C526.616 484.39 526.945 483.808 527.274 483.225L527.442 482.93L527.522 482.79L527.656 482.554L527.778 482.335L527.847 482.208L527.916 482.08C528.263 481.428 528.586 480.764 528.91 480.098C529.07 479.767 529.241 479.441 529.396 479.105C529.861 478.097 530.297 477.076 530.704 476.043C535.027 464.98 539.975 430.967 538.163 419.384C538.061 418.727 537.931 418.075 537.775 417.429C537.744 417.311 537.711 417.193 537.675 417.077L537.664 417.037L537.642 416.96C537.628 416.917 537.615 416.873 537.604 416.828L537.596 416.803C537.487 416.38 537.366 415.96 537.231 415.545C537.182 415.4 537.13 415.257 537.072 415.115L536.971 414.855L536.938 414.765C536.809 414.419 536.682 414.074 536.537 413.737C536.463 413.574 536.386 413.411 536.307 413.249L536.234 413.102L536.196 413.022L536.145 412.915L536.09 412.802L536.045 412.708L535.998 412.607C535.839 412.281 535.668 411.961 535.486 411.648L535.409 411.521L535.392 411.489L535.276 411.296L535.245 411.243C535.067 410.945 534.89 410.645 534.698 410.354C534.559 410.15 534.418 409.949 534.273 409.75L534.209 409.659L534.194 409.639L534.189 409.631C533.983 409.344 533.777 409.06 533.556 408.781L533.447 408.646L533.36 408.54C533.272 408.434 533.184 408.329 533.095 408.226L532.993 408.107C532.563 407.597 532.11 407.106 531.635 406.637C531.239 406.247 530.833 405.869 530.417 405.501C530.182 405.298 529.944 405.097 529.704 404.899L529.431 404.68L529.358 404.621L529.263 404.547C528.868 404.24 528.466 403.942 528.057 403.653L527.963 403.586L527.87 403.521L527.727 403.423L527.545 403.299C526.94 402.89 526.321 402.503 525.688 402.138L525.433 401.991C525.051 401.769 524.663 401.557 524.271 401.355L524.176 401.306L524.014 401.223L523.908 401.169L523.689 401.06C523.363 400.894 523.031 400.732 522.695 400.573C522.568 400.514 522.44 400.456 522.31 400.399C522.175 400.337 522.038 400.277 521.901 400.218L521.682 400.124L521.547 400.066L520.913 399.795L520.493 399.62C520.142 399.483 519.789 399.351 519.434 399.222L519.263 399.159L519.033 399.075L518.611 398.919L518.456 398.864L518.153 398.758C517.75 398.621 517.335 398.494 516.921 398.368L516.817 398.334L516.527 398.244L516.517 398.241L515.682 397.984L515.623 397.966L515.585 397.955L515.512 397.933L517.857 386.974C522.741 364.321 527.789 340.893 530.141 318.714C532.637 305.477 538.669 294.044 547.591 285.648L547.598 285.64C557.706 276.082 571.195 270.538 586.616 269.601C611.918 268.052 648.027 268.049 670.608 269.601C689.797 270.938 701.857 281.717 703.694 299.177C705.729 318.511 693.538 343.508 670.301 350.173C659.69 353.211 647.859 352.898 636.408 352.594L636.295 352.591ZM526.127 474.252C525.739 475.241 525.322 476.219 524.877 477.183C521.752 483.919 517.216 489.929 511.365 495.075C492.453 511.716 465.19 515.034 445.054 503.131C422.532 489.863 427.337 464.582 431.986 440.131L431.987 440.123L431.992 440.098V440.093C433.197 433.746 434.337 427.748 434.95 422.094L435.25 419.316L425.557 419.516L423.111 422.195L422.965 422.823C421.502 429.142 420.481 435.713 419.493 442.069V442.073L419.479 442.164C417.277 456.36 414.999 471.041 407.671 483.404C398.018 499.662 380.565 509.898 362.125 510.118C347.968 510.367 336.102 504.398 329.565 493.966C324.724 486.257 322.939 476.489 324.261 464.934C330.264 439.465 334.195 412.201 337.995 385.831L338.009 385.741C342.175 356.828 346.482 326.93 353.521 299.51C353.793 298.462 354.091 297.438 354.417 296.439C356.373 290.448 359.313 285.377 363.197 281.3C363.84 280.624 364.511 279.974 365.208 279.352L365.227 279.334C371.348 273.835 379.338 270.592 388.976 269.695C403.389 271.55 422.906 270.659 443.557 269.712C476.778 268.192 514.431 266.473 534.206 276.846C537.433 278.53 540.294 280.835 542.626 283.63C542.426 283.833 542.239 284.045 542.05 284.259C541.913 284.416 541.774 284.57 541.632 284.724C541.127 285.259 540.632 285.803 540.146 286.357C539.563 287.028 539.003 287.718 538.452 288.415C537.992 288.992 537.535 289.566 537.098 290.161C536.569 290.891 536.055 291.631 535.557 292.383L535.337 292.711L535.333 292.717C534.999 293.213 534.664 293.711 534.349 294.222C533.873 294.989 533.429 295.778 532.985 296.569L532.981 296.578L532.955 296.624L532.711 297.057C532.435 297.544 532.16 298.031 531.901 298.532C531.496 299.328 531.11 300.134 530.742 300.948L530.655 301.136C530.558 301.347 530.459 301.558 530.359 301.77C530.156 302.201 529.953 302.631 529.764 303.075C529.421 303.901 529.097 304.735 528.792 305.575L528.791 305.58L528.654 305.946C528.569 306.175 528.482 306.403 528.393 306.63V306.631L528.391 306.633C528.237 307.033 528.084 307.432 527.944 307.843C527.593 308.908 527.267 309.982 526.968 311.063L526.936 311.174C526.87 311.404 526.802 311.631 526.731 311.856C526.633 312.175 526.535 312.494 526.449 312.822C526.001 314.534 525.612 316.26 525.284 317.999C522.934 340.089 517.922 363.356 513.071 385.861L512.69 386.014C511.167 386.623 509.617 387.163 508.045 387.631L507.646 387.745L507.379 387.82C505.756 388.278 504.098 388.681 502.398 389.004L502.062 389.063L501.821 389.102C500.068 389.42 498.281 389.676 496.453 389.848L496.263 389.86L496.074 389.875C494.13 390.05 492.178 390.144 490.226 390.155L488.175 390.165L486.386 400.307L489.111 400.494C490.415 400.572 491.721 400.59 493.026 400.548L494.253 400.516C494.719 400.501 495.182 400.485 495.641 400.469C496.371 400.44 497.062 400.424 497.763 400.405C499.342 400.361 500.876 400.346 502.303 400.488C505.848 400.836 509.12 401.382 512.046 402.105C524.764 405.162 531.92 411.231 533.311 420.142C534.993 430.912 530.173 463.905 526.127 474.252ZM777.18 93.9544C777.225 93.1975 777.277 92.4131 777.336 91.6013V91.5918C777.811 84.7845 778.35 77.0733 773.857 73.0901C771.497 70.997 768.142 70.358 763.887 71.1698L762.208 71.4933L743.66 182.782L746.241 183.068C747.055 183.157 747.828 183.201 748.56 183.203C753.216 183.203 756.289 181.331 759.092 176.966C767.152 164.438 776.337 108.709 777.18 93.9544ZM290.359 143.654L306.664 143.586L317.794 71.1334L304.497 71.1809L290.359 143.654ZM120.914 118.458V118.461C119.748 120.191 117.171 124.027 112.637 124.027C112.142 124.029 111.624 123.98 111.083 123.881L108.692 123.448L121.624 47.9302L123.404 47.6812C128.3 47.0026 131.391 48.6866 132.832 52.7792C133.079 53.4816 133.292 54.2348 133.442 55.0784C135.624 67.3087 128.499 107.252 120.914 118.458ZM441.716 379.588C444.255 375.83 446.744 368.76 448.83 360.616C452.812 345.068 455.33 325.604 453.941 317.782C452.933 312.112 449.711 309.739 444.083 310.516L442.305 310.764L429.676 384.472L432.07 384.907C432.596 385.001 433.1 385.047 433.582 385.046C438.027 385.046 440.567 381.291 441.716 379.588Z" fill="black"/>
</svg>
