<svg width="512" height="512" viewBox="0 0 512 512" fill="none" xmlns="http://www.w3.org/2000/svg">
<path d="M256 458.79C144.181 458.79 53.211 367.818 53.211 256C53.211 144.181 144.181 53.21 256 53.21C367.819 53.21 458.789 144.181 458.789 256C458.789 367.819 367.819 458.79 256 458.79ZM256 0C114.841 0 0 114.841 0 256C0 397.16 114.841 512 256 512C397.159 512 512 397.16 512 256C512 114.841 397.159 0 256 0Z" fill="#FB81FF"/>
<path d="M213.991 214.142H207.51C206.401 214.142 205.302 213.924 204.278 213.499C203.253 213.075 202.322 212.453 201.537 211.669C200.753 210.884 200.131 209.953 199.707 208.928C199.282 207.904 199.064 206.805 199.064 205.696V203.942C199.064 201.709 199.948 199.567 201.523 197.984C203.098 196.402 205.236 195.507 207.469 195.497C210.33 195.484 212.85 195.484 213.991 195.484C222.633 195.484 230.293 196.27 230.293 204.813C230.195 213.259 222.633 214.142 213.991 214.142ZM366.457 227.052H250.331C249.762 226.861 249.345 226.35 249.345 225.721C249.345 224.969 249.927 224.351 250.677 224.299C256.713 223.887 281.186 220.469 281.359 192.144C281.555 156.3 253.076 152.273 217.919 152.273H147.408C145.168 152.273 143.02 153.163 141.436 154.747C139.852 156.331 138.962 158.479 138.962 160.719V276.502C138.962 278.742 139.852 280.89 141.436 282.474C143.02 284.058 145.168 284.948 147.408 284.948H190.619C192.859 284.948 195.007 284.058 196.591 282.474C198.174 280.89 199.064 278.742 199.064 276.502V254.211C199.064 253.102 199.282 252.003 199.707 250.979C200.131 249.954 200.753 249.023 201.537 248.238C202.322 247.454 203.253 246.832 204.278 246.407C205.302 245.982 206.401 245.764 207.51 245.764C216.643 245.961 218.705 247.729 223.517 264.915C224.832 269.464 226.105 274.024 227.337 278.596C227.817 280.392 228.876 281.978 230.351 283.109C231.826 284.24 233.633 284.852 235.492 284.85H240.991V353.145C240.991 354.89 241.684 356.564 242.918 357.798C244.152 359.032 245.826 359.725 247.571 359.725H294.511C296.256 359.725 297.93 359.032 299.164 357.798C300.398 356.564 301.091 354.89 301.091 353.145V326.042C301.091 324.297 301.784 322.623 303.018 321.389C304.252 320.155 305.926 319.462 307.671 319.462H354.21C355.94 319.462 357.6 318.781 358.831 317.567C360.063 316.352 360.766 314.701 360.79 312.972L361.102 290.091C361.114 289.219 360.953 288.354 360.627 287.545C360.302 286.737 359.819 286.001 359.207 285.38C358.595 284.759 357.865 284.267 357.061 283.93C356.257 283.594 355.394 283.421 354.522 283.421H307.671C305.926 283.421 304.252 282.728 303.018 281.494C301.784 280.26 301.091 278.586 301.091 276.841C301.091 275.096 301.784 273.422 303.018 272.188C304.252 270.954 305.926 270.261 307.671 270.261H365.843C367.565 270.261 369.218 269.586 370.447 268.381C371.677 267.176 372.386 265.537 372.421 263.816L373.036 233.765C373.054 232.89 372.897 232.02 372.574 231.206C372.251 230.393 371.769 229.652 371.157 229.026C370.544 228.401 369.813 227.905 369.006 227.566C368.199 227.227 367.332 227.052 366.457 227.052Z" fill="#FB81FF"/>
<path fill-rule="evenodd" clip-rule="evenodd" d="M256 0C114.841 0 0 114.841 0 256C0 397.16 114.841 512 256 512C397.159 512 512 397.16 512 256C512 114.841 397.159 0 256 0ZM256 458.79C144.181 458.79 53.211 367.818 53.211 256C53.211 144.181 144.181 53.21 256 53.21C367.819 53.21 458.789 144.181 458.789 256C458.789 367.819 367.819 458.79 256 458.79ZM250.331 227.052H366.457C367.332 227.052 368.199 227.227 369.006 227.566C369.813 227.905 370.544 228.401 371.157 229.026C371.769 229.652 372.251 230.393 372.574 231.206C372.897 232.02 373.054 232.89 373.036 233.765L372.421 263.816C372.386 265.537 371.677 267.176 370.447 268.381C369.218 269.586 367.565 270.261 365.843 270.261H307.671C305.926 270.261 304.252 270.954 303.018 272.188C301.784 273.422 301.091 275.096 301.091 276.841C301.091 278.586 301.784 280.26 303.018 281.494C304.252 282.728 305.926 283.421 307.671 283.421H354.522C355.394 283.421 356.257 283.594 357.061 283.93C357.865 284.267 358.595 284.759 359.207 285.38C359.819 286.001 360.302 286.737 360.627 287.545C360.953 288.354 361.114 289.219 361.102 290.091L360.79 312.972C360.766 314.701 360.063 316.352 358.831 317.567C357.6 318.781 355.94 319.462 354.21 319.462H307.671C305.926 319.462 304.252 320.155 303.018 321.389C301.784 322.623 301.091 324.297 301.091 326.042V353.145C301.091 354.89 300.398 356.564 299.164 357.798C297.93 359.032 296.256 359.725 294.511 359.725H247.571C245.826 359.725 244.152 359.032 242.918 357.798C241.684 356.564 240.991 354.89 240.991 353.145V284.85H235.492C233.633 284.852 231.826 284.24 230.351 283.109C228.876 281.978 227.817 280.392 227.337 278.596C226.105 274.024 224.832 269.464 223.517 264.915C218.705 247.729 216.643 245.961 207.51 245.764C206.401 245.764 205.302 245.982 204.278 246.407C203.253 246.832 202.322 247.454 201.537 248.238C200.753 249.023 200.131 249.954 199.707 250.979C199.282 252.003 199.064 253.102 199.064 254.211V276.502C199.064 278.742 198.174 280.89 196.591 282.474C195.007 284.058 192.859 284.948 190.619 284.948H147.408C145.168 284.948 143.02 284.058 141.436 282.474C139.852 280.89 138.962 278.742 138.962 276.502V160.719C138.962 158.479 139.852 156.331 141.436 154.747C143.02 153.163 145.168 152.273 147.408 152.273H217.919C253.076 152.273 281.555 156.3 281.359 192.144C281.186 220.469 256.713 223.887 250.677 224.299C249.927 224.351 249.345 224.969 249.345 225.721C249.345 226.35 249.762 226.861 250.331 227.052ZM207.51 214.142H213.991C222.633 214.142 230.195 213.259 230.293 204.813C230.293 196.27 222.633 195.484 213.991 195.484C212.85 195.484 210.33 195.484 207.469 195.497C205.236 195.507 203.098 196.402 201.523 197.984C199.948 199.567 199.064 201.709 199.064 203.942V205.696C199.064 206.805 199.282 207.904 199.707 208.928C200.131 209.953 200.753 210.884 201.537 211.669C202.322 212.453 203.253 213.075 204.278 213.499C205.302 213.924 206.401 214.142 207.51 214.142Z" fill="#FB81FF"/>
<path fill-rule="evenodd" clip-rule="evenodd" d="M256 458.79C144.181 458.79 53.211 367.818 53.211 256C53.211 144.181 144.181 53.21 256 53.21C367.819 53.21 458.789 144.181 458.789 256C458.789 367.819 367.819 458.79 256 458.79ZM250.331 227.052H366.457C367.332 227.052 368.199 227.227 369.006 227.566C369.813 227.905 370.544 228.401 371.157 229.026C371.769 229.652 372.251 230.393 372.574 231.206C372.897 232.02 373.054 232.89 373.036 233.765L372.421 263.816C372.386 265.537 371.677 267.176 370.447 268.381C369.218 269.586 367.565 270.261 365.843 270.261H307.671C305.926 270.261 304.252 270.954 303.018 272.188C301.784 273.422 301.091 275.096 301.091 276.841C301.091 278.586 301.784 280.26 303.018 281.494C304.252 282.728 305.926 283.421 307.671 283.421H354.522C355.394 283.421 356.257 283.594 357.061 283.93C357.865 284.267 358.595 284.759 359.207 285.38C359.819 286.001 360.302 286.737 360.627 287.545C360.953 288.354 361.114 289.219 361.102 290.091L360.79 312.972C360.766 314.701 360.063 316.352 358.831 317.567C357.6 318.781 355.94 319.462 354.21 319.462H307.671C305.926 319.462 304.252 320.155 303.018 321.389C301.784 322.623 301.091 324.297 301.091 326.042V353.145C301.091 354.89 300.398 356.564 299.164 357.798C297.93 359.032 296.256 359.725 294.511 359.725H247.571C245.826 359.725 244.152 359.032 242.918 357.798C241.684 356.564 240.991 354.89 240.991 353.145V284.85H235.492C233.633 284.852 231.826 284.24 230.351 283.109C228.876 281.978 227.817 280.392 227.337 278.596C226.105 274.024 224.832 269.464 223.517 264.915C218.705 247.729 216.643 245.961 207.51 245.764C206.401 245.764 205.302 245.982 204.278 246.407C203.253 246.832 202.322 247.454 201.537 248.238C200.753 249.023 200.131 249.954 199.707 250.979C199.282 252.003 199.064 253.102 199.064 254.211V276.502C199.064 278.742 198.174 280.89 196.591 282.474C195.007 284.058 192.859 284.948 190.619 284.948H147.408C145.168 284.948 143.02 284.058 141.436 282.474C139.852 280.89 138.962 278.742 138.962 276.502V160.719C138.962 158.479 139.852 156.331 141.436 154.747C143.02 153.163 145.168 152.273 147.408 152.273H217.919C253.076 152.273 281.555 156.3 281.359 192.144C281.186 220.469 256.713 223.887 250.677 224.299C249.927 224.351 249.345 224.969 249.345 225.721C249.345 226.35 249.762 226.861 250.331 227.052Z" fill="white"/>
<path d="M213.991 214.142H207.51C206.401 214.142 205.302 213.924 204.278 213.499C203.253 213.075 202.322 212.453 201.537 211.669C200.753 210.884 200.131 209.953 199.707 208.928C199.282 207.904 199.064 206.805 199.064 205.696V203.942C199.064 201.709 199.948 199.567 201.523 197.984C203.098 196.402 205.236 195.507 207.469 195.497C210.33 195.484 212.85 195.484 213.991 195.484C222.633 195.484 230.293 196.27 230.293 204.813C230.195 213.259 222.633 214.142 213.991 214.142Z" fill="white"/>
</svg>
