<svg width="1000" height="1000" viewBox="0 0 1000 1000" fill="none" xmlns="http://www.w3.org/2000/svg">
<g clip-path="url(#clip0_3948_244)">
<path d="M217.095 84.7992C224.162 88.3174 216.616 90.3163 232.946 129.336C249.276 168.315 254.746 177.83 241.371 192.862C227.676 208.294 195.854 242.476 165.948 326.312C136.003 410.107 112.166 476.592 112.166 476.592C112.166 476.592 136.961 448.967 173.414 367.969C209.908 286.972 217.853 264.504 212.224 252.311C206.594 240.117 213.142 240.117 230.91 238.278C248.677 236.399 280.02 230.762 296.39 224.246C303.417 221.447 298.267 235 280.499 250.951C262.732 266.863 251.991 309.001 231.868 362.372C211.745 415.744 197.97 455.123 195.374 467.237C193.977 473.794 202.402 466.317 237.458 423.22C272.514 380.163 296.829 324.433 301.062 285.573C305.254 246.714 303.857 194.261 343.145 167.595C382.433 140.89 430.585 142.769 482.012 147.926C482.012 147.926 479.217 249.072 478.738 256.069C478.259 263.105 473.587 266.383 461.888 265.903C461.888 265.903 452.945 216.49 404.832 212.052C356.321 207.574 323.78 242.996 321.584 283.694C320.107 311.639 334.72 326.591 341.787 336.586C352.009 351.018 349.134 387.359 318.15 416.264C296.23 436.693 243.966 459.281 206.075 492.983C168.184 526.686 157.444 563.226 164.91 589.892C172.376 616.598 201.403 639.986 237.857 611.441C237.857 611.441 246.761 628.312 221.487 643.744C196.253 659.175 136.841 639.986 129.375 597.848C121.908 555.71 135.324 541.838 156.485 498.58C168.184 474.713 177.048 456.922 179.404 434.414C179.404 434.414 157.444 469.516 131.251 502.298C105.059 535.081 92.4421 555.19 90.0864 587.054C90.0864 587.054 59.2227 527.605 5.91992 516.811C5.91992 516.811 53.1538 493.383 79.7852 427.858C106.457 362.293 133.088 283.654 142.431 257.428C151.774 231.202 168.144 207.814 141.952 181.108C115.76 154.402 88.1699 137.571 78.827 131.495C69.484 125.418 80.7035 127.297 97.992 127.297C115.28 127.297 148.979 118.381 175.131 105.748C201.443 93.1149 208.83 80.6814 217.095 84.7992Z" fill="white"/>
<path d="M276.746 487.826C275.988 480.31 290.721 470.755 285.171 471.914C256.184 477.991 209.429 507.495 191.661 532.802C173.894 558.069 178.086 589.932 194.935 599.767C211.785 609.601 244.964 598.367 251.991 584.775C259.018 571.182 231.908 587.573 232.826 558.548C233.665 531.323 255.146 520.329 306.731 519.369C306.731 519.369 242.688 694.756 167.505 812.134C154.01 833.203 186.551 803.899 237.059 800.62C287.566 797.342 301.621 805.098 292.238 788.227C282.895 771.356 268.601 754.725 281.018 708.869C311.722 595.129 349.254 524.167 349.254 524.167C365.025 531.803 371.214 542.317 374.568 554.271C377.922 566.224 377.442 573.381 385.548 579.138C393.653 584.855 379.838 555.71 415.613 520.329C451.428 484.947 502.015 475.872 529.246 479.71C529.246 479.71 540.226 458.681 475.304 461.56C410.382 464.438 356.84 495.222 313.918 498.38C301.661 499.3 278.423 503.897 276.826 487.866L276.746 487.826Z" fill="white"/>
<path d="M308.168 480.27C323.021 481.189 350.292 477.191 370.255 469.955C378.48 466.957 365.783 464.678 369.856 436.093C374.088 406.269 389.939 374.126 402.796 356.975C409.304 348.3 401.878 349.779 394.172 351.978C386.466 354.176 377.203 351.738 374.967 351.618C372.731 351.498 368.339 354.536 361.391 373.766C354.404 392.996 344.782 416.863 333.283 437.532C320.546 460.44 312.121 466.077 305.054 471.914C297.987 477.751 303.777 479.99 308.208 480.27H308.168Z" fill="white"/>
<path d="M463.246 277.297C463.246 277.297 461.289 310.919 444.76 327.47C440.288 331.948 477.5 335.306 500.458 303.643C500.458 303.643 524.454 295.128 512.756 314.997C506.447 325.671 485.326 333.347 461.529 342.303C437.732 351.258 385.108 371.447 385.108 454.443C385.108 460.6 387.624 465.358 396.288 460.6C404.952 455.843 472.828 439.211 519.184 448.846C527.289 450.525 526.171 447.447 522.258 438.212C518.345 428.977 517.786 409.067 521.979 394.755C526.171 380.442 534.037 374.006 519.184 373.166C504.331 372.327 485.605 376.804 476.901 390.277C468.237 403.75 476.342 402.631 480.534 402.031C484.727 401.471 490.596 406.509 481.652 416.064C472.709 425.579 442.444 437.093 428.469 435.134C414.455 433.175 422.041 402.631 453.943 381.042C485.845 359.454 525.333 356.375 544.378 335.906C563.423 315.437 562.784 276.058 556.995 261.625C551.046 246.833 550.567 260.786 531.801 269.181C519.423 274.738 492.592 284.613 463.206 277.297H463.246Z" fill="white"/>
<path d="M668.472 316.837C661.485 326.632 631.419 382.962 629.263 417.464C628.425 430.937 630.381 432.616 622.835 432.616C615.289 432.616 611.935 431.216 596.244 435.694C580.552 440.172 557.315 445.489 543.619 441.851C529.885 438.213 525.133 416.064 533.278 390.558C541.384 365.051 552.324 344.582 563.503 338.705C574.683 332.828 589.536 341.224 610.258 329.75C630.98 318.276 632.378 296.408 628.744 290.771C625.111 285.174 613.612 286.853 607.463 293.569C601.314 300.286 598.799 308.161 598.24 314.598C597.681 321.035 591.812 331.429 578.077 327.231C564.342 323.034 562.944 296.128 577.797 278.737C592.65 261.346 622.316 257.988 636.57 270.621C650.864 283.255 646.352 286.053 653.379 298.367C656.733 304.244 664.279 309.001 667.673 310.12C671.027 311.24 669.909 314.878 668.512 316.837H668.472ZM572.806 412.626C578.276 429.817 594.686 419.263 594.686 419.263C581.391 401.672 618.882 340.664 618.882 340.664C588.019 340.664 567.336 395.395 572.806 412.586V412.626Z" fill="white"/>
<path d="M670.827 303.123C678.493 304.403 684.123 309.76 679.012 325.392C673.942 341.023 654.018 399.273 642.319 423.14C630.621 447.007 623.953 453.644 628.265 456.762C632.577 459.881 640.762 447.007 664.199 445.048C687.637 443.089 693.107 441.53 694.265 435.653C695.423 429.776 683.325 432.535 693.107 401.631C702.849 370.728 714.987 335.146 720.457 316.796C725.927 298.406 732.555 288.251 738.823 285.893C745.052 283.534 745.451 296.047 729.081 339.064C729.081 339.064 754.834 349.219 766.972 314.837C779.07 280.415 781.426 267.542 790.409 259.307C799.393 251.111 795.081 249.912 787.295 250.311C779.469 250.711 741.219 257.348 719.339 278.456C719.339 278.456 711.154 275.738 717.782 262.425C724.41 249.112 716.983 246.393 702.929 254.229C688.874 262.065 673.343 278.297 669.43 291.17C665.517 304.083 668.671 302.724 670.907 303.083L670.827 303.123Z" fill="white"/>
<path d="M541.783 522.688C526.73 536.52 510.799 556.27 503.173 580.457C495.547 604.684 484.088 614.879 460.331 609.762C460.331 609.762 473.467 577.459 478.139 560.468C482.81 543.477 465.402 554.111 457.337 568.983C449.271 583.855 417.409 658.096 428.07 708.789C429.787 716.865 431.025 716.865 413.656 717.705C396.248 718.544 369.936 726.62 356.361 734.256C342.785 741.892 352.528 727.459 360.593 714.706C368.658 701.953 376.724 684.122 389.021 652.259C401.319 620.396 409.384 588.933 405.551 584.295C401.718 579.618 395.37 586.854 401.319 566.864C407.268 546.875 423.798 532.443 436.974 526.486C450.11 520.529 454.382 521.368 447.994 535.001C441.645 548.594 447.994 551.992 455.62 546.915C463.246 541.798 484.487 529.924 510.799 523.527C537.111 517.171 546.853 518.01 541.783 522.688Z" fill="white"/>
<path d="M624.472 520.968C616.367 536.36 603.829 605.723 584.625 621.755C565.42 637.786 529.485 640.265 529.485 640.265C523.456 655.217 512.676 680.444 520.501 682.923C537.87 688.44 557.833 678.285 559.271 666.171C560.708 654.058 550.367 657.976 550.367 657.976C545.017 653.338 559.67 634.548 575.321 645.942C590.973 657.336 572.008 691.438 568.095 697.835C564.182 704.231 560.988 698.914 538.588 699.274C516.189 699.634 488.759 711.947 479.137 716.225C469.554 720.503 461.729 723.341 466.68 713.386C471.671 703.432 489.957 663.773 503.852 618.197C517.707 572.621 522.099 561.747 534.795 545.555C561.187 511.893 631.539 507.455 624.392 520.968H624.472ZM586.421 547.314C583.946 546.595 560.828 554.431 549.089 573.301C537.351 592.171 537.351 615.318 537.351 615.318C563.303 607.482 588.897 548.034 586.421 547.314Z" fill="white"/>
<path d="M732.714 505.017C724.609 520.089 712.072 588.014 692.867 603.685C673.662 619.397 637.728 621.836 637.728 621.836C631.699 636.468 627.426 658.816 635.252 661.255C652.62 666.692 672.584 656.737 674.021 644.863C675.459 632.99 665.118 636.828 665.118 636.828C659.767 632.31 668.671 614.16 684.323 625.314C699.974 636.468 695.662 672.729 691.749 679.005C687.836 685.282 680.21 677.366 657.891 679.005C635.532 680.645 613.731 686.841 593.488 699.275C584.545 704.752 576.12 707.39 581.111 697.636C586.102 687.881 598.2 664.613 614.849 599.767C626.468 554.511 628.145 543.397 639.524 529.045C661.125 501.739 739.821 491.744 732.674 505.017H732.714ZM694.664 530.804C692.188 530.124 669.07 537.76 657.332 556.27C645.593 574.741 645.593 597.409 645.593 597.409C671.546 589.733 697.139 531.483 694.664 530.804Z" fill="white"/>
<path d="M990.923 97.3926C985.693 95.3937 975.671 112.265 937.94 120.7C900.209 129.136 901.407 122.299 899.41 129.935C897.534 137.092 910.67 136.372 897.414 171.753C892.463 184.986 882.361 211.452 870.822 242.116C860.681 242.236 834.249 243.355 819.516 251.351C801.03 261.386 791.407 273.46 772.961 337.386C754.475 401.312 731.596 413.745 726.006 416.984C720.377 420.182 730.438 439.891 777.792 439.891C825.146 439.891 875.334 408.948 884.996 399.673C894.619 390.438 883.799 391.637 878.968 381.602C874.136 371.568 879.766 353.857 909.073 269.462C938.379 185.026 950.437 156.921 971.319 130.375C992.201 103.829 996.194 99.4315 991.003 97.3926H990.923ZM793.404 400.113C786.576 397.314 794.601 370.768 814.685 320.115C833.61 272.34 843.991 262.465 863.635 261.186C845.988 308.281 826.902 360.454 818.278 388.479C815.084 398.913 800.231 402.951 793.404 400.153V400.113Z" fill="white"/>
<path d="M750.043 487.226C746.33 490.784 749.643 492.224 742.017 520.169C734.351 548.114 723.811 579.138 715.586 593.17C708.758 604.844 703.288 610.201 699.215 614.519C696.94 616.958 691.789 617.717 705.444 631.19C727.164 652.579 772.003 715.985 753.556 772.475C735.11 829.006 669.629 855.432 626.907 851.114C584.225 846.756 573.006 795.303 596.882 762.001C620.759 728.659 658.769 718.544 670.348 731.217C681.927 743.891 675.778 752.246 673.622 755.484C671.466 758.763 694.264 764.16 706.921 746.809C719.578 729.418 713.07 696.076 675.099 691.758C637.089 687.4 562.265 712.787 548.41 797.142C534.556 881.498 605.506 931.991 681.967 911.442C758.427 890.893 816.641 826.007 829.937 754.965C843.233 683.922 749.564 618.477 749.564 618.477C749.564 618.477 759.545 560.228 775.596 532.482C791.687 504.737 829.897 504.737 840.438 504.737C840.438 504.737 827.701 524.167 823.828 541.358C819.955 558.549 802.787 556.909 798.874 549.114C795.001 541.358 782.783 556.869 783.342 579.617C783.901 602.365 805.502 624.554 837.084 602.365C868.666 580.177 833.451 534.681 894.699 463.079C901.367 455.323 907.436 449.206 876.971 449.766C846.507 450.326 781.026 457.562 750.003 487.226H750.043Z" fill="white"/>
<path d="M360.473 309.8C376.843 323.873 405.232 321.914 418.328 301.765C431.424 281.655 420.643 262.225 403.355 254.989C386.066 247.753 364.626 263.665 372.332 280.456C380.038 297.287 396.767 291.77 399.402 281.455C402.037 271.141 391.217 267.663 391.217 267.663C391.217 267.663 399.961 262.505 408.825 272.42C417.649 282.335 411.46 301.405 393.892 306.482C374.647 312.039 360.833 295.808 357.319 288.292C341.867 255.349 372.212 229.683 392.135 226.844C408.905 224.445 422.081 231.562 433.62 242.676C456.258 264.464 456.897 300.605 435.057 323.393C413.217 346.181 377.123 346.981 354.444 325.192C334.121 305.642 331.526 274.579 346.978 251.951C346.978 251.951 334.081 287.052 360.553 309.84L360.473 309.8Z" fill="white"/>
</g>
<defs>
<clipPath id="clip0_3948_244">
<rect width="987" height="832" fill="white" transform="translate(6 84)"/>
</clipPath>
</defs>
</svg>
